<?xml version="1.0" standalone="yes"?>
<svg width="1000" height="563">
<path style="fill:#ffffff; stroke:none;" d="M0 0L0 563L1000 563L1000 0L0 0z"/>
<path style="fill:#030303; stroke:none;" d="M456 41L456 46L463 41L456 41z"/>
<path style="fill:#412d25; stroke:none;" d="M453 51L448 52L448 54L474 59L474 60L467 60L467 58L461 58L466 61L466 62L459 61L451 63L451 64L456 69L459 67L459 71L466 73L466 72L464 72L464 71L478 81L469 76L468 76L464 78L464 79L470 79L476 84L476 85L470 85L472 89L468 90L452 85L452 84L462 85L462 84L459 83L458 81L458 80L460 80L460 79L458 77L463 78L463 77L448 76L448 78L454 79L454 80L447 80L447 81L456 81L456 82L450 86L464 90L451 96L447 103C448.561 106.95 448.727 109.477 444 110L445 113C439.319 117.965 445.886 130.072 449 135C440.813 136.067 439.909 138.302 441 146L466 150.595L487 155C484.857 159.137 482.42 162.124 481.755 167C480.828 173.81 484.08 177.945 478 183C478.384 194.848 478.459 204.257 492 208L493 227L488 213C484 214.516 482.754 216.874 482 221L479 221L479 222L482 222L482 228C478.525 227.736 476.824 227.952 475 231L523 234L523 239L520 237L525 244L527 244L526 233L515 231C510.114 235.845 489.849 231.566 483 230L486 221L488 218L487 225L497 226C496.348 221.73 490.313 212.077 496.163 209.308C500.323 207.339 503.604 210.114 508 207L508 206L504 204C503.49 207.9 499.193 206.477 496 207L496 206L503 204L503 203L497 203L493 208C489.716 201.484 482.121 200.658 481.085 192C480.546 187.5 483.383 184.232 484.077 180C484.784 175.694 482.91 171.298 483.809 167.015C485.694 158.039 489.633 155.95 487 146L486 146L484 153L463 147C466.556 138.5 460.162 137.272 458.056 129.985C456.374 124.166 457.214 115.145 457 109L455 109C457.538 95.3134 469.704 97.6042 479.91 93.6018C486.221 91.1271 490.773 86.3627 498 87L510 82L511 82L525 83L526 79L527 79L526 83L527 83L529 79L539 79L538 82L539 82C540.719 80.2921 540.96 79.7771 542 82L543 82L545 80L544 82L545 82L547 78L548 78L549 81L555 79L553 82L553 83L557 84L558 88L554 90L554 91L557 90L558 93L560 91L561 95L562 95L565 92L566 97L571 97L571 101L572 101C571.502 95.0732 569.47 81.891 563 80C564.366 73.4389 559.636 69.0609 556 64L553 65C551.254 59.8811 548.188 57.3552 543 56L543 57L546 60L536 56L542 64L550 71L534 64C533.597 67.0157 531.701 66.3662 529 66C529 69.6064 524.362 65.6215 522 65L524 68L519 68L520 70L519 70L511 68L512 72L501 68L501 69L505 71L505 72L476 60L476 59L482 60L485 58L485 57L483 55L490 56L490 57L488 59L505 62L505 58L501 55L505 55L505 54L488 52L489 50L486 49L488 48L488 47L478 48L486 44L487 42L487 41L462 45L465 41C460.662 43.076 453.872 46.1016 453 51z"/>
<path style="fill:#030303; stroke:none;" d="M462 45L465 46L477 42C471.765 39.8032 465.646 40.6224 462 45z"/>
<path style="fill:#795749; stroke:none;" d="M478 48L488 47L488 48L486 49L489 50L488 52L505 54L505 55L501 55L505 58L503 60C506.864 62.0912 509.894 62.6692 514 61L519 66C511.449 69.0433 500.608 63.6568 493 62L493 61L501 61L501 60L488 59L490 57L490 56L483 55L485 57L485 58L482 60L476 59L476 60C481.236 60.7849 496.534 62.8687 498 68L492 65L492 66L505 72L505 71L501 69L501 68L512 72L511 68L520 70L519 68L520 68L524 68L522 65C524.081 66.0566 528.426 69.2347 529 66L535 66L534 63L526 60L526 61L531 63L531 64L519 64L511 60L514 57L514 56L508 55L508 54L522 59L522 58L519 57L519 56L522 56L522 53C518.663 53.3513 507.924 50.3936 511 46C501.43 43.9013 485.052 36.6774 478 48z"/>
<path style="fill:#6f7da5; stroke:none;" d="M500 41C502.358 45.2758 505.576 45.0377 510 44L510 42L500 41z"/>
<path style="fill:#bf856f; stroke:none;" d="M510 41L511 42L510 41z"/>
<path style="fill:#795749; stroke:none;" d="M520 41L521 42L520 41z"/>
<path style="fill:#bf856f; stroke:none;" d="M508.667 42.3333L509.333 42.6667L508.667 42.3333z"/>
<path style="fill:#795749; stroke:none;" d="M479 43L477 44L477 45L479 43z"/>
<path style="fill:#bf856f; stroke:none;" d="M508 45L511 46L509 48C513.049 51.0787 516.784 53.7571 522 53L522 52C516.694 50.7377 513.788 47.5335 511 43L508 45z"/>
<path style="fill:#030303; stroke:none;" d="M473 45L463 47L460 51L469 48L465 51L465 52L474 46L473 45z"/>
<path style="fill:#bf856f; stroke:none;" d="M504.667 45.3333L505.333 45.6667L504.667 45.3333M506 46L506 47L509 47L506 46z"/>
<path style="fill:#412d25; stroke:none;" d="M469 47L470 48L469 47z"/>
<path style="fill:#030303; stroke:none;" d="M426 66L427 63L414 79C418.075 81.0373 418.788 86.9471 415 86L417 89L412 87L411 91L414 94L412 93L411 95L411 96L415 95L415 111L418 109L417 113L418 113L419 110L420 110L420 116L423 115L424 117L422 121L426 118L423 124L424 126L426 125L426 126L422 135L426 136L429 130L431 130L431 136L432 136L432 119C434.783 122.614 437.441 126.607 435 131C435.892 136.527 438.689 151.036 431 153L427 180L428 180L428 178L429 178C428.414 186.187 427.603 209.796 435 214L436 208L441 215C433.939 220.556 439.643 241.736 442 249L443 249L441 239L442 224L445 225L446 230L444 229L447 254L449 254L452 265C443.949 261.394 437.856 249.564 434 242L433 242L434 258L432 252L431 252C427.368 266.892 432.642 282.94 433 298C433.115 302.822 432.704 312.106 439 312L439 311C435.232 311 438.049 295.478 439 297L447 289L452 287L453 287C456.007 289.624 458.3 289.085 462 288L461 290L465 290L463 293C473.411 293.304 481.161 300.655 491.001 302.383C493.691 302.856 502.201 302.383 499 298L499 297L501 297L501 296L498 295L501 294L500 287L497 287L500 283L497 283L499 281L499 280L496 281L495 275L493 277L492 274L488 275L485 276L482 278L483 274L478 269L477 269L478 272L478 273L476 276L473 275L474 269L470 274L469 274L472 269L472 268L469 268L465 266L465 265L469 264L469 263L466 262L469 258C476.796 258.76 493.039 257.562 497 250L498 252L499 252C494.531 244.76 478.867 243.864 471 242L471 241L499 235.04L515 237L512 240L512 241L520 237L521 237L523 239L523 234L475 231L482 228L482 222L481 221L479 222L479 221L482 221L488 213L493 227L492 208C478.413 202.607 479.97 195.028 478 183C485.111 179.007 481.039 172.714 482.221 166C482.975 161.711 485.736 158.917 487 155L467 150.595L441 146C441.56 138.736 440.814 136.621 449 135C446.264 128.703 440.035 119.588 445 113L444 110C449.272 110.535 449.025 106.845 447 103L452.324 96.4769L464 90L450 86L456 82L456 81L447 81L447 80L454 80L454 79L448 78L448 76L468 76L469 76L478 81C474.464 76.3774 469.81 72.1717 464 71L464 72L466 72L466 73L459 71L459 67L456 69L451 64L451 63L459 61L466 62L466 61L461 58L467 58L467 60L474 60L474 59C464.725 54.6197 458.303 53.6429 448 54L448 52L453 51L453 48C441.228 49.0679 433.878 58.4557 426 66z"/>
<path style="fill:#bf856f; stroke:none;" d="M524.667 50.3333L525.333 50.6667L524.667 50.3333M526 51L529 55L519 56L519 57L522 58L522 59L508 54L508 55L514 56L514 57L511 60L519 64L531 64L531 63L526 61L526 60L532 64L536 64L532 55L529 56L531 52L526 51z"/>
<path style="fill:#6f7da5; stroke:none;" d="M532 51L533 52L532 51M533 52L533 53L546 60C543.064 54.6647 539.045 52.3143 533 52M540 52L541 53L540 52z"/>
<path style="fill:#795749; stroke:none;" d="M529 53L530 54L529 53M530 54L530 55C533.882 57.7774 536.033 60.1146 535 65L550 71L542 64C541.049 58.6945 535.161 54.8407 530 54z"/>
<path style="fill:#ffffff; stroke:none;" d="M529.667 55.3333L530.333 55.6667L529.667 55.3333z"/>
<path style="fill:#795749; stroke:none;" d="M537 55L540 58L537 55z"/>
<path style="fill:#ffffff; stroke:none;" d="M528 56L531 59L528 56z"/>
<path style="fill:#412d25; stroke:none;" d="M433 57L434 58L433 57z"/>
<path style="fill:#795749; stroke:none;" d="M490 57L490 58L498 58L490 57z"/>
<path style="fill:#412d25; stroke:none;" d="M432 58L433 59L432 58z"/>
<path style="fill:#795749; stroke:none;" d="M475 58L476 59L475 58z"/>
<path style="fill:#6f7da5; stroke:none;" d="M546 58L547 59L546 58z"/>
<path style="fill:#412d25; stroke:none;" d="M431 59L432 60L431 59M426 66L431 60L426 66z"/>
<path style="fill:#030303; stroke:none;" d="M474 60L475 61L474 60z"/>
<path style="fill:#6f7da5; stroke:none;" d="M541 60L542 61L541 60M546 60L547 61L546 60z"/>
<path style="fill:#bf856f; stroke:none;" d="M493 61L493 62L501 65L501 64L498 63L500 62L493 61z"/>
<path style="fill:#ffffff; stroke:none;" d="M498 62L498 63L510 64L498 62z"/>
<path style="fill:#bf856f; stroke:none;" d="M513 61L506 62L506 63L510 63L510 64L503 64L503 65L519 66L513 61z"/>
<path style="fill:#795749; stroke:none;" d="M543 61L544 62L543 61M477 64L473 63L481 69L481 68L477 66L477 65L480 64L479 66L480 66L490 69C488.264 66.8216 477.81 59.4335 477 64M544 63L554 77L555 77L551 63L544 63z"/>
<path style="fill:#bf856f; stroke:none;" d="M489 63L489 64L498 68L499 65L489 63z"/>
<path style="fill:#412d25; stroke:none;" d="M548 63L549 64L548 63z"/>
<path style="fill:#ffffff; stroke:none;" d="M554 65L555 66L554 65z"/>
<path style="fill:#412d25; stroke:none;" d="M422 70L426 66L422 70z"/>
<path style="fill:#795749; stroke:none;" d="M535 66L535 67L538 68L535 66z"/>
<path style="fill:#030303; stroke:none;" d="M460 67L460 68L466 68L460 67M481 67L482 68L481 67M482 68L489 74L482 68z"/>
<path style="fill:#bf856f; stroke:none;" d="M517 68L518 69L517 68z"/>
<path style="fill:#795749; stroke:none;" d="M524 68L526 70L524 68M530 68L531 69L530 68z"/>
<path style="fill:#030303; stroke:none;" d="M489 70L490 71L489 70z"/>
<path style="fill:#795749; stroke:none;" d="M520 70L524 74L520 70z"/>
<path style="fill:#030303; stroke:none;" d="M490 71L491 72L490 71z"/>
<path style="fill:#795749; stroke:none;" d="M550.667 71.3333L551.333 71.6667L550.667 71.3333z"/>
<path style="fill:#030303; stroke:none;" d="M489 74L489 75L497 81L500 79L495 74L496 78L494 73L493 72L489 74z"/>
<path style="fill:#795749; stroke:none;" d="M475 73L475 75L477 73L475 73z"/>
<path style="fill:#412d25; stroke:none;" d="M490 74L490 75L493 75L490 74z"/>
<path style="fill:#795749; stroke:none;" d="M477 74L479 77L477 74M481 75L485 79L483 76L486 77L481 75z"/>
<path style="fill:#030303; stroke:none;" d="M485 74L488 76L485 74z"/>
<path style="fill:#795749; stroke:none;" d="M473.667 75.3333L474.333 75.6667L473.667 75.3333M479 75L480 76L479 75z"/>
<path style="fill:#030303; stroke:none;" d="M476 76L478 78L476 76z"/>
<path style="fill:#412d25; stroke:none;" d="M477 76L478 77L477 76z"/>
<path style="fill:#795749; stroke:none;" d="M480 76L481 77L480 76z"/>
<path style="fill:#030303; stroke:none;" d="M488 76L492 80L488 76z"/>
<path style="fill:#795749; stroke:none;" d="M458 77L460 80L458 80L458 81L459 83L471 88L470 85L476 85L476 84L458 77z"/>
<path style="fill:#030303; stroke:none;" d="M468 77L467 79L468 77z"/>
<path style="fill:#412d25; stroke:none;" d="M416 78L418 80L418 78L416 78z"/>
<path style="fill:#030303; stroke:none;" d="M478 78L481 82L478 78z"/>
<path style="fill:#412d25; stroke:none;" d="M496 78L497 79L496 78M498 78L499 79L498 78z"/>
<path style="fill:#795749; stroke:none;" d="M529 79L527 83L526 83L527 79L526 79L525 83L511 82L510 82L498 87C490.951 85.5357 485.975 90.5293 479.91 93.2145C469.964 97.6187 456.212 94.6267 455 109L457 109C456.818 114.881 455.968 125.421 457.925 130.961C460.347 137.817 465.474 138.897 463 147L484 153L486 146L487 146L483.522 167.015L483.938 179.576L481.765 196L493 208L497 203L502 203L502 202C496.701 201.218 491.449 202.382 487.523 197.621C483.715 193.004 485.387 172.661 486.878 167C488.696 160.099 495.58 146.626 485 143L484 150L463 131L461 125L466 119L466 113L469 114L466 111C465.83 99.8524 474.112 101.626 482 97.9012C486.579 95.7389 490.826 92.1992 496 92L500 88L516 87L516 89L528 83L535 85L539 83L539 87L548 83L546 87L552 87L554 96L555 96L554 94L555 94L558 98L567 98L568 109L569 109L568 103L569 103L574 112L575 112L571 97L568 98L566 97L565 92L562 95L561 95C560.541 92.3907 560.345 91.3717 558 93L557 90L554 91L554 90L558 88L557 84L553 83L553 82L555 79L549 81L548 78L547 78L545 82L544 82L545 80L543 82L542 82L541 79L539 82L538 82L539 79L529 79z"/>
<path style="fill:#412d25; stroke:none;" d="M412 79L407 91L410 92C408.266 95.3333 406.843 99.2416 410 102L410 117L411 117L413 111L414 111L416 118L417 118L418 115L419 115L417 124L420 121L421 121L419 131L422 129L418 134L418 135L421 134L417 142C411.632 149.546 414.192 160.429 415 169L417.833 178L425 209L423 208L424 215L423 215L423 211L422 211L433 248L434 248L433 242L434 242C436.47 249.328 444.075 262.821 452 265L449 254L447 254C447.69 246.443 447.256 235.848 444 229L446 230L446 229L442 224L441 239L443 249L442 249C439.908 240.601 434.399 222.247 441 215L436 208L435 214C427.857 208.24 428.833 186.821 429 178L428 178L426 179L426 181L424 182L423 182L420 181C418.314 172.05 416.188 154.672 422 147L423 143L425 139C425.866 141.967 426.992 142.287 430 142L428 144L428 149L430 145L431 145L431 148L432 148L433 143L433 135L436 140L437 140L435 131C438.637 127.53 435.032 121.774 432 119L432 136L431 136L431 130L429 130L426 136L422 135L426 125L424 126L423 124L426 118L422 121L424 117L423 115L420 116L420 110L419 110L418 113L417 113L418 109L415 111L415 95L411 96L411 95L412 93L414 94L414 93L411 91L412 87L417 89L415 86C420.251 85.24 415.675 79.4421 412 79z"/>
<path style="fill:#030303; stroke:none;" d="M468.667 79.3333L469.333 79.6667L468.667 79.3333M492 80L494 82L494 80L492 80M481 82L482 83L481 82z"/>
<path style="fill:#bf856f; stroke:none;" d="M536 82L537 83L536 82z"/>
<path style="fill:#795749; stroke:none;" d="M556 82L557 83L556 82z"/>
<path style="fill:#030303; stroke:none;" d="M452 84L452 85L468 90L472 89C466.522 85.5528 458.434 83.1351 452 84M482 83L483 84L482 83z"/>
<path style="fill:#bf856f; stroke:none;" d="M528 83L516 89L516 87L500 88L496 92C490.339 91.8806 485.979 95.5534 481 97.9012C473.122 101.616 465.292 99.595 466 111L469 114L466 113L466 119L463 119L461 125L463 131L484 150L485 143C494.402 148.353 489.113 158.313 486.843 166C485.21 171.53 483.66 191.616 486.269 196.79C489.83 203.853 502.438 202.55 509 205C506.086 209.546 503.468 211.7 498 212L504 216L503 222L505 222L506 219C508.958 223.441 513.905 224.934 519 226L518 223L526 229L522 227L522 228L525 231L529 231L508 192L530 221L527 220L532 234L530 232L529 232L530 241L535 240L537 238L536 234L538 236L539 236C540.614 233.189 542.136 229.52 538 229L547 227L550 220C551.306 210.504 557.663 198.525 553 189L555 190L555 189C557.182 170.832 571.911 150.229 556 133L557 125L555 122L559 123L556 119L558 119L556 115L561 114L561 113L558 107L559 107L567 126L566 126L561 117L560 117L562 126L566 127L567 130L568 130L567 126L568 126L568 128L569 128L571 112L569 103L568 103L569 109L566 109L566 114L565 114L561 104L565 99L565 103L566 103L567 98L558 98L554 94L555 96L554 96L552 87L546 87L548 83L539 87L539 83L535 85L528 83M563 94L562 98L563 98L563 94z"/>
<path style="fill:#795749; stroke:none;" d="M567 94L570 97L567 94M407 97C405.759 102.457 407.737 107.515 407.776 113C407.878 127.179 407.076 139.138 413 152L417 142L421 134L418 135L418 134L422 129L419 131L421 121L420 121L417 124L419 115L418 115L417 118L416 118L414 111L413 111L411 117L410 117L410 102L407 97z"/>
<path style="fill:#ffffff; stroke:none;" d="M561 99L562 100L561 99M564 99L561 104L565 114L566 114C567.052 108.478 566.92 103.928 564 99M561 101L562 102L561 101z"/>
<path style="fill:#795749; stroke:none;" d="M557 106L558 107L557 106M558 107L561 113L561 114L556 115L558 119L556 119L559 123L555 122L557 125L556 133C561.43 140.905 565.229 155.414 562.635 164.961C560.528 172.719 554.047 181.875 555 190L553 189L553 190C557.126 200.061 549.418 210.513 550 220L547 227C543.554 226.149 540.334 226.09 538 229C542.154 229.543 540.28 233.18 539 236L538 236L536 234L537 238L535 240L530 241L529 232L530 232L532 234L527 220L530 221C524.033 210.394 519.259 198.354 508 192L529 231L525 231L522 228L522 227L526 229L518 223L519 226L506 219L505 222L503 222L502 221L504 216L498 212L506 209C502.876 209.363 499.065 207.701 496.149 208.796C489.972 211.116 495.586 222.053 497 226L487 225L488 218C485.886 218.419 483.576 219.357 486 221L483 230L500 231L500 230C494.188 230.048 489.235 231.783 485 227C489.199 228.53 495.491 230.659 499 227L501 227L501 229L506 229L501 231L501 232C505.771 232.642 511.882 235.79 515 231L526 233L527 244L525 244C523.205 240.656 521.868 238.937 518 239L522 241L523 248L501 248L501 250L505 252L505 254C495.321 255.824 488.861 256.895 481 263L481 264L483 266L480 265L480 268L487 272L485 269L488 271L489 271L498 272C498.605 274.768 499.289 274.577 502 274L503 277L507 275L508 275L510 280L511 280C514.901 276.816 519.215 275.346 520 270L521 270L522 272L523 272L528 267L527 264L529 262L530 262L530 265L531 265L531 258L534 258L534 259L535 264L529 268L529 272L547 257C551.905 249.562 555.812 242.052 556 233L555 233L541 254L543 250L542 248C549.366 243.482 555.032 232.21 557 224L558 224L559 227L563 221L565.603 204.588L574 198C560.783 202.353 565.95 175.056 566 166L567 166L571 178L572 178C575.626 171.558 577.638 163.652 569 161L575 151L576 151C576.28 164.552 581.307 175.985 569 186L569 187L578 180L581 182C581.154 168.052 586.124 160.552 576 149L575 149L571 155L570 152L569 152L570 157C566.312 157.615 568.71 161.739 571 163L570 167L565 165L560 134L562 135L559 132L563 130L568 140L568 141L568 142L566 142L569 147L569 139L575 138L574 135L570 119L569 119L569 128L568 128L568 126L567 126L568 130L567 130L566 127L562 126L560 117L561 117L566 126L567 126C566.064 118.15 563.798 112.493 558 107z"/>
<path style="fill:#6f7da5; stroke:none;" d="M570 108L571 109L570 108z"/>
<path style="fill:#412d25; stroke:none;" d="M420 109L421 110L420 109z"/>
<path style="fill:#ffffff; stroke:none;" d="M567 109L568 110L567 109z"/>
<path style="fill:#6f7da5; stroke:none;" d="M569 111C569.395 121.312 572.758 127.904 577 137L578 137L573 109L569 111z"/>
<path style="fill:#795749; stroke:none;" d="M416 113L417 114L416 113M555 118L556 119L555 118M566.333 119.667L566.667 120.333L566.333 119.667M564.333 125.667L564.667 126.333L564.333 125.667M423 127L422 129L423 127z"/>
<path style="fill:#412d25; stroke:none;" d="M559 132L562 135L560 134L560 135L565 165L570 167L571 163C565.082 157.137 571.39 144.006 578 141L574 135L575 138L569 139L569 147L568 142L568 141L568 140L563 130L559 132z"/>
<path style="fill:#795749; stroke:none;" d="M421 133L422 134L421 133M433 135L433 143L432 148L431 148L431 145L430 145L428 149L430 142L425 139L423 143L422 147L419 165L420 165L423 148L424 150L423 157L425 157C424.877 153.408 424.318 151.354 428 150L427 162L431 153C437.431 151.625 438.07 138.537 433 135z"/>
<path style="fill:#412d25; stroke:none;" d="M571.333 136.667L571.667 137.333L571.333 136.667z"/>
<path style="fill:#795749; stroke:none;" d="M417 142L421 138L417 142z"/>
<path style="fill:#030303; stroke:none;" d="M407 139L399.13 162.09L406 190L407 190L403 157L404 157C404 167.066 402.629 180.805 411 188L411 184L412 184L412 189L415 189C413.081 192.153 410.256 201.341 412.782 204.566C414.63 206.923 417.86 206.361 420 208L421 208C420.588 198.559 417.83 189.285 416.325 180C413.89 164.983 413.924 152.914 407 139z"/>
<path style="fill:#795749; stroke:none;" d="M495 140C494.792 144.837 493.098 150.14 494.573 154.907C497.996 165.975 514.987 182.959 527 179L527 178C522.85 177.905 521.009 176.603 519 173L525 173L525 172C513.439 171.76 494.691 159.807 496 147L497 147C500.009 152.559 505.742 150.449 511 149.4C519.615 147.68 531.049 143.989 539 149C544.825 147.295 547.046 153.243 548 158C540.067 153.798 535.617 150.157 526 153L540 162L518 166C520.439 169.791 523.634 170.616 528 171L528 172L526 172L526 173L534 169L529 170L529 169L530 167L551 160L549 158L549 147C542.975 145.194 535.342 142.825 529 143.414C514.371 144.775 506.529 151.88 495 140M428 141L429 142L428 141z"/>
<path style="fill:#bf856f; stroke:none;" d="M570 155L571 155L579 148C579.91 144.201 577.51 139.132 573.353 143.336C570.597 146.123 570.312 151.31 570 155z"/>
<path style="fill:#412d25; stroke:none;" d="M497 147L496 147C494.485 155.578 500.337 160.924 508 164L511 159L506 161L509 155L505 152L534 150L528 151L528 152L548 158C547.486 153.19 544.973 145.685 539 149C527.894 139.432 505.391 158.42 497 147M538.667 146.333L539.333 146.667L538.667 146.333M578 146L579 147L578 146M576 148L581 154L580 147L576 148z"/>
<path style="fill:#bf856f; stroke:none;" d="M421 148C421 158.326 415.421 171.026 425 178L426 175C422.61 171.48 423.577 166.639 424 162C419.887 162.823 423.08 158.52 425 159L424 150L423 148L421 148z"/>
<path style="fill:#030303; stroke:none;" d="M505 152L509 155L506 161L511 159L509 162L518 157L518 160L519 160L523 162L524 162L529 161L530 157L539 160L526 154L534 150C525.392 145.368 513.96 151.777 505 152z"/>
<path style="fill:#6f7da5; stroke:none;" d="M425 150L425 159C422.927 159.274 421.217 161.53 424 162C422.871 166.286 421.923 172.337 426 175L428 150L425 150z"/>
<path style="fill:#bf856f; stroke:none;" d="M575 151L569 161C577.419 164.827 574.886 170.929 572 178L571 178L567 166L566 166C565.861 172.93 566.527 180.137 565.935 187C565.649 190.322 564.085 194.731 566.029 197.808C568.233 201.298 572.81 199.244 574.721 196.529C577.686 192.318 577.786 184.979 578 180L569 187L569 186C580.369 179.701 579.734 161.545 575 151z"/>
<path style="fill:#010103; stroke:none;" d="M450 159L455 161L465 158L466 155C460.653 154.149 452.987 153.887 450 159z"/>
<path style="fill:#bf856f; stroke:none;" d="M569.333 155.667L569.667 156.333L569.333 155.667z"/>
<path style="fill:#412d25; stroke:none;" d="M403 157L408 195L409 195L409 193L410 193L409 198L415 189L411 191L405.314 177L403 157z"/>
<path style="fill:#352521; stroke:none;" d="M517 157L508 164C515.4 163.335 525.813 167.172 530 160C533.324 162.137 538.886 164.198 540 159L530 157L529 161L524 162L523 162L518 160L517 157z"/>
<path style="fill:#030303; stroke:none;" d="M455 161L455 162L461 161L459 164L463 159L455 161z"/>
<path style="fill:#352521; stroke:none;" d="M463 159L460 164L463 160L464 160L463 165L469 165L463 159z"/>
<path style="fill:#735553; stroke:none;" d="M463 160C459.899 163.912 456.905 164.881 452 165C455.112 169.781 462.191 166.906 467 166L467 165L463 165L463 160z"/>
<path style="fill:#ab8383; stroke:none;" d="M530 160C526.284 164.33 523.469 164.642 518 164L518 165C524.165 167.971 529.52 167.511 534 162L530 160z"/>
<path style="fill:#352521; stroke:none;" d="M453 161L459 165L461 161L453 161z"/>
<path style="fill:#735553; stroke:none;" d="M508 164L508 165L521 167L521 166L518 165L518 162L508 164z"/>
<path style="fill:#030303; stroke:none;" d="M415 163L415 166L416 166L415 163z"/>
<path style="fill:#bf856f; stroke:none;" d="M503 163L504 164L503 163z"/>
<path style="fill:#412d25; stroke:none;" d="M464 166L464 167L467 167L466 170L469 169L469 173L463 178L466 177C467.949 187.504 464.348 202.129 452 204C451.458 195.353 445.177 189.945 441 183C447.505 181.315 457.82 183.102 462 177L457 177L463 172L463 171L458 171L459 168L462 168L462 167L452 171L457 173L457 174C452.613 174.699 450.176 176.086 448 180L434 174C430.968 184.897 439.213 186.733 440 196C446.216 201.293 454.123 215.99 452 224L462.001 208L475 172C470.553 166.607 472.542 163.768 464 166z"/>
<path style="fill:#010103; stroke:none;" d="M398 165C398.022 171.581 399.858 185.452 406 189L398 165z"/>
<path style="fill:#412d25; stroke:none;" d="M509 165C512.423 171.939 520.941 172.788 528 172L509 165z"/>
<path style="fill:#795749; stroke:none;" d="M416 166L417 167L416 166M418 166L418 173L419 173L418 166z"/>
<path style="fill:#412d25; stroke:none;" d="M519 166L520 167L519 166z"/>
<path style="fill:#795749; stroke:none;" d="M415 167L416 168L415 167M458 171L463 171L463 172L457 177L462 177L441 183L452 204C464.671 203.053 468.493 187.47 466 177L464 178L463 178L469 173L469 169L466 170L467 167C463.149 167.081 459.799 167.383 458 171M416 168L423 215L424 215L423 208L425 209L425 208L416 168z"/>
<path style="fill:#bf856f; stroke:none;" d="M528 168L529 169L528 168z"/>
<path style="fill:#795749; stroke:none;" d="M419 173L420 181L423 182L424 182L426 181L427 177L419 173z"/>
<path style="fill:#bf856f; stroke:none;" d="M565 181L566 182L565 181z"/>
<path style="fill:#030303; stroke:none;" d="M579 181L579 193L580 193L579 181z"/>
<path style="fill:#795749; stroke:none;" d="M424 182L423 183L426 185L424 182M411 184L411 191L412 191L411 184z"/>
<path style="fill:#010103; stroke:none;" d="M577 185L578 193L572.662 199.843L564.889 204.472L563 221C556.855 221.845 560.608 231.055 560.935 235C562.145 249.59 561.302 264.613 558.926 279C554.572 305.368 556.051 331.293 556 358C555.959 379.286 554.36 400.674 555.018 422C555.475 436.782 556.622 452.253 557.806 467C558.29 473.043 560.037 478.015 558 484L557 484L558 479C555.214 481.435 556 485.484 556 489C555.999 497.513 552.212 511.608 557 519C558.219 515.344 559.073 507.615 556 507L558 484L559 484L558 488C562.258 490.76 561.378 498.248 561.83 503C563.223 517.63 563 532.3 563 547L672 547C672.74 537.282 685.067 535.817 692.714 533.584C716.753 526.567 739.51 526.933 764 525L765.819 509.83L765.873 500.004L779 484C781.424 483.578 784.078 482.47 782 480L782 479L785 479L785 478C767.528 479.786 774.135 459.156 771 448L770 450L769 450L768 445L767 447L766 447L766 443C759.609 439.781 754.532 428.595 752.046 422C750.749 418.559 750.925 412.493 747 412L744 398L741 396L743 397L743 396L739 391C738.263 387.714 736.238 387.075 733 387L727 381C723.965 395.935 701.488 390.73 693.864 382.164C684.391 371.52 681.864 354.089 676.275 341.464C666.571 319.539 653.537 297.658 637.958 279.376C632.714 273.223 624.433 270.472 617.282 267.345C603.319 261.239 584.93 253.146 575.14 241.062C566.469 230.358 573.882 212.874 576.829 201.829C578.045 197.275 580.99 188.487 577 185z"/>
<path style="fill:#412d25; stroke:none;" d="M414 187L415 188L414 187M577 187L577 193L578 193L577 187z"/>
<path style="fill:#795749; stroke:none;" d="M545 191C543.85 198.69 550.481 195.204 553 191L545 191M412 191L411 201C413.213 197.646 414.48 194.423 412 191M409 193L409 197L410 197L409 193M553 195L554 196L553 195M449 199L450 200L449 199M503 203L503 204L506 204L503 203z"/>
<path style="fill:#030303; stroke:none;" d="M496 206L496 207L505 206C501.837 203.643 499.437 204.356 496 206z"/>
<path style="fill:#795749; stroke:none;" d="M506 204L509 207L506 204z"/>
<path style="fill:#010103; stroke:none;" d="M412 205C414.882 216.024 426.985 226.481 423.57 238.961C419.488 253.881 398.815 264.342 387.464 272.633C383.408 275.596 381.133 280.198 376.866 283.056C369.174 288.207 358.651 293.484 356 303C345.822 304.714 337.033 325.327 332.871 333.561C326.393 346.377 318.187 361.378 306.536 369.982C303.737 372.05 300.262 371.557 297.414 373.314C289.802 378.011 284.967 383.708 275 384L275 379L258 392L254 402L254 403L256 406L253 408L255 407L255 408L252 409L246 431C241.995 431.933 237.564 438.003 239 442L235 442C233.61 444.316 231.872 444.374 235 445L235 446C218.009 450.887 237.537 480.304 215 478C222.408 490.427 235.488 496.189 236 511L232 511L232 512C235.227 515.943 233.44 522.359 237.228 525.532C243.935 531.148 252.934 530.537 261 531.089C272.947 531.908 285.09 533.411 296.961 535.114C303.967 536.119 309.89 540.413 317 541L317 547L459 547L459 539L458 539L458 544L457 544L459 536C455.231 536 457.137 521.3 457 518C456.155 497.719 455 477.167 455 457C455 442.571 452.392 428.313 451 414C448.356 386.802 452.766 357.505 444.667 331C441.434 320.422 434.128 312.605 433 301C431.683 287.451 428.051 270.725 429.667 257.333C430.247 252.527 432.157 247.044 431.667 242C430.582 230.841 423.886 216.549 420 206L412 205z"/>
<path style="fill:#795749; stroke:none;" d="M507 207L508 208L507 207M506 208L507 209L506 208M503 219L504 220L503 219M547 219L548 220L547 219M519 222L520 223L519 222z"/>
<path style="fill:#412d25; stroke:none;" d="M557 224C553.995 232.67 548.868 241.828 542 248L543 250L541 254C547.014 249.029 560.151 232.095 557 224z"/>
<path style="fill:#bf856f; stroke:none;" d="M485 227C487.65 231.535 502.518 232.964 506 229L501 227L499 227L499 229L485 227z"/>
<path style="fill:#ffffff; stroke:none;" d="M558 227L545 260L552 255L558 227z"/>
<path style="fill:#795749; stroke:none;" d="M526 229L527 230L526 229z"/>
<path style="fill:#6f7da5; stroke:none;" d="M559 229L552 255L537 269L538 273L519.576 289.097L513 296L507 300L516 296L516 295L514 295L514 294L531 291C531.97 296.477 537.673 299.656 543 299C543 306.77 546.125 314.335 545.167 322C544.844 324.578 544.604 331.523 541 329L540 333L542 332L537 332C530.646 343.165 526.614 357.294 525 370C521.212 364.514 523.273 356.168 525 350L526 350L526 353L527 353L528 344L527 344L526 346L522 346L522 335L520 328C502.57 340.956 517.252 356.895 520.37 372.015C522.471 382.202 520.829 393.631 521.005 403.996C521.14 411.979 523 419.787 523 428L524 428L530 411L531 411C529.098 417.572 525.875 424.137 524.167 430.167C523.629 432.065 524.844 434.658 526 432L527 432L526 447L525 447L525 443L524 443L524 463C529.917 463.773 525.879 476.655 526 481C526.549 500.756 529 520.456 529 540L530 540C530.209 536.465 529.939 533.249 534 533C533.017 530.05 532.513 529.378 535 530L533 520L536 520C535.769 514.057 539.59 510.53 541.061 505.004C544.055 493.757 547.284 479.43 547.545 468C548.086 444.286 550.375 420.752 550.974 396.961C551.671 369.35 550.806 340.382 554.505 313C557.288 292.403 562.916 269.837 561.159 248.985C560.625 242.645 562.727 234.455 559 229z"/>
<path style="fill:#bf856f; stroke:none;" d="M506 231L506 232L510 233L510 232L506 231z"/>
<path style="fill:#795749; stroke:none;" d="M519 231L520 232L519 231M538 231L537 234L538 231M524 233L525 234L524 233z"/>
<path style="fill:#352521; stroke:none;" d="M471 241L471 242C478.715 244.61 496.262 252.142 502 245L478 243C483.755 236.287 501.664 233.227 509 239C509.116 234.39 502.384 234.937 499 235.015C488.855 235.246 480.082 236.941 471 241z"/>
<path style="fill:#735553; stroke:none;" d="M478 243L502 245L500 248L512 243L509 242L509 244C502.007 242.817 487.791 247.835 485 239L486 239L487 241L492 238L492 240L493 240L493 238L500 237C494.111 234.702 481.201 237.517 478 243z"/>
<path style="fill:#ab8383; stroke:none;" d="M493 240L492 240L492 238L491 238L486 239L485 239C486.467 247.447 502.473 243.658 509 244L509 242C512.937 243.295 514.5 242.204 517 239L512 241L512 240L515 237L510 239C506.12 234.15 493.757 236.214 493 240z"/>
<path style="fill:#bf856f; stroke:none;" d="M508 246C512.015 250.084 517.742 248.968 523 248L522 241L517 239.667L508 246z"/>
<path style="fill:#6f7da5; stroke:none;" d="M431 244L434 258C435.172 252.859 434.551 248.029 431 244z"/>
<path style="fill:#412d25; stroke:none;" d="M527 245L525 248C526.606 250.543 528.446 252.737 526 255L526 256L534 256L532 250L535 252L537 251L537 250L537 249L534 250L527 245M497 248L498 249L497 248M499 248L499 252L498 252L497 250L492 256L505 254L505 252L501 248L499 248z"/>
<path style="fill:#795749; stroke:none;" d="M531 253L532 254L531 253z"/>
<path style="fill:#bf856f; stroke:none;" d="M514 255L491 261L491 262L499 267L498 270L503 268L505 271L506 266L507 266L512 271L511 268C513.006 268.059 513.958 267.311 512 266L512 265L514 263L517 264L521 262L520 258L521 257L523 258C520.477 254.704 517.53 255.579 514 257L514 255z"/>
<path style="fill:#030303; stroke:none;" d="M546 255L547 256L546 255z"/>
<path style="fill:#412d25; stroke:none;" d="M469 258L466 262L469 263L469 264L465 265L465 266L472 268L472 269L469 274L470 274L474 269L473 275L476 276L478 273L478 272L477 269L478 269L483 274L482 278L485 276C486.335 277.971 487.071 276.937 488 275L492 274L493 277L495 275L496 281L499 280L499 281L497 283L500 283L497 287L500 287L501 294L498 294L498 295L501 296L499 298L499 303L508 301L507 297C515.968 293.624 523.414 287.241 529.571 280C532.542 276.506 534.594 269.38 539 268L540 267L543 263C542.47 260.351 542.572 259.393 545 260L545 257L529 272L529 268L535 264L534 258L531 258L531 259L531 265L530 265L530 262L529 262L527 264L528 267L521 270L520 270L511 280L510 280L508 275L507 275L506 277L503 277L502 274L498 272L489 271L488 271L485 269L487 272L480 268L480 265L483 266L481 264L481 263L491 257L469 258z"/>
<path style="fill:#030303; stroke:none;" d="M545 256L544 259C546.158 258.022 546.501 257.812 545 256z"/>
<path style="fill:#795749; stroke:none;" d="M513 257L512 259L513 257z"/>
<path style="fill:#412d25; stroke:none;" d="M534 257L535 258L534 257z"/>
<path style="fill:#795749; stroke:none;" d="M519 259L520 260L519 259z"/>
<path style="fill:#412d25; stroke:none;" d="M529 259L531 261L529 259z"/>
<path style="fill:#030303; stroke:none;" d="M543 259L542 262C544.158 261.022 544.501 260.812 543 259z"/>
<path style="fill:#ffffff; stroke:none;" d="M550 259L543 265L547 269L543 275L540 272L539 272L539 276C535.695 278.274 535.627 281.187 536 285L537 285L540 281L538 288L542 288L540 291L545 294C546.438 282.945 550.097 277.551 547 266L548 264L550 259M544 261L538 270L544 261z"/>
<path style="fill:#030303; stroke:none;" d="M541 262L539 266L543 263L541 262z"/>
<path style="fill:#412d25; stroke:none;" d="M453 264C452.886 270.057 462.677 276.891 468 279L464 276C463.196 269.984 458.949 266.598 453 267L453 264M464 266L465 267L464 266z"/>
<path style="fill:#030303; stroke:none;" d="M538 266L539 267L538 266z"/>
<path style="fill:#252131; stroke:none;" d="M434 267L434 277C437.249 277 436 281.285 436 284L437 284L437 270C434.564 270 435.385 269.214 436 267L434 267z"/>
<path style="fill:#412d25; stroke:none;" d="M484.333 267.667L484.667 268.333L484.333 267.667z"/>
<path style="fill:#030303; stroke:none;" d="M537 267L534 272L537 267M459 268L460 269L459 268z"/>
<path style="fill:#412d25; stroke:none;" d="M468.333 268.667L468.667 269.333L468.333 268.667M489 268L490 269L489 268z"/>
<path style="fill:#795749; stroke:none;" d="M504 268L505 269L504 268z"/>
<path style="fill:#ffffff; stroke:none;" d="M537 270L538 273L537 270z"/>
<path style="fill:#412d25; stroke:none;" d="M472 271L471 273L472 271z"/>
<path style="fill:#010103; stroke:none;" d="M452 272L452 273L464 282C464.138 278.558 463.403 277.593 460 277L460 274L457 275L458 272L457 272L456 274L452 272z"/>
<path style="fill:#030303; stroke:none;" d="M458 272L457 275C459.158 274.022 459.501 273.812 458 272M533 272L532 274L533 272z"/>
<path style="fill:#ffffff; stroke:none;" d="M535 272L536 273L535 272z"/>
<path style="fill:#412d25; stroke:none;" d="M478 273L478 275L480 275L480 273L478 273z"/>
<path style="fill:#030303; stroke:none;" d="M460 274L461 275L460 274M463 274L464 275L463 274M459 275L460 276L459 275M460 277L463 275L460 277z"/>
<path style="fill:#412d25; stroke:none;" d="M509 275L509 278L510 278L509 275M437 276L437 287L439 287C439.282 283.011 440.401 278.763 437 276z"/>
<path style="fill:#030303; stroke:none;" d="M461 278L464 280L461 278z"/>
<path style="fill:#412d25; stroke:none;" d="M484 278L485 279L484 278z"/>
<path style="fill:#795749; stroke:none;" d="M520 278L510 285C513.899 287.165 517.25 284.691 521 283L520 281L525 279L520 278z"/>
<path style="fill:#6f7da5; stroke:none;" d="M538 278L537 281L540 279L538 278z"/>
<path style="fill:#010103; stroke:none;" d="M464 282L465 283L464 282M465 283L466 284L465 283M466 284L467 285L466 284z"/>
<path style="fill:#412d25; stroke:none;" d="M496 284L497 285L496 284z"/>
<path style="fill:#010103; stroke:none;" d="M467 285L468 286L467 285z"/>
<path style="fill:#ffffff; stroke:none;" d="M528 288L535 288L534 291L539 291C535.596 287.139 532.383 283.581 528 288z"/>
<path style="fill:#010103; stroke:none;" d="M468 286L469 287L468 286z"/>
<path style="fill:#412d25; stroke:none;" d="M452 287L447 289L439 297L438 309C441.051 306.372 441.325 304.782 440 301L450 290L461 290L461 289L452 287z"/>
<path style="fill:#010103; stroke:none;" d="M469 287L470 288L469 287z"/>
<path style="fill:#412d25; stroke:none;" d="M496 287L497 288L496 287z"/>
<path style="fill:#252131; stroke:none;" d="M460.667 288.333L461.333 288.667L460.667 288.333z"/>
<path style="fill:#010103; stroke:none;" d="M470 288L471 289L470 288z"/>
<path style="fill:#252131; stroke:none;" d="M451.667 289.333L452.333 289.667L451.667 289.333M450 290L450 293L440 301C440.552 304.413 440.576 306.836 437 308L439 311L438 322L439 322L439 313L440 313C440.634 317.769 442.892 322.365 447 325L446 322L447 322L463.632 353L463.253 371L465 387L466 387C466.215 376.579 475.116 363.454 473.142 354C471.008 343.782 464.932 328.808 459.185 320C456.401 315.733 448.36 311.234 447.631 306.09C446.902 300.948 458.93 295.557 463 295L465 290L450 290z"/>
<path style="fill:#ffffff; stroke:none;" d="M517 293L518 294L517 293M510 295L510 296L513 296L510 295M509 296L510 297L509 296z"/>
<path style="fill:#010103; stroke:none;" d="M456.667 297.333L457.333 297.667L456.667 297.333z"/>
<path style="fill:#ffffff; stroke:none;" d="M507.667 297.333L508.333 297.667L507.667 297.333z"/>
<path style="fill:#010103; stroke:none;" d="M453 310L455 315L455 312L459 313L458 310C453.599 310.157 449.477 307.531 449 303L450 303L453 307L456 298C450.139 300.255 441.456 309.502 453 310z"/>
<path style="fill:#412d25; stroke:none;" d="M498 298L499 299L498 298z"/>
<path style="fill:#ffffff; stroke:none;" d="M506 298L507 299L506 298z"/>
<path style="fill:#252131; stroke:none;" d="M495 304C499.83 306.024 503.905 306.475 506 301L495 304z"/>
<path style="fill:#030303; stroke:none;" d="M450 302L451 303L450 302M449 303C449.803 308.095 453.041 308.524 457 311L455 303L453 307L449 303M451 304L452 305L451 304z"/>
<path style="fill:#252131; stroke:none;" d="M457 306L458 307L457 306M527 312C525.71 318.37 514.321 329.074 522 335L522 346L527 344L528 344L527 353L526 353L526 350L525 350C522.798 355.555 520.402 365.476 525 370L537 332L542 332L540 333L540 332L541 329L543 331C545.139 325.94 548.773 307.718 539.907 306.506C535.355 305.884 531.2 310.852 527 312M458 307L462 321L469 320L469 319L458 307z"/>
<path style="fill:#030303; stroke:none;" d="M450 309L451 310L450 309M451 310L451 312L453 310L451 310M453.667 311.333L454.333 311.667L453.667 311.333z"/>
<path style="fill:#252131; stroke:none;" d="M554 311L554 316L555 316L554 311z"/>
<path style="fill:#030303; stroke:none;" d="M455 312L455 316L460 318L455 312M534 312L533 331C536.687 327.593 536.959 323.847 537 319L541 319L539 312L534 312z"/>
<path style="fill:#6f7da5; stroke:none;" d="M439 313C439 326.521 446.423 338.984 447.829 353C452.786 402.376 457 453.306 457 503L458 503L460 500L460 505L461 505L463 494L465 495L464 436L463.518 371L464.339 353.996L447 322L446 322L447 325L439 313z"/>
<path style="fill:#252131; stroke:none;" d="M536 314L537 315L536 314z"/>
<path style="fill:#010103; stroke:none;" d="M457 315L458 316L457 315M456 316L457 317L456 316z"/>
<path style="fill:#252131; stroke:none;" d="M555 316L551.971 364.015L547.255 469L540.74 505L536 520L533 520L535 530C532.706 529.969 533.284 530.832 534 533L531 532L531 547L555 547L555 384L556 337L555 316z"/>
<path style="fill:#010103; stroke:none;" d="M457 317L462 327L463 327L462 322L464 323L468 321L468 320L462 321L461 317L457 317z"/>
<path style="fill:#030303; stroke:none;" d="M464 323L462 322L462 323L465 328L466 323L467 323L468 327C465.833 329.163 467.361 330.706 469 333C464.854 337.165 471.624 347.188 473 352C484.714 345.859 472.468 327.473 469 320L464 323z"/>
<path style="fill:#010103; stroke:none;" d="M466 323L463 328L466 337L467 337L469 333L468 327L466 323M467 337L467 342L468 342L467 337M468 342L471 351L472 351C472.418 346.63 471.691 344.47 468 342M472 351L473 352L472 351M473 352L474 356L475 356L473 352M193 376L188 379L185 391C188.129 388.905 189.644 385.259 193.044 383.457C198.734 380.441 209.69 383.275 214.985 386.367C219.025 388.727 221.886 397.561 226.976 396.508C233.046 395.252 234.179 386.116 238.213 382.275C247.49 373.442 259.755 367.876 270 360L273 363L275 358L281 362C277.949 350.702 271.352 355.684 263.95 359.04C252.49 364.236 240.906 378.301 228.91 380.726C221.692 382.186 212.953 377.492 205.91 375.96C201.44 374.988 197.43 376.185 193 376M723 357L723 358L751 370L751 374L754 372L757 376L756 379C765.933 382.909 766.972 398.772 779 397C778.148 382.031 804.019 378.605 812 388C815.081 380.462 806.874 377.355 800.83 376.259C792.028 374.664 783.736 379.578 775.17 377.545C765.887 375.341 755.002 370.168 747.084 364.852C738.652 359.19 733.457 351.314 723 357z"/>
<path style="fill:#795749; stroke:none;" d="M275 358C273.415 360.375 271.952 363.284 270 360L246 377L247 379C242.003 382.15 245.221 386.181 244 391L249 390L248 387L250 387C250.446 382.357 253.483 377.421 258 376L264 367C268.972 367.8 283.87 363.937 275 358M748 378L753 387L753 388L751 390L761 393L761 392L754 388L758 388L758 387L758 386L756 387L756 386L758 384L758 383L755 377C747.943 371.925 741.25 367.221 734 362.283C731.491 360.574 727.579 357.121 724.333 359.071C721.995 360.476 722.56 363.303 724.438 364.772C727.422 367.105 731.681 366.775 734.946 368.567C739.722 371.188 742.873 375.78 748 378z"/>
<path style="fill:#412d25; stroke:none;" d="M278 360L279 361L278 360M721 360C721.007 368.409 724.585 376.95 731.044 382.674C734.415 385.662 739.516 387.41 742.062 391.21C748.996 401.557 749.869 416.702 755.323 428C762.011 441.854 773.989 447.275 774 464L794 457.757L815 447L807 441L807 439L813 436L814 436L817 444L818 444L816 434L821 434L825 427L821 428L820 429L821 431L806 430L795 431L795 422L791 422L791 423C797.198 428.552 791.31 432.998 785 434L785 429L784 429L784 432C769.109 419.221 799.636 416.334 807 414L807 413L804 412C804.947 410.442 805.929 408.97 806.411 407.191C811.211 389.468 788.479 403.897 784 396L783 396L782 398L779 393L778 393L780 400L772 399L773 403C766.047 397.722 760.231 390.612 751 390L753 388L753 387L748 378L735.871 368.567L721 360M279 361C274.969 365.705 270.12 367.194 264 367L258 376C252.891 376.884 250.155 382.078 250 387L248 387L249 390C239.796 390.943 233.253 397.765 227 404L228 399C221.742 400.836 221.834 397.328 222 392L221 392L220 397L216 396C211.483 403.964 190.028 389.626 193.925 405.995C194.429 408.11 195.149 410.005 196 412L193 413L193 414C203.186 417.229 224.931 416.243 218 432L215 430L215 434C207.267 432.598 204.926 428.734 209 422C204.681 423.481 203.98 426.816 205 431L182 432L181 432L179 431L179 428L176 428L194 441L185 447C191.963 451.554 199.973 455.861 208.004 458.216C214.889 460.235 221.31 459.826 226 466L227 466C227 461.216 226.18 455.522 228.009 451C232.621 439.598 244.159 431.974 248.93 420C252.566 410.873 252.602 398.428 258.843 390.379C264.45 383.149 288.587 373.654 279 361z"/>
<path style="fill:#795749; stroke:none;" d="M258 367L259 368L258 367M254 368L255 369L254 368z"/>
<path style="fill:#030303; stroke:none;" d="M750 370L750 374L751 374L750 370M753 372L751 374L751 375L757 377L753 372z"/>
<path style="fill:#bf856f; stroke:none;" d="M247 377L248 378L247 377M222 396C221.261 400.824 224.284 400.688 228 399L227 404L246 389C244.606 384.668 243.438 382.496 247 379C233.631 375.294 235.083 398.4 222 396z"/>
<path style="fill:#030303; stroke:none;" d="M274 378L275 379L274 378z"/>
<path style="fill:#bf856f; stroke:none;" d="M754 378L758 383L758 384L756 387L758 386L758 387L758 388L754 388L773 403L772 399L780 400L780 398L779 397C766.716 397.329 765.614 381.21 754 378z"/>
<path style="fill:#030303; stroke:none;" d="M273 379L274 380L273 379M727 379L731 383L727 379M272 380L273 381L272 380M274 380L275 381L274 380M271 381L272 382L271 381z"/>
<path style="fill:#bf856f; stroke:none;" d="M187 392L192 395L196 388L203 384L200 388L209 385L214 388L214 389C207.06 390.084 205.854 396.026 213 398L214 394L215 394L215 397L216 397L219 388C208.965 382.172 190.637 376.913 187 392z"/>
<path style="fill:#030303; stroke:none;" d="M269.667 382.333L270.333 382.667L269.667 382.333z"/>
<path style="fill:#bf856f; stroke:none;" d="M781 390L784 389C783.631 390.755 784.206 399.126 786 395L787 395C788.116 400.206 797.23 393.115 787 388L791 385L797 389L798 389L800 388L800 386L797 385L797 384L804 388L808 395C814.027 391.229 813.031 384.919 805.985 382.653C799.244 380.485 784.568 383.73 781 390z"/>
<path style="fill:#030303; stroke:none;" d="M268 383L269 384L268 383M271 383L270 385L272 385L271 383M731 383L732 384L731 383z"/>
<path style="fill:#795749; stroke:none;" d="M196 388L192 395L187 392C187.364 397.489 193.661 407.097 188 411C192.087 415.471 198.991 418.688 205 417L205 416L193 414L193 413L196 412C195.377 410.006 194.658 408.03 194.16 405.999C190.706 391.907 209.113 400.682 216 399L215 394L214 394L213 398C206.771 395.405 207.771 390.775 214 389L214 388L209 385L200 388L203 384L196 388z"/>
<path style="fill:#030303; stroke:none;" d="M265 386L268 384L265 386M729.667 384.333L730.333 384.667L729.667 384.333M732 384L734 387L732 384z"/>
<path style="fill:#795749; stroke:none;" d="M797 384L797 385L800 386L800 388L798 389L797 389L791 385L787 388C791.149 391.034 792.915 392.824 791 398C802.928 397.285 809.513 399.403 804 412L807 413L807 414C800.291 415.236 779.969 416.279 779 425C778.636 428.28 783.311 434.683 784 429L785 429L785 434C790.485 433.502 794.104 431.743 795 426L794 426C790.508 431.532 784.181 427.599 784 422L795 422L795 431L806 430L821 431L821 428C830.06 427.108 825.821 416.67 821 413L820 414L822 419L820 418L821 422L818 425L806 425L802 419L802 421L795 417L803 418L812 412L812 411C808.283 404.034 812.529 399.1 813 392L808 395L804 388L797 384z"/>
<path style="fill:#030303; stroke:none;" d="M262 388L265 386L262 388M735.667 386.333L736.333 386.667L735.667 386.333M265 387L266 388L265 387M737 387L738 388L737 387M258 392L262 388L258 392M738.667 388.333L739.333 388.667L738.667 388.333z"/>
<path style="fill:#795749; stroke:none;" d="M219 389C216.406 392.242 215.452 395.476 220 397L219 389z"/>
<path style="fill:#030303; stroke:none;" d="M739 390L742 391L743 397L741 396L742 399L743 399L742 389L739 390z"/>
<path style="fill:#795749; stroke:none;" d="M780 389C779.139 393.179 779.708 395.25 783 398L784 389L780 389z"/>
<path style="fill:#030303; stroke:none;" d="M186 390L186 395L187 395L186 390M257 392L257 395L259 394L259 393L257 392z"/>
<path style="fill:#010103; stroke:none;" d="M185 394C179.682 403.605 167.647 410.317 174 422L175 422C176.407 413.145 182.86 411.068 191 411C190.494 404.585 189.913 398.556 185 394z"/>
<path style="fill:#030303; stroke:none;" d="M256 395L256 398L257 398L256 395z"/>
<path style="fill:#795749; stroke:none;" d="M786 395L784 396C785.265 399.801 787.312 399.768 791 399L791 398L786 395z"/>
<path style="fill:#010103; stroke:none;" d="M813 396C812.091 399.655 809.34 405.441 813 408L812 411C818.808 411.683 824.884 414.771 826 422L827 422L827 404C819.964 403.936 816.84 401.745 813 396z"/>
<path style="fill:#795749; stroke:none;" d="M232 406L232 407L243 402L241 400L245 398L232 406M755 397L755 398L759 400L758 402L769 407L755 397z"/>
<path style="fill:#030303; stroke:none;" d="M812 397L813 398L812 397M255 398L255 401L256 401L255 398M257 398L258 399L257 398M744.333 398.667L744.667 399.333L744.333 398.667M811 398L811 411L813 409L813 408L811 398M743 400L744 401L743 400M745.333 400.667L745.667 401.333L745.333 400.667M254 401L255 402L254 401M253 402L253 407L254 407L256 406L253 402M746 402L748 412L746 402z"/>
<path style="fill:#bf856f; stroke:none;" d="M769 402L770 403L769 402z"/>
<path style="fill:#795749; stroke:none;" d="M238 406L240 409L247 405L238 406M753 405L760 409L762 406L753 405z"/>
<path style="fill:#030303; stroke:none;" d="M252 407L253 410L254 410L255 407L252 407M251 409L250 415L251 415L251 409z"/>
<path style="fill:#252131; stroke:none;" d="M451 409L452 434L453 434L451 409z"/>
<path style="fill:#bf856f; stroke:none;" d="M181 414C177.755 414.361 177.758 415.849 178 419L181 419C180.889 425.889 190.052 425.459 195 424L198 421L206 418C200.339 416.143 184.777 408.661 181 414z"/>
<path style="fill:#252131; stroke:none;" d="M530 411C523.942 423.951 522.966 433.165 525 447L526 447L527 432L526 432L525 434L530 411z"/>
<path style="fill:#bf856f; stroke:none;" d="M803 418L795 417L802 421L802 419L806 425L818 425L821 422L820 418L822 419L821 413C816.158 411.203 803.971 411.371 803 418z"/>
<path style="fill:#795749; stroke:none;" d="M180.333 412.667L180.667 413.333L180.333 412.667M178 413L179 414L178 413M177 414L178 415L177 414M179 414L180 415L179 414z"/>
<path style="fill:#bf856f; stroke:none;" d="M821 414L823 416L821 414z"/>
<path style="fill:#795749; stroke:none;" d="M176 415C175.28 418.885 173.985 427.37 179 428L180 429L179 431L182 432L205 431L206 422L216 422C215.828 427.613 207.358 432.686 207 425L206 425C204.852 431.177 209.456 433.428 215 434L215 430L218 432C227.022 417.133 207.105 416.895 198 421C195.552 418.842 194.934 421.742 195 424C189.534 425.286 182.586 425.444 181 419L178 419L176 415z"/>
<path style="fill:#030303; stroke:none;" d="M750 415L750 418L751 418L750 415M749 418L750 419L749 418M751 418L751 421L752 421L751 418M750 421L751 422L750 421M752 421L753 426L754 426L752 421z"/>
<path style="fill:#bf856f; stroke:none;" d="M216 422C214.356 422.311 212.634 422.531 211.019 422.979C200.016 426.034 216.418 435.023 216 422z"/>
<path style="fill:#030303; stroke:none;" d="M247.333 422.667L247.667 423.333L247.333 422.667z"/>
<path style="fill:#bf856f; stroke:none;" d="M784 422C783.797 428.325 788.411 429.747 794 429C793.079 423.227 789.111 422.967 784 422z"/>
<path style="fill:#795749; stroke:none;" d="M792 423L793 424L792 423z"/>
<path style="fill:#030303; stroke:none;" d="M246 424L246 427L247 427L246 424z"/>
<path style="fill:#795749; stroke:none;" d="M793 424L794 425L793 424z"/>
<path style="fill:#010103; stroke:none;" d="M826 424L821 434L816 434L819 446L820 446L820 441L827 441L826 424z"/>
<path style="fill:#030303; stroke:none;" d="M555 426L555 433L556 433L555 426M754.333 426.667L754.667 427.333L754.333 426.667M245 427L245 431L246 431L245 427M755.333 428.667L755.667 429.333L755.333 428.667M243.333 430.667L243.667 431.333L243.333 430.667M756.333 430.667L756.667 431.333L756.333 430.667z"/>
<path style="fill:#010103; stroke:none;" d="M183 446C183.383 443.507 184.807 441.449 185.247 438.99C185.861 435.561 182.326 431.059 178.603 433.353C173.842 436.286 179.733 444.695 183 446z"/>
<path style="fill:#030303; stroke:none;" d="M242.333 432.667L242.667 433.333L242.333 432.667M757 432L760 436L757 432M556 433L557 467L558 467L556 433M241 434L242 435L241 434M240 435L241 436L240 435M242 435L241 437L242 435z"/>
<path style="fill:#795749; stroke:none;" d="M186 436L183 446C180.732 448.155 181.785 450.991 181.965 453.996C182.647 465.382 192.294 469.239 202 472L200 468L209 471L210 466L211 466C210.778 472.088 214.742 473.577 220 475L220 471L218 469L217 469L211 469L220 465L221 472C225.862 470.181 228.152 465.358 222.89 461.938C218.608 459.153 212.738 459.468 208 457.897C199.872 455.203 192.717 450.527 185 447L194 441L186 436z"/>
<path style="fill:#030303; stroke:none;" d="M239 436L236 443L239 442L237 440L239 436M760 436L761 437L760 436z"/>
<path style="fill:#795749; stroke:none;" d="M813 436L807 439L807 441L815 447C806.695 449.623 799.607 455.989 791 458.405C786.37 459.705 778.879 459.211 775.607 463.303C773.293 466.198 775.35 473.485 779 470L780 470L780 475L782 473C786.334 473.708 788.483 472.058 790 468C787.107 469.379 785.114 470.777 783 468L782 468L782 472L781 472L780 465L789 467L783 464L783 463C788.26 463.406 790.082 465.95 791 471L800 468L799 471C819.214 469.179 822.9 450.629 813 436z"/>
<path style="fill:#030303; stroke:none;" d="M761 437L762 438L761 437M760 438L761 439L760 438M762 438L766 443L766 447L767 447C767.373 442.557 765.502 440.556 762 438M234 442L233 444L235 444L234 442M229 449L235 446C231.821 444.495 230.493 446.094 229 449M768 445L769 450L770 450L768 445M771.333 448.667L771.667 449.333L771.333 448.667M228.333 449.667L228.667 450.333L228.333 449.667M230 449L231 450L230 449M770 450L771 451L770 450M772 450L772 454L773 454L772 450M227 451L227 455L228 455L227 451z"/>
<path style="fill:#bf856f; stroke:none;" d="M188 452L189 457C185.688 460.305 197.931 471.615 201 459L195 459L192 452L188 452M808 452L806 459L799 459L801 466C807.066 465.374 811.113 462.321 814 457L812 452L808 452z"/>
<path style="fill:#030303; stroke:none;" d="M773 454L773 465L774 465L773 454z"/>
<path style="fill:#795749; stroke:none;" d="M809 460L810 461L809 460z"/>
<path style="fill:#252131; stroke:none;" d="M525 462L526 473L527 473L525 462z"/>
<path style="fill:#412d25; stroke:none;" d="M211 466L217 464C214.12 462.902 212.65 463.445 211 466M783 463L783 464C793.596 467.057 785.578 472.434 780 475L780 470L779 470C775.519 471.039 774.628 468.036 774 465L773 465C773.03 473.839 776.509 479.227 786 477L782 484C794.464 480.464 806.638 480.042 813 467L799 471L800 468L791 471C790.427 465.465 788.636 463.187 783 463z"/>
<path style="fill:#bf856f; stroke:none;" d="M211 469L217 469L218 469L219 472L220 465C215.823 465.287 213.338 465.186 211 469M780 465L781 472L782 472L782 468L783 468L783 471L789 469C786.845 465.094 784.123 465.303 780 465z"/>
<path style="fill:#412d25; stroke:none;" d="M210 466L209 471L200 468L202 472L188 467C194.644 481.373 211.111 480.764 223 489L215 478C222.793 479.376 227.554 476.146 228 468L221 470L220 470L220 475C214.594 472.993 212.465 471.078 210 466z"/>
<path style="fill:#030303; stroke:none;" d="M772 466L772 473L773 473L772 466M557 468L558 479L557 484L558 484C560.245 479.465 560.081 472.067 557 468M556 472L557 473L556 472M773 473L775 476L773 473z"/>
<path style="fill:#795749; stroke:none;" d="M195 476C197.602 485.633 217.262 498.623 227 500L229 509C237.257 504.792 233.896 497.571 227.996 493C224.038 489.933 220.518 485.632 216 483.419C209.051 480.015 201.774 480.024 195 476z"/>
<path style="fill:#030303; stroke:none;" d="M775 476L778 478L775 476z"/>
<path style="fill:#795749; stroke:none;" d="M805 476C794.355 482.978 756.602 488.914 769 509L770 509C776.604 500.735 788.301 493.451 796.801 487.065C800.403 484.359 806.4 481.178 805 476z"/>
<path style="fill:#030303; stroke:none;" d="M784 477L786 479L786 477L784 477M775 478L775 481L776 481L775 478M778 478L778 479L782 479L778 478z"/>
<path style="fill:#412d25; stroke:none;" d="M217 479L218 480L217 479z"/>
<path style="fill:#030303; stroke:none;" d="M782 479L782 480L785 480L782 479M775 482C776.434 485.973 775.216 487.577 773 491C776.335 488.457 779.438 484.925 775 482M558 484L556 507C560.574 511.873 551.745 532.088 559 533L555 547L556 547L556 543L557 543L558 547L563 547C563 531.991 563.4 516.905 561.917 502C561.509 497.902 562.447 488.953 558 488L558 484M779 484L779 487L781 486L781 485L779 484M781 484L782 485L781 484M778 487L779 488L778 487M777 488L778 489L777 488M776 489L777 490L776 489M775 490L776 491L775 490z"/>
<path style="fill:#252131; stroke:none;" d="M465 491L465 495L463 494L461 505L460 505L460 500C452.534 505.684 457.977 527.542 458 536L459 536C461.79 523.491 470.26 503.536 465 491z"/>
<path style="fill:#030303; stroke:none;" d="M774 491L775 492L774 491z"/>
<path style="fill:#412d25; stroke:none;" d="M766 498L767 499L766 498z"/>
<path style="fill:#252131; stroke:none;" d="M460 499L461 500L460 499z"/>
<path style="fill:#412d25; stroke:none;" d="M765 499C764.174 503.679 763.903 507.39 769 509L765 499M235 501C232.879 505.279 229.341 509.904 236 511L235 501z"/>
<path style="fill:#030303; stroke:none;" d="M457 527L457 537L458 537L457 527z"/>
<path style="fill:#010103; stroke:none;" d="M555 534L555 539L559 533L555 534z"/>
<path style="fill:#030303; stroke:none;" d="M458 537L457 544L458 544L458 537z"/>
<path style="fill:#010103; stroke:none;" d="M557 539L557 543L558 543L557 539M556 543L558 547L556 543z"/>
</svg>
