<?xml version="1.0" standalone="yes"?>
<svg width="1000" height="566">
<path style="fill:#ffffff; stroke:none;" d="M0 0L0 566L1000 566L1000 0L0 0z"/>
<path style="fill:#1f1715; stroke:none;" d="M479 41L479 47C456.695 49.9033 435.244 61.6312 419 76L419 77L424 82L425 82L423 74L426 80L428 80L428 72C433.142 72.3967 439.13 69.6841 443.96 70.5594C452.477 72.1029 447.55 80.4237 443 83L443 86L443 87L448 86L448 87C438.567 90.7511 434.727 91.6533 426 85L425 85L416 95C413.209 88.1018 414.243 84.7219 417 78C400.976 83.7875 398.967 104.579 388 115L389 119L385 119C381.635 131.719 384.953 147.866 372 156C373.861 160.355 372.114 167.677 366.09 163.508C361.445 160.292 361.262 153.995 357 151C355.979 160.353 353.217 169.91 365 173L365 177C353.417 175.982 349.424 170.093 346 160C339.004 166.262 339.167 177.663 346 184L346 185L335 184C337.895 191.788 344.588 197.806 353 199C347.351 208.232 352.85 214.264 359 221L362 220L361 223L369 231C356.974 230.482 351.754 225.656 347 215C341.595 223.317 355.032 236.898 360 243L371 243L370 246L374 251L367 252C372.48 258.643 376.167 253.541 382.32 255.59C385.153 256.533 387.392 260.679 389 263L386 261C390.309 275.635 408.131 277.513 421 275L419 274L419 273C425.37 273.001 438.033 276.607 443.106 271.397C446.223 268.197 444.315 262.765 443.611 259C441.557 248.013 441.085 232.636 434.914 223.062C431.139 217.205 423.426 221.461 418 218.106C406.136 210.772 402.732 197.86 401 185L402 185L404 189C407.21 179.519 405.573 171.222 415 180L413 176L422 181L421 185L427 186L429 194L430 194C434.025 172.332 434.311 149.101 450.059 132.001C457.249 124.192 467.665 123.638 474.907 115.985C484.249 106.11 484.455 95.0348 497.985 88.8549C509.583 83.5579 526.311 82.8244 539.015 80.7569C545.146 79.7592 552.65 79.7012 557 75C560.824 82.0701 566.552 84.8445 574 87L577 81L575 77L579 79L577 76L583 78C584.52 69.782 569.322 61.9895 562 62C557.443 53.9112 540.037 46.022 532 41C540.983 53.6448 558.397 60.7914 572 67L572 68C563.167 67.5535 553.493 60.4188 546 56L545 56L543 59L550 65L547 64L548 66L547 66L526 66L528 61L524 60L524 59L534 55L527 55L537 53C531.884 42.0304 523.791 41 513 41C512.023 62.3347 493.203 62.9017 478 70L489 61L485 59C489.628 59.0267 497.654 47.1472 498 42L499 42L499 47L500 47L504 46L504 41L479 41M505 41L501 55C506.834 51.946 509.659 47.5537 510 41L505 41z"/>
<path style="fill:#c5a377; stroke:none;" d="M510 41C508.493 55.6221 489.731 60.8995 479 68L479 69C488.877 66.7777 502.378 64.3942 508.362 56C511.311 51.8625 515.103 44.6206 510 41z"/>
<path style="fill:#5f4335; stroke:none;" d="M527 41L537 53L527 55L534 55L524 59L524 60L528 61L526 66L531 67L531 66L528 66L529 62L531 59L539 64L533 62L533 63L535 63L535 64L532 64L532 65L548 66L547 64L550 65L549 62L546 63L546 60L545 60C545 64.0071 538.699 60.4972 536 60L538 59L538 58L535 57L541 56L539 58L544 60L545 56L546 56L551 59L548 55L551 56C545.732 50.6594 534.45 41.5615 527 41M533 41L549 53L561 49L561 48L558 41L548 41L549 43L545 43L546 48L549 47L549 50L533 41z"/>
<path style="fill:#1f1715; stroke:none;" d="M537 41L538 42L537 41M539 41C541.106 45.9317 543.576 48.9053 549 50L549 47L546 48L545 43L549 43L539 41z"/>
<path style="fill:#5f4335; stroke:none;" d="M498 42C498 48.7234 485.5 59.125 485 59C486.386 65.3704 498.142 57.4267 502 56L505 42L504 42L504 46L500 47L499 47L498 42z"/>
<path style="fill:#1f1715; stroke:none;" d="M538 42L540 44L538 42M549 48L550 49L549 48z"/>
<path style="fill:#916951; stroke:none;" d="M550 51L549 51L550 54L553 53L552 55C557.458 51.6231 563.158 50.6113 559 59L562 62L565 61C565.323 55.8332 565.513 48.6134 558 48.824C555.03 48.9073 552.665 52.1587 550 51z"/>
<path style="fill:#c5a377; stroke:none;" d="M553 55C564.305 61.7547 560.368 44.5708 553 55z"/>
<path style="fill:#5f4335; stroke:none;" d="M563 50L564 51L563 50M564 51L566 53L566 51L564 51z"/>
<path style="fill:#c5a377; stroke:none;" d="M550 52L551 53L550 52M551.667 53.3333L552.333 53.6667L551.667 53.3333z"/>
<path style="fill:#5f4335; stroke:none;" d="M566 53L564 62L581 70C579.799 62.5644 572.331 56.5635 566 53M502 54L503 55L502 54z"/>
<path style="fill:#916951; stroke:none;" d="M547 54L548 55L547 54M535 57L538 58L538 59L536 60L546 62L546 61L539 58L541 56L535 57M548 55C552.938 61.8457 560.051 64.1777 568 66L568 65L548 55z"/>
<path style="fill:#5f4335; stroke:none;" d="M501 57L502 58L501 57M564 57L562 58L562 59L564 57M545 58L546 59L545 58z"/>
<path style="fill:#c5a377; stroke:none;" d="M560 58L561 59L560 58z"/>
<path style="fill:#916951; stroke:none;" d="M531 59L529 62L528 66L533 67L535 64L535 63L533 63L533 62L539 64L531 59M558 59L559 60L558 59M546.667 62.3333L547.333 62.6667L546.667 62.3333M563 62L564 63L563 62M548 63L549 64L548 63z"/>
<path style="fill:#5f4335; stroke:none;" d="M565 63L566 64L565 63z"/>
<path style="fill:#c5a377; stroke:none;" d="M493 66L496 65L493 66z"/>
<path style="fill:#5f4335; stroke:none;" d="M562 64L563 65L562 64M566.667 64.3333L567.333 64.6667L566.667 64.3333M563 65L563 66L572 68L572 67L563 65M520 66L520 67L529 70L520 66M548 66L549 67L548 66z"/>
<path style="fill:#39473d; stroke:none;" d="M479 67L480 68L479 67z"/>
<path style="fill:#916951; stroke:none;" d="M533 67L534 68L533 67z"/>
<path style="fill:#39473d; stroke:none;" d="M478 68L478 70L480 70L478 68M480 68L481 69L480 68M476 69L451 81L451 82L478 70L476 69z"/>
<path style="fill:#5f4335; stroke:none;" d="M515 69L522 76L520 72L526 73L515 69M428 74L432 84L428 86L427 86L416 80C413.068 85.5939 412.898 89.4555 416 95L425 85L426 85L431 89L430 87L433 88L432 86L433 86L441 88L441 89L434 90L434 91L448 87L448 86L443 87L443 86L445 85L443 84C459.096 72.7826 438.228 67.6604 428 74z"/>
<path style="fill:#1f1715; stroke:none;" d="M519 71L520 72L519 71z"/>
<path style="fill:#39473d; stroke:none;" d="M420 75L423 72L420 75M428 72L428 80L426 80L423 74L425 82L424 82L419 77L420 75L419 75L416 80L427 86L428 86L432 84L428 75L428 72z"/>
<path style="fill:#5f4335; stroke:none;" d="M556 75C552.263 79.6262 544.383 79.5954 538.729 80.4259C526.388 82.2387 509.259 83.4529 498 88.3897C484.099 94.4849 483.733 106.013 473.96 115.985C467.214 122.866 457.674 123.356 451.019 130.019C434.644 146.416 432.765 172.122 430 194L429 194L427 186L421 185L422 181L413 176L415 180C406.795 167.876 406.141 180.725 404 189L402 185L401 185C402.021 197.494 405.608 211.055 417 218.106C423.326 222.022 431.383 217.191 435.442 225.008C447.45 248.136 442.643 277.718 449.364 302C451.879 311.086 459.247 325.82 468 330L474.036 350.715L475.818 362.522L484 368L483 340L486 336L491 345C496.554 344.802 495.65 351.282 496.167 355C497.259 362.863 506.209 378.126 499 384L500 382L499 382L491 378L502 387L505 379C507.028 368.439 517.917 363.793 524.192 355.999C535.386 342.096 549.835 318.745 553 301L552 301C546.233 310.916 541.01 319.42 533.166 327.985C530.75 330.623 526.263 337.012 523 333L511 340L513 337C508.93 333.483 507.367 327.191 509 322L509 321L509 320L507 320C509.858 306.515 519.478 294.371 532 288.171C537.991 285.204 545.093 287.154 550 282L546 283C541.749 276.016 536.607 277.99 530 275.717C524.605 273.861 520.235 270.108 515 268L515 267L518 268L516 265L545 254L545 253C541.061 253.017 528.755 257.124 528 252L500 243C502.674 237.905 507.192 238.475 512 236.356C526.242 230.078 548.463 235.72 563 242L563 236L557 234C553.153 235.282 543.224 235.104 544 232C539.733 231.431 536.937 228.232 532.911 227.512C526.032 226.283 516.866 231.999 511 235L545 208C541.644 203.577 535.035 200.005 533.032 194.946C528.411 183.268 531.826 165.174 524.231 154.805C512.045 138.17 469.184 134.546 458 155L463 155L464 152C471.672 153.195 481.764 144.464 487 153L473 153L455 166L457 172L454 173L455 175L454 181L457 180C454.055 185.548 455.63 191.419 458 197L453 198L454 202L450 205L453 206L457 228L464 234L467 233C468.665 237.734 472.768 236.774 477 236L477 237C471.366 239.073 472.503 242.434 475 247L470 239L469 239L466 241L469 247C463.263 245.466 453.627 240.33 454 251L449 254C443.032 239.6 432.723 221.822 432 206L436 206L440 203L440 199L441 199L443 202L441 198L437 199C436.492 174.816 434.09 148.821 456.222 131.5C460.461 128.183 465.38 128.814 469.639 127.056C472.086 126.045 468.492 125.106 468 125L468 124L472 122L473 125L478 121L478 127L480 125L481 125L482 125L487 129L487 125L492 126L492 125L489 120L493 122C495.142 115.574 475.611 107.292 488 98C493.587 93.8098 503.297 91.6758 510 90C514.749 88.8127 520.708 91.1458 525 89C531.223 85.8885 533.492 84.0014 539 83C544.155 82.0627 561.373 78.5082 560 84L564 84L570.786 93.0401L581 114L582 114L576 93L581 97L580 94L574 88L577 87L578 85L578 80L583 83L581 80L584 81L577 76L579 79L575 77L577 81L574 87L556 75z"/>
<path style="fill:#39473d; stroke:none;" d="M583 76L587 85L588 85L586 76L583 76z"/>
<path style="fill:#1f1715; stroke:none;" d="M580 79L581 80L580 79z"/>
<path style="fill:#916951; stroke:none;" d="M493 122L489 120L492 125L492 126L487 125L487 129L482 125L481 125L480 125L478 127L478 121L473 125L472 122L468 124L468 125L471 125L470 128C460.79 124.032 453.201 134.094 448.601 140.711C445.548 145.103 441.214 149.044 439.089 154C433.352 167.375 435.327 185.268 437 199L441 198L443 202L441 199L440 199L440 203C437.142 203.209 436 203.174 436 206L432 206C432.31 220.569 441.535 241.6 449 254L454 251C454.298 240.488 463.357 246.145 469 247L466 241L469 239L470 239C470.286 243.07 471.44 244.986 475 247C473.217 242.301 472.118 239.774 477 237L477 236C472.649 236.511 469.425 237.136 467 233L464 234C462.878 230.269 460.956 228.156 457 228C458.254 223.871 453.645 205.582 450 205L454 202L453 198L458 197C456.105 191.036 454.515 185.983 457 180L454 181L455 175L454 173L457 172L455 166L473 153L487 153C483.495 144.28 470.713 152.324 464 152L463 155L458 155C472.955 136.894 512.887 135.716 525.387 157.289C531.562 167.947 528.357 184.615 533.032 195.871C534.935 200.452 541.381 204.615 545 208C535.562 216.343 516.91 223.961 511 235L531.961 227.744L544 232C544.628 236.483 553.577 234.989 557 234L563 236L562 243L566 244C567.044 228.452 541.881 226.543 530 226C536.682 217.254 536.102 221.076 542 226C540.87 219.984 539.716 215.095 546 212L550 215C558.653 200.394 543.425 204.297 539.329 193.945C536.368 186.459 532.007 174.918 531.25 167C530.631 160.519 533.36 153.749 533 147L512 140L505 128L504 119L504 118C507.965 113.591 500.263 105.12 500 100L496 100L500 97L498 95C506.395 92.7788 524.896 95.5002 530 88C537.863 88.0946 545.8 81.9271 553.911 83.4035C566.66 85.7243 577.627 107.356 582 118L583 118C581.548 109.288 575.546 96.9325 570 90C567.583 86.9784 563.293 86.8276 564 84L560 84C558.961 77.0042 546.17 82.4098 542.005 82.9352C533.824 83.967 527.848 87.7655 520 89.3889C509.851 91.4885 493.947 90.5206 486.417 99.2778C478.462 108.529 491.928 114.314 493 122M578 80L578 85L577 87L574 88L580 95L579 91L580 85L583 85L578 80z"/>
<path style="fill:#1f1715; stroke:none;" d="M581 80L587 88L582 86L584 93L580 92L581 97L576 93L586.334 130L588.089 170L590.911 200L580 245L591 244L591 250L588 249L588 251L580 250L580 247L572 262L586 257L585 260C597.035 255.13 602.292 244.706 601 232L604 231L602 229C613.969 219.278 617.535 208.882 624 196L624 195L617 187L616 191L617 195L612 197C611.041 192.904 604.797 176.816 614 181L615 181L615 173L622 171L623 177L627 179L621 167C625.625 164.816 627.359 162.012 628 157L625 161L627 160C616.274 170.375 602.995 168.531 593 159L604 158C600.006 150.884 595.077 149.207 595 140L603 139L603 138L595 137L599 129C596.943 125.045 599.783 123.23 599.132 119.385C597.392 109.112 591.505 83.7042 581 80z"/>
<path style="fill:#5f4335; stroke:none;" d="M445 83L445 85L447 85L445 83z"/>
<path style="fill:#c5a377; stroke:none;" d="M530 88C522.307 95.6959 507.77 91.4391 498 95L500 97L496 100L500 100L504 118L504 119L505 128L512 140L533 147C530.783 163.641 532.699 179.053 539.329 194.867C541.748 200.635 553.449 200.474 552.847 208.013C552.66 210.363 550.882 212.842 550 215L546 212C539.224 214.04 540.611 220.345 542 226C537.257 220.035 534.886 216.621 530 226C541.558 227.008 566.159 228.878 566 244C556.821 243.711 553.665 253.139 546.857 256.976C541.611 259.933 531.142 260.248 525 262L532 271C540.386 270.101 542.669 276.402 549.911 278.035C557.505 279.747 562.475 271.563 567 267L563 272L563 273L575 282C574.036 274.666 574.313 270.642 580 265L580 264L572 263C578.501 250.644 582.564 237.782 585.037 224C586.128 217.923 584.422 212.799 587 207L588 207L590 209C591.101 195.051 589.041 182.817 588.089 169C587.696 163.286 589.65 155.25 586.821 150.058C583.416 143.807 577.156 145.728 572 148L572 151C579.383 153.934 584.071 158.153 586 166L584 165L581 171L578 170L579 173C566.486 177.936 561.799 179.781 549 174L551 171L547 170L548 167C539.691 165.671 542.458 151.6 543 145C547.856 146.813 551.154 144.113 556 143.3C567.192 141.422 575.496 139.677 586 144C590.054 126.972 580.194 110.179 570.37 97C566.789 92.1947 561.028 84.7939 554.83 83.3287C546.54 81.3687 538 87.6032 530 88z"/>
<path style="fill:#5f4335; stroke:none;" d="M580 85L579 93L584 93L582 86L587 88L580 85z"/>
<path style="fill:#916951; stroke:none;" d="M432 86L433 88L430 87C433.264 90.3329 436.659 90.2798 441 89L441 88L432 86z"/>
<path style="fill:#c5a377; stroke:none;" d="M532.333 86.6667L532.667 87.3333L532.333 86.6667z"/>
<path style="fill:#1f1715; stroke:none;" d="M576 98L577 99L576 98z"/>
<path style="fill:#5f4335; stroke:none;" d="M407 103L405 114L406 114C408.983 109.859 411.267 106.924 407 103z"/>
<path style="fill:#1f1715; stroke:none;" d="M407 105L408 106L407 105M406 107L407 108L406 107z"/>
<path style="fill:#5f4335; stroke:none;" d="M478 107L463 121L463 122C468.961 119.427 477.755 114.266 478 107z"/>
<path style="fill:#c5a377; stroke:none;" d="M502 114L503 117L504 117L502 114z"/>
<path style="fill:#916951; stroke:none;" d="M472 119L472 120L474 119L474 120L473 123L474 123L475 123L477 120L472 119M478 120L479 121L478 120z"/>
<path style="fill:#39473d; stroke:none;" d="M599 129L597 133L605 126L602 122C597.654 122.948 596.389 125.234 599 129z"/>
<path style="fill:#916951; stroke:none;" d="M467 125L468 126L467 125z"/>
<path style="fill:#c5a377; stroke:none;" d="M381 126L382 140L383 140L381 126z"/>
<path style="fill:#916951; stroke:none;" d="M485 126L486 127L485 126z"/>
<path style="fill:#c5a377; stroke:none;" d="M604 127L596 136L603 130L606 130L604 127z"/>
<path style="fill:#39473d; stroke:none;" d="M379 129L376 135L376 148L371 142L370 142L373 154L370 149C365.691 150.47 363.252 152.578 362 157L363 157L369 151L371 156L368 159L372 158L383 140L379 129M604 129L605 130L604 129M603 130L595 136L595 137L603 138L603 139L596 140L596 141L603 144L610 135L603 130z"/>
<path style="fill:#c5a377; stroke:none;" d="M603 144L595 140L595 146L613 143L613 144L610 145L610 146L614 146L611 134C605.627 135.94 604.88 138.906 603 144z"/>
<path style="fill:#39473d; stroke:none;" d="M612.333 135.667L612.667 136.333L612.333 135.667z"/>
<path style="fill:#c5a377; stroke:none;" d="M370 141L376 148C378.382 143.937 378.36 141.447 377 137L370 141z"/>
<path style="fill:#39473d; stroke:none;" d="M613 137L614 146L610 146L610 145L613 144L613 143L595 146C596.516 151.782 600.215 155.099 605 150L602 152L613 147L604 155L604 160L607 161L615 159L615 158L611 158L611 157C615.812 154.384 618.749 150.324 620 145L616 146L613 137z"/>
<path style="fill:#916951; stroke:none;" d="M543 145C541.609 151.655 539.25 166.318 548 167L547 170L548 170L550 165L547 166L555 144L557 146C563.807 142.227 572.466 141.244 580 143L580 144C573.943 145.08 565.977 148.413 563 154C572.288 154.026 575.589 157.606 583 162L582 168L577 170L574 168C567.579 176.635 557.951 170.575 549 172L549 174C559.944 180.877 568.299 179.012 579 173L578 170L581 171L584 165L586 166L586 165C584.538 157.344 579.302 153.03 572 151L572 148C578.266 146.125 581.107 145.714 587 149C583.916 129.887 553.61 148.117 543 145z"/>
<path style="fill:#5f4335; stroke:none;" d="M557 146L556 146L555 144C549.602 149.134 548.551 159.004 547 166L550 165L548 170L549 170C552.973 164.423 558.098 160.707 565 160L565 159L561 159L561 158L564 158L564 157L556 159L556 158L575 157L573 160L576 162L577 162L575 158L579 163L583 163L583 162C576.308 156.093 572.114 154.006 563 154L580 144C574.767 139.64 562.103 141.985 557 146z"/>
<path style="fill:#c5a377; stroke:none;" d="M370 143C367.038 144.695 362.039 146.467 360.215 149.495C357.238 154.435 362.89 163.911 368.014 165.11C373.493 166.392 374.482 160.649 373 157L368 159L371 156L369 151L363 157L362 157L370 149L373 154C374.036 149.388 373.316 146.413 370 143z"/>
<path style="fill:#1f1715; stroke:none;" d="M464 151C482.23 145.171 496.53 151.113 515 152C512.72 144.568 505.848 144.599 499 144.08C487.191 143.186 472.656 140.834 464 151z"/>
<path style="fill:#916951; stroke:none;" d="M548 144L549 145L548 144z"/>
<path style="fill:#c5a377; stroke:none;" d="M618 146L605 156L605 157C610.852 157.742 618.523 152.37 618 146M612 147L602 152L605 150L600 154C604.849 155.807 612.126 152.877 612 147M611 157L611 158L615 158L615 159L607 159C610.597 164.548 621.316 161.81 623.843 156.046C625.028 153.342 622.677 149.66 622 147L611 157M602 148L603 149L602 148z"/>
<path style="fill:#5f4335; stroke:none;" d="M353 154L354 163L355 163L357 153L353 154z"/>
<path style="fill:#c5a377; stroke:none;" d="M352 154L349 161L348 161L347 159C345.828 170.528 354.215 176.506 365 177L365 173C355.129 168.786 357.002 161.311 352 154z"/>
<path style="fill:#5f4335; stroke:none;" d="M626 154C618.734 161.135 615.169 164.689 605 162L604 160L605 157L593 159C600.378 168.987 619.241 171.336 627 160L625 161L625 160L626 154M357 155L358 156L357 155z"/>
<path style="fill:#1f1715; stroke:none;" d="M470 168L467 169C470.764 171.572 479.928 173.335 484 171L480 169L492 167L490 163L495 166L500 166L503 164C504.076 166.795 509.762 173.628 511 168L516 169C514.711 152.437 495.739 154.533 484 157.515C478.42 158.932 471.063 161.92 470 168M556 158L556 159L564 157L564 158L561 158L561 159L565 159L565 160L558 162L558 163L566 164L567 164L577 170L582 168L582 163L575 158L577 162L576 162L573 160L575 157C568.886 155.193 561.871 155.523 556 158z"/>
<path style="fill:#5f4335; stroke:none;" d="M627.333 158.667L627.667 159.333L627.333 158.667M546 159L544 163L548 160L546 159z"/>
<path style="fill:#1f1715; stroke:none;" d="M554.667 159.333L555.333 159.667L554.667 159.333z"/>
<path style="fill:#4f251b; stroke:none;" d="M560.667 160.333L561.333 160.667L560.667 160.333M558.667 161.333L559.333 161.667L558.667 161.333z"/>
<path style="fill:#1f1715; stroke:none;" d="M605 161L605 162C609.475 163.631 614.81 165.516 618 161L605 161z"/>
<path style="fill:#4f251b; stroke:none;" d="M549 171L554 170L559 163C553.793 162.51 550.329 166.119 549 171M560 163C562.137 169.736 567.221 171.864 574 170C572.807 166.548 571.141 161.674 567 164L560 163z"/>
<path style="fill:#5f4335; stroke:none;" d="M621 167L626 176L627 176L630 163L621 167z"/>
<path style="fill:#4f251b; stroke:none;" d="M490 163L492 167L489 168L489 169L489 170L509 171L503 164L500 166L495 166L490 163z"/>
<path style="fill:#975945; stroke:none;" d="M553 172L571 173L560 163C555.458 165.026 553.673 167.05 553 172z"/>
<path style="fill:#5f4335; stroke:none;" d="M593 165C598.886 173.155 611.832 176.332 619 168C607.852 169.724 603.513 169.334 593 165z"/>
<path style="fill:#4f251b; stroke:none;" d="M480 169L486 171L487 166L480 169z"/>
<path style="fill:#975945; stroke:none;" d="M487 166L485 168L485 169L494 172L494 171L489 170L487 166z"/>
<path style="fill:#c5a377; stroke:none;" d="M338 168C337.114 174.432 332.203 192.029 346 185L346 184L340 168L338 168z"/>
<path style="fill:#5f4335; stroke:none;" d="M483 170L484 171L483 170z"/>
<path style="fill:#916951; stroke:none;" d="M489 174L488 178L493 178L493 180C483.979 180.186 469.241 180.458 464 189L467 188C465.953 193.951 471.957 198.82 477 201L475 204L478 203L490 219L493 221L500 213L501 213L502 216L515 187L514 179L509 172L489 174z"/>
<path style="fill:#5f4335; stroke:none;" d="M615 173L615 181L614 181C607.374 174.839 609.17 186.419 609 190L610 190L610 185L614 196L617 195L616 191L617 187L620 188L618 178L625 178L625 177L622 171L615 173z"/>
<path style="fill:#916951; stroke:none;" d="M455 173L456 174L455 173z"/>
<path style="fill:#5f4335; stroke:none;" d="M613 174L614 177L612 176L614 180L615 180L613 174z"/>
<path style="fill:#c5a377; stroke:none;" d="M477 186L480 188C481.176 194.443 492.32 202.283 497 207L498 207L500 205L501 209C506.982 202.61 509.236 193.579 509.229 184.985C509.227 182.523 509.377 177.817 506.671 176.623C503.644 175.286 500.529 177.851 498 179.135C491.31 182.53 483.809 183.108 477 186M618 178L623 197L625.954 179.589L618 178z"/>
<path style="fill:#1f1715; stroke:none;" d="M411 197L412 197L420 189C419.144 178.018 406.674 188.246 411 197z"/>
<path style="fill:#ffffff; stroke:none;" d="M336 184L337 185L336 184z"/>
<path style="fill:#5f4335; stroke:none;" d="M400 184L401 185L400 184z"/>
<path style="fill:#916951; stroke:none;" d="M610 185C610.308 189.549 609.92 194.205 614 197C614.728 191.868 614.097 188.38 610 185z"/>
<path style="fill:#c5a377; stroke:none;" d="M335 187L341.906 203.09L346 217L347 215L352 225L359 229L362 228L360 225L366 227L366 226L343 204C354.708 200.924 339.032 190.247 335 187z"/>
<path style="fill:#5f4335; stroke:none;" d="M601 188L598 199L596 198L593 200L596 202L595 206L598 205L597 209L604 205L603 208C612.242 203.339 606.734 193.194 601 188M617 192L618 193L617 192M470 194L471 195L470 194z"/>
<path style="fill:#916951; stroke:none;" d="M511.333 194.667L511.667 195.333L511.333 194.667M348 197L343 204L352 215L353 199L348 197M597 204L600 202L599 206L603 201L606 202L606 198C601.553 198.299 598.384 199.558 597 204M346 201L347 202L346 201z"/>
<path style="fill:#c5a377; stroke:none;" d="M365 210L368 201C363.152 202.784 362.915 205.571 365 210z"/>
<path style="fill:#916951; stroke:none;" d="M555 203C555.358 207.746 557.191 210.227 561 213L561 208L560 206L555 203z"/>
<path style="fill:#5f4335; stroke:none;" d="M505 205L506 206L505 205M550 205L545 211C549.429 211.841 552.454 209.37 550 205z"/>
<path style="fill:#1f1715; stroke:none;" d="M516 212L516 213C524.636 216.302 528.594 211.805 537 210C529.832 202.681 523.948 213.228 516 212z"/>
<path style="fill:#916951; stroke:none;" d="M587 207L585 221L586 221C587.524 216.315 590.237 211.34 587 207z"/>
<path style="fill:#5f4335; stroke:none;" d="M503 209L504 210L503 209z"/>
<path style="fill:#c5a377; stroke:none;" d="M619 210L607 226C613.157 224.316 621.571 217.243 619 210z"/>
<path style="fill:#5f4335; stroke:none;" d="M501 212L502 213L501 212z"/>
<path style="fill:#916951; stroke:none;" d="M617 212L618 213L617 212M616 213L617 214L616 213M615 214L616 215L615 214M614 215L615 216L614 215M584 216L583 221L584 221L584 216M613 216L611 219L613 216M355 217L356 218L355 217M356 218L358 220L358 218L356 218z"/>
<path style="fill:#5f4335; stroke:none;" d="M589 218L590 231C595.521 232.466 598.495 231.638 602 227L597 225L592 230L594 226L591 227L596 225L589 218z"/>
<path style="fill:#916951; stroke:none;" d="M606 224L611 219L606 224M358 220L359 221L358 220M360 223L362 220L360 223M611 220L612 221L611 220M349 221L350 222L349 221M610 221L611 222L610 221M350 222L352 225L350 222M609 222L610 223L609 222M361.667 223.333L362.333 223.667L361.667 223.333M608 223L609 224L608 223M358.667 224.333L359.333 224.667L358.667 224.333M363 224L366 226L363 224M591 227L594 226L592 230L598 226C594.854 224.569 593.034 223.958 591 227M607 224L608 225L607 224M352 225C356.222 230.193 362.596 230.868 369 231L367 226L360 225L362 228L359 229L352 225M605 225L605 227L607 227L607 225L605 225M608 225L605 229L605 230L609 230L611 225L608 225z"/>
<path style="fill:#5f4335; stroke:none;" d="M604 226L604 231L601 232L601 235L608 226L604 226M608 228L609 229L608 228z"/>
<path style="fill:#c5a377; stroke:none;" d="M602 248L608 229C602.653 231.718 595.581 243.319 602 248z"/>
<path style="fill:#5f4335; stroke:none;" d="M601 230L602 231L601 230z"/>
<path style="fill:#1f1715; stroke:none;" d="M500 243L546 238C533.855 231.531 521.965 232.092 510 236.788C505.591 238.518 501.611 237.901 500 243z"/>
<path style="fill:#5f4335; stroke:none;" d="M600 233L601 234L600 233z"/>
<path style="fill:#975945; stroke:none;" d="M525 241L531 245C533.566 251.979 541.776 250 548 250L548 251L545 252L545 253C550.257 252.111 552.281 247.694 554 243C548.177 244.344 545.073 245.927 540 242L556 240C548.343 236.32 533.041 238.667 525 241z"/>
<path style="fill:#4f251b; stroke:none;" d="M505 242L505 243L528 252C528.764 258.097 544.273 252.919 548 251L548 250C541.445 250 534.633 251.476 531 245L525 241L540 240C529.438 235.568 515.955 241.909 505 242z"/>
<path style="fill:#cd9177; stroke:none;" d="M540 242C544.298 246.6 548.621 244.746 554 243L549 253C552.122 251.652 563.474 246.449 560.824 241.603C557.831 236.132 544.06 240.473 540 242M532 242L539 246L539 241L532 242z"/>
<path style="fill:#916951; stroke:none;" d="M362 242L362 245L369 245L370 252L374 251L370 246L371 243L362 242M474 244L478 243L474 244z"/>
<path style="fill:#5f4335; stroke:none;" d="M587 244L588 248L580 247L583 246L583 245L579 246L580 250L588 251L588 249L591 250L591 244L587 244z"/>
<path style="fill:#c5a377; stroke:none;" d="M363 245C364.12 249.462 366.27 251.901 371 251L369 245L363 245z"/>
<path style="fill:#916951; stroke:none;" d="M579 245L580 246L579 245M580 247L588 248L588 245L580 247M475.333 247.667L475.667 248.333L475.333 247.667M537 257L537 258C542.391 258 548.147 259.103 550 253L537 257z"/>
<path style="fill:#5f4335; stroke:none;" d="M374 257L374 258L387 265L386 261L389 263C385.159 254.923 381.77 255.267 374 257z"/>
<path style="fill:#916951; stroke:none;" d="M585 257L572 262L572 263C577.684 263.718 581.011 264.142 586 261L585 257M533 258L533 259L537 259L533 258M516 265L518 268L515 267L515 268L546 283C548.95 282.017 549.622 281.513 549 284L555 283L556 283L561 276L577.161 302L582.109 321.907L589.322 331.04L596 372L593 374L602 378C618.631 377.89 633.121 395.52 648 401.547C651.237 402.858 663.284 408.558 665.353 403.678C667.895 397.685 659.181 385.534 657 380L656 380L656 385L655 385L650 373L649 373L648 373L650 377L646 377C648.261 370.909 646.438 366.185 640 364L639 361L642 361L640 356L639 361C636.796 359.479 633.944 355.116 631 355.222C624.697 355.45 627.939 370.13 632 371C626.164 377.437 618.267 371.51 613 367L613 366C614.941 364.181 614.08 363.305 612 362L612 358L607 358L613 350L614 354L611 353C615.086 359.122 624.829 352.778 630 351L629 345L634 347L629 338L636 341L639 347L640 347C635.809 335.947 625.162 323.938 615 318L615 317L620 317L620 316L614 317L597 303.815L563 273L563 272L567 267L552 277.62L532 271L525 262L532 260L516 265M570 264L570 265L576 265L570 264z"/>
<path style="fill:#5f4335; stroke:none;" d="M387.333 265.667L387.667 266.333L387.333 265.667z"/>
<path style="fill:#916951; stroke:none;" d="M502 266L501 269L498 267L497 267L496 272L500 270C501.974 273.425 509.389 274.037 511 270L502 266M567 266L568 267L567 266z"/>
<path style="fill:#5f4335; stroke:none;" d="M388 267L389 268L388 267z"/>
<path style="fill:#c5a377; stroke:none;" d="M443 271L420 276C422.49 279.467 426.562 278.81 429.566 281.653C433.802 285.66 431.934 293.968 431 299L435 299L446.883 284.83L445 271L443 271z"/>
<path style="fill:#916951; stroke:none;" d="M419 273L419 274L421 275L410 275L410 277L425 274L419 273z"/>
<path style="fill:#5f4335; stroke:none;" d="M557 280L558 280L559 278L567.45 289L581.255 336.957L589.733 359L580 379L587 374L586 378L586 379C604.782 375.515 619.671 388.202 636 395L636 394C626.647 388.536 613.416 376.312 602 378L593 374L596 372L589.386 330.079L581.714 319.985L577.161 301L561 276L557 280z"/>
<path style="fill:#1f1715; stroke:none;" d="M558 278L563 305L564 305L565 302L566 302C567.145 308.872 564.583 334.896 561 334L563 342L560 343L561 348L562 348L564 346L559 351L561 358L562 358L562 355C566.343 361.279 558.294 378.16 556 385L553 384L552 385L553 388L541.529 382.737L524 357L509.519 370.093L502 388L513 393L515 389L522 386L523 386L524 392L533 382L535 382L538 399L539 399L540 389L541 389L549 404L551 400C562.837 407.891 556.567 423.039 552 434C550.293 438.097 549.413 449.853 546 449C546.731 453.386 540.849 476.712 538 476L538 489C530.21 486.123 531.149 475.007 529 468L532 468L530 456L529 456L530 467L529 467L524 430L523 430L523 435L520 438L524 441L522 444L521 444L519 442L518 447C521.196 450.144 521.196 452.856 518 456L518 457C528.628 464.877 526.628 481.816 524 493C517.281 493.222 513.502 499.081 508 493L507 493L510 499C504.382 494.222 501.787 496.462 496.29 494.008C490.331 491.347 491.004 482.325 491 477L489 477C489.852 487.798 491.004 498.111 491 509C490.998 513.841 489.075 520.18 490.322 524.816C491.132 527.828 494.264 529.24 495.398 532.093C497.545 537.491 494.293 545.225 500.34 548.972C503.843 551.143 510.047 550 514 550L546 550C543.949 524.235 535.261 501.046 542 475L544 476L558.055 444L577 425C580.615 444.472 581.497 465.313 580 485L575 500L576 500L576 495L582 494C582.377 504.475 582.804 515.172 578.716 525C577.39 528.187 572.876 536.04 575.121 539.396C578.624 544.631 594.802 537.722 599 536L601 550L605 550L601 532C615.605 530.446 627.915 531.558 642 535.579C650.166 537.909 657.356 540.41 658 550L663 550L659 537L672 540.316L705 529L704 535C712.374 536.509 706.704 548.444 714 550L715 535L727.364 543.307L749 542L749 550L780 550C777.083 541.136 768.596 537.578 765.13 529C761.013 518.812 762.276 506.711 759.698 496.17C758.63 491.804 755.136 488.215 753.982 483.754C751.937 475.854 751.065 466.114 749.908 458C748.235 446.261 755.498 428.651 744 421L731.217 456L722 476C723.439 464.673 729.722 453.439 727 442L726 442C724.66 451.11 722.597 467.415 716 474C717.19 479.471 714.882 484.564 715.862 490C716.984 496.226 726.21 507.541 722.929 513.786C719.909 519.534 705.679 521.1 700 523.781C691.891 527.609 681.873 536.381 673 537.502C666.99 538.261 659.614 532.288 654 530.344C644.61 527.092 634.817 523.391 625 521.755C618.548 520.679 611.002 521.787 605.018 518.686C598.532 515.324 588.299 492.356 596 488L596 487L590 482L595 480L595 479L592 479L593 407L587 402L590 402L576 383L579 384C579.321 390.767 588.513 397.33 592.981 402C595.915 405.067 597.274 409.572 600.313 412.312C612.843 423.614 631.263 428.862 646 420L641 401C648.78 403.648 657.598 409.117 666 407L666 406C638.188 403.728 614.893 372.121 586 379L586 378L588 377L587 374L580 379C581.188 371.329 589.108 368.521 589.812 360C590.612 350.311 584.324 344.978 581.533 336.957C574.754 317.474 576.463 291.328 558 278z"/>
<path style="fill:#c5a377; stroke:none;" d="M556 279L556 283L555 283L554 281C542.426 287.723 519.241 286.471 517 304L513 309L517 327L527 324L525 328L526 329L529 328L528 332C538.722 324.447 547.015 312.99 552 301L553 301C551.478 306.922 551.242 313.482 548.447 319C546.261 323.314 541.065 328.207 544 333L544 334L531 353L532 355L529 355L540 381C549.336 378.088 550.01 367.881 551.899 360C556.129 342.349 564.547 326.257 566 308L565 308L558 332L557 332L560 319C555.709 319 559.601 311.635 560.333 309C563.089 299.08 565.708 286.119 556 279M576 283L577 284L576 283M577 284L578 285L577 284M578 285L580 287L580 285L578 285z"/>
<path style="fill:#1f1715; stroke:none;" d="M446 286C441.534 289.393 435.76 293.173 435 299C429.824 299.96 427.013 305.417 425 310L427 309L427 310C422.571 320.593 414.995 338.614 416 350C411.758 353.243 412.146 362.111 413 367L411 366L405 378C408.734 377.664 414.822 376.674 417.272 373.451C420.128 369.692 416.832 364.915 423.015 362.782C427.607 361.199 436.376 364.506 439.312 368.144C447.291 378.028 453.089 395.001 457 407L461 403L461 402L458 399C464.288 395.348 461.618 388.985 462 383L461 383L460 386L459 386L461 372L458 373C456.208 353.571 445.003 335.798 444.04 316C443.599 306.92 450.534 293.57 446 286z"/>
<path style="fill:#c5a377; stroke:none;" d="M580 287L581 288L580 287M581 288L583 290L583 288L581 288M583 290L584 291L583 290M584 291L586 293L586 291L584 291z"/>
<path style="fill:#916951; stroke:none;" d="M523 293L524 294L523 293z"/>
<path style="fill:#c5a377; stroke:none;" d="M586 293L589 296L586 293z"/>
<path style="fill:#916951; stroke:none;" d="M522 294L523 295L522 294M521 295L522 296L521 295z"/>
<path style="fill:#39473d; stroke:none;" d="M563 295L563 301L564 301L563 295M447 296C434.68 317.366 453.708 351.494 458 373L461 372L459 386L460 386L461 383L462 383C460.916 389.185 463.618 394.415 458 399L461 402L461 407L463 407L468 404C469.684 395.318 470.26 387.634 468 379L469 379L469 381L470 381L471 370L459 345L465 344L456 326L455 326L455 328L454 328L454 323L453 323L453 325L452 325L448.022 311.015L447 296z"/>
<path style="fill:#916951; stroke:none;" d="M520 296L521 297L520 296z"/>
<path style="fill:#c5a377; stroke:none;" d="M589 296C595.373 305.046 608.553 315.731 620 316L620 315L589 296z"/>
<path style="fill:#916951; stroke:none;" d="M519 297L520 298L519 297z"/>
<path style="fill:#1f1715; stroke:none;" d="M448 298L452 325L453 325L453 323L454 323L454 328L455 328L455 326L456 326C457.965 334.567 467.443 355.378 475 360L468 330C457.297 322.279 453.855 308.929 448 298z"/>
<path style="fill:#916951; stroke:none;" d="M518 298C515.069 301.275 502.176 316.421 509 320L509 321L509 322L507 322C508.752 327.628 507.461 333.864 513 337L511 340L523 333C524.225 338.689 529.747 333.067 531 330L528 332L529 328L526 329L525 328L527 324L517 327L513 309L517 304L518 298z"/>
<path style="fill:#39473d; stroke:none;" d="M562 301C561.53 304.587 555.528 318.254 560 319L557 332L558 332L565 308L566 308L564 325L565 325L566 302L565 302L564 305L563 305L562 301z"/>
<path style="fill:#5f4335; stroke:none;" d="M429 302L430 303L429 302M431 302L427 309L428 309L431 302M428 303L429 304L428 303M426 306L427 307L426 306z"/>
<path style="fill:#39473d; stroke:none;" d="M550 308L518 363L524 357L530 361L529 355L532 355L531 353L544 334L544 333L552 308L550 308z"/>
<path style="fill:#5f4335; stroke:none;" d="M424 309L400 340C405.436 343.537 401.05 353.373 401 359L395 359L394 370L393 370L392 360L400 353L400 351L397 350L399 343L393.031 354L381 375L378 375L378 376L380 375L379 378L384 375L383 372L397 376L395 380L387 375L391 379L386 386C385.837 390.693 382.116 397.269 386 401L369 415L389 404L391 399L403 392L403 391L400 391L400 390L402 388L403 388L428 388L428 387L417 387L418 384L421 384L418 381L421 382L420 379L432 376L426 363L426 362C416.739 363.034 420.693 368.384 416.424 373.451C413.975 376.357 408.551 377.449 405 378L411 366L413 367C412.487 361.735 412.515 354.147 416 350L427 309L424 309z"/>
<path style="fill:#916951; stroke:none;" d="M543 316L544 317L543 316z"/>
<path style="fill:#5f4335; stroke:none;" d="M614 316L615 317L614 316M615 317L615 318C619.509 321.826 623.695 326.991 629 329.697C643.47 337.076 661.502 335.223 677 334L677 333L663 333L663 332C667.102 332 674.96 333.853 676 329L697 334L697 333L640 321C640.783 334.355 623.345 326.332 621 318L628 322L628 321L625 320L625 316L615 317z"/>
<path style="fill:#916951; stroke:none;" d="M542 317L543 318L542 317z"/>
<path style="fill:#c5a377; stroke:none;" d="M418 318L417 322L420 318L418 318z"/>
<path style="fill:#916951; stroke:none;" d="M541 318L542 319L541 318z"/>
<path style="fill:#5f4335; stroke:none;" d="M572 318L578 369L579 369C578.616 364.596 576.767 360.403 576.568 356C576.036 344.219 579.084 328.734 572 318z"/>
<path style="fill:#1f1715; stroke:none;" d="M621 318C622.396 327.021 634.582 332.267 641 325L621 318z"/>
<path style="fill:#916951; stroke:none;" d="M625 319C629.068 323.1 637.16 328.894 641 322C636.103 319.021 630.624 317.454 625 319M540 319L541 320L540 319z"/>
<path style="fill:#5f4335; stroke:none;" d="M610 319L612 324C605.711 321.252 601.46 323.551 596 327C597.198 332.174 598.188 337.052 604 338L603 334L608 333C610.76 327.385 613.95 326.836 619 330L610 319z"/>
<path style="fill:#1f1715; stroke:none;" d="M450.333 320.667L450.667 321.333L450.333 320.667z"/>
<path style="fill:#916951; stroke:none;" d="M539 320L540 321L539 320z"/>
<path style="fill:#c5a377; stroke:none;" d="M393 337C396.98 346.859 413.737 326.536 417 322L393 337z"/>
<path style="fill:#916951; stroke:none;" d="M538.333 321.667L538.667 322.333L538.333 321.667z"/>
<path style="fill:#c5a377; stroke:none;" d="M649 322L649 323L669 327C665.643 323.01 654.18 322.058 649 322z"/>
<path style="fill:#916951; stroke:none;" d="M537 323L538 324L537 323M536 324L537 325L536 324M535 325L536 326L535 325z"/>
<path style="fill:#39473d; stroke:none;" d="M563 325C559.399 336.047 555.08 346.705 552.155 358C549.872 366.818 549.171 376.248 540 381C542.726 385.665 547.899 386.934 553 388L552 385L553 384L556 385C558.575 379.578 566.868 359.322 562 355L562 358L561 358L559 351L564 346L562 348L561 348L560 343L563 342L561 334C564.625 333.49 564.155 327.876 563 325z"/>
<path style="fill:#916951; stroke:none;" d="M534 326L535 327L534 326M533 327L534 328L533 327z"/>
<path style="fill:#39473d; stroke:none;" d="M565 327L564 331L565 331L565 327z"/>
<path style="fill:#916951; stroke:none;" d="M640 327L640 330L635 330L635 331C639.111 331.507 641.953 332.188 645 329L640 329L640 327M532 328L533 329L532 328M531 329L532 330L531 329M676 329C673.261 333.224 667.57 332 663 332L663 333C677.893 333 693.32 335.414 706 343.696C717.534 351.23 726.138 364.679 740 363L740 364C724.415 366.696 731.758 390.612 723 401L718 394L716 398L715 398L713 396L712 400L701 394L700 397C695.042 394.31 690.312 394.653 688 389L695 388C704.592 377.297 714.865 382.693 726 386C728.239 380.962 731.928 371.494 728.971 366.174C726.217 361.217 719.757 359.833 715 357.688C701.349 351.534 689.639 347.005 675 344L681 351L677 353L676 353L675 349L666 347L666 348L669 349L672 357L672 358L673 371L673 372C682.819 383.58 669.941 400.006 667 412C663.202 412.47 663.233 416.563 663 420L660 419L661 422L658 423L659 427L656 430L652 429L650 426L651 423L649 423L652 419L652 418L647 418L644 424L645 431L646 431C646 427.101 649.374 430.545 651 432L648 432L651 438L649 442L646 442L635 470C618.411 457.537 634.092 440.757 628.307 426.318C627.053 423.189 621.646 424.022 619 422.914C611.268 419.678 605.533 413.474 597 412L596 478L602 477L602 478L596 485C635.581 489.421 676.408 476.044 716 481C716.482 472.878 712.136 472.006 705 472L705 471L716 471L716 470C711.724 465.488 708.957 447.853 702 462L701 462L700 447L708 451L706 434C699.079 430.012 694.502 407.888 694 400C700.031 401.775 700.506 406.935 703 412L704 412L703 406L706 402C713.931 406.34 715.64 419.151 719 427L716 425L719 430C720.945 420.574 718.255 416.026 716 407L722 400L723 404L725 402L728 404L729 409L730 408L728 405C731.753 407.433 730.945 411.02 730 415L739 408L737 420L746 411L751 423L757 457L764 470C777.599 475.539 779.139 464.876 790.999 463.763C801.02 462.823 799.478 479.396 797 485L797 486L799 489L796 487C794.371 493.873 790.652 500.702 791.303 508C792.786 524.622 812.001 517.51 822 519.772C828.508 521.245 830.403 526.273 834 531C838.122 524.817 842.464 519.884 850 518C854.587 516.853 864.918 515.329 864 519L867 518L859 526L855 525L857 527L857 528L846 532C840.941 538.981 832.733 545.29 825 549L825 550C843.133 550 849.039 537.563 863 528C857.316 535.992 848.524 544.14 840 549L840 550L881 550L881 549L873 547L875 544L877 546L878 546L889 550L882 539L881 533L885 529L886 529L889 535C887.532 528.328 883.666 519.599 876 522C874.004 514.079 871.46 502.378 864 498L865 508L862 508L862 509L866 514L856 513L858 511L858 506L854 501L861 506L859 500L852 495L861 496L861 493L858 490C849.095 492.582 840.358 471.62 833 466L832 470L829 467L822 470C818.936 483.359 805.344 495.65 796 505L817.402 477L825 468L827 465C819.938 454.976 809.393 450.527 799 445L798 440L797 440L796 457L798 462C785.371 456.133 780.255 473.39 767 468L767 466L771 465L772 468C793.462 460.877 790.821 445.229 797 428C791.676 427.59 777.236 415.293 778 410L778 409C758.037 407.116 763.672 375.895 741 381L743 375L746 376C748.054 366.525 741.982 359.679 735.664 353.454C727.397 345.309 710.287 336.637 699 333.919C691.464 332.104 683.138 332.025 676 329z"/>
<path style="fill:#1f1715; stroke:none;" d="M629 330C636.974 345.37 656.572 340.514 671 342.286C693.558 345.057 711.75 354.926 731 366C707.476 328.392 665.762 337.588 629 330z"/>
<path style="fill:#916951; stroke:none;" d="M691.667 331.333L692.333 331.667L691.667 331.333M416 332L410 350L411 350C413.663 345.315 417.856 337.35 416 332M694.667 332.333L695.333 332.667L694.667 332.333z"/>
<path style="fill:#5f4335; stroke:none;" d="M607 334L608 338L614 338L607 334z"/>
<path style="fill:#916951; stroke:none;" d="M486 336L483 340C483.454 348.639 478.693 361.384 484 368L481 366C483.29 371.524 486.422 377.854 493 378L500 382L499 384C506.127 378.311 497.75 361.673 496.71 354C496.146 349.841 495.824 345.566 491 345L492 342L486 336z"/>
<path style="fill:#5f4335; stroke:none;" d="M633 336L634 337L633 336z"/>
<path style="fill:#39473d; stroke:none;" d="M392 337L362 347L363 350L399 341L397 350L400 351L400 353L392 360L393 370L394 370L395 359L401 359L403 340L392 337z"/>
<path style="fill:#5f4335; stroke:none;" d="M632 337L633 338L632 337M634 337L635 338L634 337M629 338L634 347L629 345L630 351C623.749 352.364 616.824 358.295 611 353L614 354L613 350L607 358L612 358L612 362L613 366L613 367C617.112 371.842 627.58 378.54 632 371C629.067 369.099 625.038 356.698 631.041 356.117C633.595 355.87 636.782 359.859 639 361L640 356L642 361L639 361L640 364C645.7 367.138 647.691 370.722 646 377L650 377L648 373L649 373L650 373L655 385L656 385L656 380L657 380L666 407L641 401L646 420C639.223 422.808 635.583 425.403 628 424C630.083 437.084 619.133 462.179 635 470C641.348 462.093 645.127 452.245 646 442L649 442L651 438L648 432L651 432C649.557 430.357 646.564 427.69 646 431L645 431L644 424C647.311 423.027 647.389 421.261 647 418L652 418L652 419L649 423L651 423L650 426L652 429L656 430L659 427L658 423L661 422L660 419L663 420C663.325 416.902 663.466 412.518 667 412C670.679 402.418 683.928 380.532 673 372L673 371L672 358L672 357L669 349L666 348L666 347L675 349L676 353L677 353L681 351L675 344L693 347L693 346L636 339L640 347L639 347L636 341L634 343L629 338M635 338L636 339L635 338M633 339L635 341L633 339z"/>
<path style="fill:#1f1715; stroke:none;" d="M399 340L400 341L399 340M398 341L393 346L395 342L360 353.046L349 360L346 359L345 362L333 365L333 366L341 362L362 359L360 356L366 354L365 357L366 357L372 354L367 356L368 359L358 359L355 362L354 362L355 359L352 360L353 363C340.343 363.552 323.66 366.637 314.043 375.301C307.224 381.445 303.442 390.609 296 396L296 400L301 399C304.823 391.159 317.417 383.884 326 383L325 381L332 383L328 383L329 387C326.753 385.5 326.274 385.614 325 388L328 387L326 393L324 391L323 391L320 393L321 402L325 403C323.039 411.109 318.815 425.173 313 431L317 411L306 428L311 408L310 408L305 421L303 419L298 423L302 410L301 410L296 416L296 412L295 412L293 438C285.962 438.793 286.598 443.188 285 449L288 450L288 452C282.569 454.345 282.633 457.585 283 463C275.326 464.886 276.397 471.322 283 474L282 478L281 478L281 474L280 474C277.187 477.912 275.786 480.469 278 485L275 484C274.401 489.7 275.519 491.659 279 496L276 495L276 504C269.7 502.096 263.292 500.724 262 509L261 509L262 499L261 499C255.741 502.932 252.579 514.463 259 519L260 509L261 509L267 514L265 517L266 518C272.142 515.374 275.451 518.518 281 521L279 523L280 524L281 522L282 522C281.084 525.811 279.801 527.828 276 529L278 525C274.597 525.729 275.013 527.806 275 531L267 534L262 550L342 550L342 549L324 544L329 532L330 532L329 540L330 540L330 537L334 538L333 541L334 542L338 539L346 542L339 544L339 545C344.721 547.917 349.17 550.874 355 547C356.103 552.149 366.615 550 371 550L422 550L422 543L423 543L423 545L424 545L427 535L421 539C416.507 533.859 405.424 539.52 400 541L400 540L406 537L395 535L394 535L387 539L381 543L378 547L390 531L383 539L382 539L388 524C393.94 522.027 390.644 517.673 388 514L390 515L388 506L371 504C376.408 499.881 385.486 501 392 501C410.012 501 426.337 504.46 444 506L444 505C434.036 499.777 421.903 500.869 411 499.83C400.648 498.844 389.353 496.352 379 498L378 495L374 496L383 493L383 492C369.428 489.479 351.248 488.489 339 496L336 494L350.279 471L359 439L355.174 467L356 489L368 489C366.627 483.444 362.038 475 363.258 469.325C364.584 463.154 378.22 456.621 383.867 459.448C390.681 462.859 390.845 472.525 400 474.076C417.749 477.084 428.434 461.028 443.285 478.335C445.487 480.901 447.564 482.919 449 486C461.799 487.876 474.372 510.967 487 505L487 504L480 501L486 498L485 495L487 491L489 492C487.907 466.543 475.001 455.604 460 437L462 438C452.988 427.088 435.208 424.802 427.462 412.91C422.913 405.926 440.391 396.289 429.539 389.179C421.859 384.147 410.326 392.229 403 388L402 388L400 390L400 391L403 391L403 392L391 399L389 404L369 415L386 401L386 386L391 379L387 375L379 378L380 375L378 376L378 375L381 375C384.659 363.875 398.676 353.185 398 341z"/>
<path style="fill:#5f4335; stroke:none;" d="M393 346L397 342L393 346z"/>
<path style="fill:#916951; stroke:none;" d="M482 342L483 343L482 342M650 343L657 352L658 352L660 348L650 343z"/>
<path style="fill:#c5a377; stroke:none;" d="M459 345L471 370L469 379C478.924 372.642 475.123 379.982 483.019 381.922C504.203 387.125 524.534 409.414 525 432L526 432L531 404L525 410L525 394L515 401L519 391C501.22 395.494 484.637 372.761 474.76 360.826C470.065 355.154 468.091 342.586 459 345M487 345L490 377C497.823 370.167 498.473 348.768 487 345z"/>
<path style="fill:#5f4335; stroke:none;" d="M613 349L613 350C617.332 350.508 623.225 348.485 626 345L613 349M392 346C380.238 358.325 368.731 378.577 364 395L365 395L383.065 361L392 346M693 347L693 348L700 350L700 349L693 347z"/>
<path style="fill:#c5a377; stroke:none;" d="M334 362L334 363C341.643 361.684 362.734 355.227 367 349C355.671 349.687 343.868 356.604 334 362z"/>
<path style="fill:#5f4335; stroke:none;" d="M700 350L700 351L704 352L704 351L700 350M704.667 352.333L705.333 352.667L704.667 352.333M357.667 353.333L358.333 353.667L357.667 353.333M366 357L365 357L366 354L360 356L362 359L341 362L331 365L331 366L353 363L355 359L354 362L355 362L358 359C358.592 362.475 365.266 359.549 368 359L367 356L372 354C368.686 353.501 367.62 354.059 366 357M706 353L706 354L722 360L722 359L706 353M355.667 354.333L356.333 354.667L355.667 354.333M353.667 355.333L354.333 355.667L353.667 355.333M722 355L723 356L722 355M355 356L356 357L355 356M723 356L724 357L723 356M348.667 357.333L349.333 357.667L348.667 357.333M724 357L725 358L724 357M346 358L349 360L346 358M725 358L726 359L725 358M342 361L346 359L342 361z"/>
<path style="fill:#39473d; stroke:none;" d="M567 359L561 385L558 384L554 386L556 391L552 389L552 390L558 391L562 394L563 390L566 390L564 384L566 383L569 384L567 375L569 375L567 359z"/>
<path style="fill:#5f4335; stroke:none;" d="M726 359L727 360L726 359z"/>
<path style="fill:#1f1715; stroke:none;" d="M475 360L476 361L475 360z"/>
<path style="fill:#5f4335; stroke:none;" d="M722.667 360.333L723.333 360.667L722.667 360.333M727 360L728 361L727 360M339.667 361.333L340.333 361.667L339.667 361.333M356 361L357 362L356 361z"/>
<path style="fill:#39473d; stroke:none;" d="M530 361L531 362L530 361z"/>
<path style="fill:#5f4335; stroke:none;" d="M724 361L725 362L724 361M728.333 361.667L728.667 362.333L728.333 361.667M337.667 362.333L338.333 362.667L337.667 362.333z"/>
<path style="fill:#916951; stroke:none;" d="M424 363L432 376L420 379L421 382L418 381L421 384L417 387C424.165 387.001 433.242 386.816 437 394C433.065 396.058 424.433 407.297 426.172 411.961C430.48 423.513 452.931 429.369 461.782 437.289C469.244 443.967 476.327 454.442 481.536 463C483.962 466.986 484.996 472.487 489 475C488.961 461.497 475.238 443.153 468.63 431C465.085 424.482 459.697 417.343 463 410L460 412L460 405L457 407C453.549 392.091 443.254 360.097 424 363z"/>
<path style="fill:#39473d; stroke:none;" d="M531 362L532 363L531 362z"/>
<path style="fill:#5f4335; stroke:none;" d="M725 362L726 363L725 362M740 362L741 363L740 362M335.667 363.333L336.333 363.667L335.667 363.333z"/>
<path style="fill:#39473d; stroke:none;" d="M515 365L518 363L515 365M532.333 363.667L532.667 364.333L532.333 363.667z"/>
<path style="fill:#5f4335; stroke:none;" d="M726 363L727 364L726 363M729 363L730 364L729 363M726 393L727 393C729.747 382.386 727.787 367.378 740 364C727.413 359.237 726.964 385.376 726 393M333 364L334 365L333 364M639 364L640 365L639 364M728 364L729 365L728 364M730 364L731 365L730 364z"/>
<path style="fill:#916951; stroke:none;" d="M403 365L401 367L405 372L404 375L405 375L406 365L403 365z"/>
<path style="fill:#39473d; stroke:none;" d="M514 365L515 366L514 365M533.333 365.667L533.667 366.333L533.333 365.667z"/>
<path style="fill:#5f4335; stroke:none;" d="M612 365L613 366L612 365M729 365L730 366L729 365z"/>
<path style="fill:#1f1715; stroke:none;" d="M746 365C747.93 376.352 753.584 379.889 759.146 389.001C762.69 394.808 761.336 400.938 769 403C772.112 394.591 762.09 388.022 757.544 381.742C753.302 375.882 751.785 369.986 746 365z"/>
<path style="fill:#39473d; stroke:none;" d="M512.667 366.333L513.333 366.667L512.667 366.333M511 367L512 368L511 367M534 367L536 375L537 375L534 367M536 367L537 368L536 367M510 368L511 369L510 368z"/>
<path style="fill:#5f4335; stroke:none;" d="M746.333 368.667L746.667 369.333L746.333 368.667z"/>
<path style="fill:#39473d; stroke:none;" d="M509 369L510 370L509 369z"/>
<path style="fill:#5f4335; stroke:none;" d="M645 369L647 372L647 369L645 369z"/>
<path style="fill:#39473d; stroke:none;" d="M383 372L395 380L397 376C391.884 373.025 389.097 369.607 383 372M508 370L507 373L508 370z"/>
<path style="fill:#5f4335; stroke:none;" d="M747 370L746 376L743 375L741 381C747.795 379.973 750.429 376.451 747 370z"/>
<path style="fill:#c5a377; stroke:none;" d="M470 371L471 372L470 371z"/>
<path style="fill:#39473d; stroke:none;" d="M382 373L383 374L382 373z"/>
<path style="fill:#5f4335; stroke:none;" d="M644 373L645 376L646 376L644 373z"/>
<path style="fill:#1f1715; stroke:none;" d="M461 414L470 408L473 414L476 396C479.072 399.954 480.998 405.563 486 401L493 419L498 415L495 407L516 407C508.926 393.478 494.572 388.12 482.483 381.643C478.798 379.668 477.805 371.311 472.317 376.449C467.59 380.874 470.122 390.324 469.345 396C468.376 403.074 464.061 407.847 461 414z"/>
<path style="fill:#39473d; stroke:none;" d="M537.333 375.667L537.667 376.333L537.333 375.667z"/>
<path style="fill:#5f4335; stroke:none;" d="M642 376L642 383L636 385L636 386L649 395L650 395L650 385L651 378L650 378L649 380L642 376z"/>
<path style="fill:#916951; stroke:none;" d="M504 377L505 378L504 377z"/>
<path style="fill:#39473d; stroke:none;" d="M538.333 377.667L538.667 378.333L538.333 377.667z"/>
<path style="fill:#916951; stroke:none;" d="M503 378L505 381L503 378z"/>
<path style="fill:#c5a377; stroke:none;" d="M468 379L469 384L470 384L468 379z"/>
<path style="fill:#39473d; stroke:none;" d="M539.333 379.667L539.667 380.333L539.333 379.667z"/>
<path style="fill:#5f4335; stroke:none;" d="M749 379L750 380L749 379z"/>
<path style="fill:#916951; stroke:none;" d="M492 380L493 381L492 380z"/>
<path style="fill:#c5a377; stroke:none;" d="M695 388L688 389C689.658 395.143 694.596 394.998 700 397L701 394L712 400L713 396L715 398L716 398L718 394L723 401C728.032 396.763 726.891 390.11 727 384C722.736 385.358 720.917 382.418 717 381.309C709.828 379.278 698.984 381.545 695 388z"/>
<path style="fill:#5f4335; stroke:none;" d="M750 380L751 381L750 380M325 381L326 383L314 387L314 388L317 389C313.637 394.064 307.572 402.432 302 396L301 396L300 404L295 403L288 412C285.07 420.677 284.827 446.124 274 448L275 460L277 459L277 460L269.968 494.957L261 509L262 509C264.193 501.283 269.605 502.909 276 504L276 495L279 496L275 484L278 485L280 474L281 474L281 478L282 478L283 474C277.077 470.472 275.907 465.84 283 463C282.931 457.77 283.42 454.929 288 452L288 450L285 449C287.156 443.676 286.472 439.337 293 438L295 412L296 412L296 416L301 410L302 410C300.335 415.471 295.673 416.746 298 423L305 421L310 408L311 408L306 428L317 411L313 431C318.746 427.188 324.237 409.997 325 403L321 402L320 393L326 393L328 387L325 388L326 385L329 387L328 383L332 383L325 381z"/>
<path style="fill:#39473d; stroke:none;" d="M486 381L487 382L486 381z"/>
<path style="fill:#916951; stroke:none;" d="M493 381L494 382L493 381z"/>
<path style="fill:#39473d; stroke:none;" d="M484.667 382.333L485.333 382.667L484.667 382.333M487 382L487 383L495 386L487 382z"/>
<path style="fill:#916951; stroke:none;" d="M494 382L495 383L494 382z"/>
<path style="fill:#39473d; stroke:none;" d="M533 382L524 392L523 386L522 386L515 389L513 393L519 391L515 401L525 394L525 410L531 404L526 432L525 432L525 425L524 425C524.028 438.213 524.463 454.541 529 467L530 467L529 456L530 456L532 468L529 468C530.639 474.791 529.835 487.173 538 489L538 476C542.628 475.361 546.878 453.524 546 449C550.018 448.369 550.682 440.476 551.861 437C555.183 427.205 564.367 405.688 551 400L549 404L541 389L540 389L539 399L538 399L535 382L533 382z"/>
<path style="fill:#916951; stroke:none;" d="M495.667 383.333L496.333 383.667L495.667 383.333z"/>
<path style="fill:#5f4335; stroke:none;" d="M576 383L584 394L579 389L576 383z"/>
<path style="fill:#916951; stroke:none;" d="M497 384L498 385L497 384M498 385L499 386L498 385z"/>
<path style="fill:#5f4335; stroke:none;" d="M656 385L656 387L658 387L658 385L656 385z"/>
<path style="fill:#c5a377; stroke:none;" d="M735 385L734 405C750.904 398.586 753.956 430.206 758 441L759 441L748 395L737 399L736 398L735 385z"/>
<path style="fill:#39473d; stroke:none;" d="M457 386L459 394L459 386L457 386M495 386L496 387L495 386z"/>
<path style="fill:#916951; stroke:none;" d="M499 386L500 387L499 386z"/>
<path style="fill:#5f4335; stroke:none;" d="M329 387L330 388L329 387z"/>
<path style="fill:#39473d; stroke:none;" d="M496 387L497 388L496 387z"/>
<path style="fill:#916951; stroke:none;" d="M500.667 387.333L501.333 387.667L500.667 387.333z"/>
<path style="fill:#39473d; stroke:none;" d="M317 389C301.808 385.331 300.739 408.284 313.606 394.424C315.156 392.755 316.061 391.042 317 389z"/>
<path style="fill:#5f4335; stroke:none;" d="M429.667 388.333L430.333 388.667L429.667 388.333z"/>
<path style="fill:#39473d; stroke:none;" d="M497 388L500 390L497 388z"/>
<path style="fill:#916951; stroke:none;" d="M579 388L580 389L579 388z"/>
<path style="fill:#5f4335; stroke:none;" d="M431 389C432.041 392.567 433.252 393.838 437 394L431 389z"/>
<path style="fill:#916951; stroke:none;" d="M580 389L583 392L580 389z"/>
<path style="fill:#39473d; stroke:none;" d="M500 390L501 391L500 390z"/>
<path style="fill:#1f1715; stroke:none;" d="M392 399L400 391L392 399z"/>
<path style="fill:#39473d; stroke:none;" d="M501 391L502 392L501 391z"/>
<path style="fill:#c5a377; stroke:none;" d="M687 391C674.643 399.578 672.674 416.922 670.884 431C670.112 437.075 670.295 446.351 666 451L666 448L665 448L662 455L661 455L661 452L660 452L660 458L657 462L656 462L656 460L655 460L657 464C653.859 464.946 652.931 465.707 653 469L646 471L646 467L645 467L643 472L661 472L661 473L648 475L648 478L649 479L653 477L654 477L656 479L655 475L657 479L664 477L669 473L669 472L662 472L662 471L673 470L673 469L669 460L676 459L678 417L682 429L685 431L686 431L683.129 408L687 391z"/>
<path style="fill:#39473d; stroke:none;" d="M502 392L503 393L502 392z"/>
<path style="fill:#916951; stroke:none;" d="M583 392L584 393L583 392z"/>
<path style="fill:#39473d; stroke:none;" d="M503.333 393.667L503.667 394.333L503.333 393.667z"/>
<path style="fill:#916951; stroke:none;" d="M584 393L594 408L598 408L584 393z"/>
<path style="fill:#5f4335; stroke:none;" d="M581 395L581 396L584 396L581 395M433 395L434 396L433 395z"/>
<path style="fill:#39473d; stroke:none;" d="M476 396L473 414L470 408C460.302 409.51 464.369 417.543 467.246 423.715C474.041 438.29 482.46 451.941 488 467L489 467L494 429L493 429L484 444L483 444L481 413L494 423L495 423L497 419L497 418L493 419L486 401C480.761 404.304 479.566 399.242 476 396z"/>
<path style="fill:#5f4335; stroke:none;" d="M569 402L574 400L572 403C573.656 405.683 580.4 410.321 580.883 403.941C581.505 395.71 571.894 396.265 569 402M585 396L586 397L585 396M587 396L588 397L587 396z"/>
<path style="fill:#ffffff; stroke:none;" d="M297 397L298 398L297 397z"/>
<path style="fill:#5f4335; stroke:none;" d="M586 397L587 398L586 397M588 397L589 398L588 397z"/>
<path style="fill:#39473d; stroke:none;" d="M295 403L300 404L300 398L295 403z"/>
<path style="fill:#5f4335; stroke:none;" d="M587 398L588 399L587 398M589 398L590 399L589 398M720.333 398.667L720.667 399.333L720.333 398.667z"/>
<path style="fill:#39473d; stroke:none;" d="M771 398C770.288 399.804 769.225 401.678 770.154 403.629C771.699 406.876 776.421 408.883 778.996 411.26C784.592 416.425 787.728 427.343 796 428C791.966 417.93 779.928 404.011 771 398z"/>
<path style="fill:#5f4335; stroke:none;" d="M586 399L588 401L586 399M588 399L589 400L588 399M590 399L591 400L590 399z"/>
<path style="fill:#c5a377; stroke:none;" d="M726.333 399.667L726.667 400.333L726.333 399.667z"/>
<path style="fill:#39473d; stroke:none;" d="M303 400L302 402L303 400z"/>
<path style="fill:#5f4335; stroke:none;" d="M589 400L590 401L589 400M591 400L592 401L591 400M694 400C694.207 407.17 699.025 431.581 706 434L708 451L700 447L701 462L702 462C710.885 449.424 710.268 465.882 716 470L716 471L705 471L705 472L715 475C722.615 470.18 725.246 450.646 726 442L727 442L722 476L730.505 459L744 421C754.009 430.18 749.013 443.721 749.459 456C749.741 463.749 751.321 477.331 753.803 484.669C755.254 488.959 758.67 492.764 759.698 497.09C762.267 507.904 760.793 520.752 765.554 531C767.63 535.467 777.507 548.351 782.133 549.682C787.394 551.196 797.362 550.717 798.474 543.91C798.933 541.099 796.65 538.02 798.592 535.498C800.912 532.485 819.434 526.072 822.999 526.462C837.716 528.074 820.895 545.148 819 550C828.954 549.76 841.641 540.928 846 532C850.864 532.769 857.343 530.948 855 525L859 526L867 518L864 519C863.365 514.77 857.138 517.021 854 517.588C844.948 519.222 838.048 522.204 834 531C831.067 525.531 828.732 520.785 822.039 519.441C811.713 517.367 795.493 524.284 791.742 509C789.934 501.631 794.941 494.072 796 487L799 489L797 486L797 485C800.971 479.689 800.816 463.899 791.996 463.397C786.03 463.057 782.018 469.178 777 471.344C772.35 473.351 768.484 471.276 764 470L756.018 450.996L752.561 425L745.907 412.461L737 420L739 408L730 415C731.273 411.517 732.505 405.965 728 405L730 408L729 409L728 404L723 404L722 400L716 407L719 430L716 425L719 427C716.889 419.806 713.743 404.55 706 402L703 406L704 412C700.761 407.118 700.599 401.068 694 400M587 402L593 407C590.373 418.417 592.675 428.295 593 440C593.203 447.311 591.065 456.033 592.694 463C593.759 467.554 589.704 477.865 595 479L595 480L590 482L596 487L596 488C589.235 490.253 594.448 500.052 596.029 505C600.378 518.62 607.425 520.999 621 521L621 520C617.584 519.943 611.595 520.065 611 516L609 518L604 515L605 518L602 511L593 489L597 489C597.46 494.271 598.493 499.343 604 501L601 495L603 494L609 495L610 490L603 490L602 490L603 493L598 488C627.755 486.722 657.193 483 687 483C693.32 483 713.587 478.028 714 487L715 487L715 480C676.283 482.03 634.675 487.815 596 485L602 478L602 477L596 478L597.486 429L599 412L598 408L594 408C593.814 403.629 591.478 401.114 587 402M592 401L593 402L592 401M593 402L594 403L593 402M766 402L767 403L766 402M360 403L353 417C356.891 413.752 360.436 408.245 360 403z"/>
<path style="fill:#c5a377; stroke:none;" d="M466 403L460 412C463.141 409.761 466.834 407.159 466 403z"/>
<path style="fill:#5f4335; stroke:none;" d="M594 403L595 404L594 403M730 403L732 405L732 403L730 403M767.667 403.333L768.333 403.667L767.667 403.333M595 404L596 405L595 404M769 404L770 405L769 404M596 405L597 406L596 405M770 405L776 410L770 405M434 406C435.641 416.511 447.794 410.831 444 407C443.49 411.343 438.483 410.396 439 407L434 406M597 406L598 407L597 406z"/>
<path style="fill:#ffffff; stroke:none;" d="M495 407L498 415C493.653 422.951 495.233 429.436 493.741 437.91C491.295 451.8 486.185 463.784 490.29 478.285C491.657 483.115 490.124 490.15 494.722 493.566C498.131 496.097 501.107 493.448 504.615 492.978C510.706 492.16 517.8 493.004 524 493C527.383 483.529 528.727 462.382 518 457L518 456C524.406 451.846 516.041 441.894 523 435C522.904 426.811 527.337 414.007 518.505 408.314C513.01 404.772 501.358 407.079 495 407z"/>
<path style="fill:#5f4335; stroke:none;" d="M739 407L740 408L739 407z"/>
<path style="fill:#39473d; stroke:none;" d="M464 408L465 409L464 408z"/>
<path style="fill:#5f4335; stroke:none;" d="M590 408L591 409L590 408M330 409L337.764 433.09L335 472L336 472C337.354 454.844 349.078 420.219 330 409z"/>
<path style="fill:#39473d; stroke:none;" d="M463 409L464 410L463 409z"/>
<path style="fill:#5f4335; stroke:none;" d="M587 410C576.858 418.866 562.563 429.519 557 442L558 442L580.999 419.035L587 410M589 412L592 411L589 412M776 410L784 418C782.53 413.691 780.422 411.252 776 410M459 412L460 413L459 412M461 412L462 413L461 412z"/>
<path style="fill:#1f1715; stroke:none;" d="M586 412L585 414L586 412z"/>
<path style="fill:#5f4335; stroke:none;" d="M460 413L473.111 440L481 452L484 463L485 463L481 453L484 455L463 413L460 413z"/>
<path style="fill:#c5a377; stroke:none;" d="M467 413C467.38 417.655 467.939 423.218 472 426L467 413M481 413L483 444C492.417 434.167 500.476 416.768 481 413z"/>
<path style="fill:#5f4335; stroke:none;" d="M784 418L785 419L784 418M785 419L786 420L785 419M786 420L787 421L786 420M787.333 421.667L787.667 422.333L787.333 421.667M301 433L305 430L302 431L304 427L301 428L303 422C297.243 423.912 300.31 428.503 301 433M789 422L791 424L789 422M788 423L789 424L788 423z"/>
<path style="fill:#916951; stroke:none;" d="M708 424L711 447L715 450L716 450L708 424z"/>
<path style="fill:#5f4335; stroke:none;" d="M789 424L790 425L789 424M576 425L558.055 443.001L545 473L551 465L553 467L563 446L559 462C570.75 456.203 568.045 437.229 577 428L579 459L578 459L575 457L578 466C570.038 453.214 560.888 475.266 558 482L563 487L551 487L558 493L557 498L557 499L563 499L570 499L571 496L572 496L573 500L562 512L566 502L562 501C560.464 504.456 559.431 507.218 556 504L552 508L557 536L561.875 522L573 503L574 503L568 550L601 550L599 536C594.31 537.341 579.948 544.331 575.788 539.382C573.204 536.308 577.462 529.014 578.716 526C582.754 516.293 583.097 504.375 582 494L576 495L576 500L575 500L575 494L569 494L569 493L571 492L569 488L572 489C573.617 486.305 575.659 486.365 575 489L579 487L576 494C578.336 492.748 585.236 487.046 579.681 484.912C576.192 483.572 570.652 485.711 567 486L572 479L572 478L567 480C568.33 475.526 570.035 472.217 575 472L574 476L578 475C577.336 478.857 577.943 480.537 581 483L579.086 442L576 425z"/>
<path style="fill:#39473d; stroke:none;" d="M282 428L277 447C282.573 443.529 284.473 433.896 282 428z"/>
<path style="fill:#916951; stroke:none;" d="M576 428C566.722 437.945 570.378 453.625 559 462L563 446L553 467L551 465C532.847 491.69 555.039 521.439 553 550L560 550L555 518L552 519C550.999 516.293 549.077 512.578 553 512L552 508L556 504L557 507L562 501L566 502L562 512L573 500L572 496L571 496L570 499L563 499L563 497L557 499L557 498L559 497L558 493L551 487L563 487L558 482C561.979 475.439 569.128 455.132 578 466L575 457L578 459L579 459L576 428z"/>
<path style="fill:#c5a377; stroke:none;" d="M605 430C605.152 438.517 602.183 458.284 611 463C610.305 453.579 611.399 437.565 605 430M795 430C795.65 448.064 788.25 459.902 772 468L771 465L767 466L767 468C780.065 475.317 784.868 457.441 798 462L796 457L797 440L798 440L799 445L827 465C824.525 465.513 824.425 465.604 825 468L822 467L804.112 492.996L796 505C805.855 498.053 820.373 482.431 822 470L829 467L832 470L834 465L808.651 440.091L795 430z"/>
<path style="fill:#5f4335; stroke:none;" d="M461 436L462 437L461 436M460 437L465 440L460 437M357 438L358 439L357 438z"/>
<path style="fill:#39473d; stroke:none;" d="M518 444L519 444L521 444L522 444L524 441L523 438C519.536 438.978 518.518 440.474 518 444z"/>
<path style="fill:#5f4335; stroke:none;" d="M358 439L352.5 462L344 484L350 475C354.022 479.056 350.24 483.846 350 489L355 490L353 491L353 492L383 492L383 493L374 496L378 495L379 498C398.798 496.826 425.456 497.859 444 505L444 506C425.873 503.335 409.465 501 391 501C385.461 501 374.921 499.49 371 504L388 506L390 515L388 514L388 515C390.752 518.582 392.693 521.379 388 524L382 539L383 539L390 531L378 547L381 543L387 539C390.698 539.429 392.761 538.616 394 535L395 535L406 537L400 540L400 541C406.482 539.885 415.037 534.506 421 539L422 539L430 519L429 545L428 545L428 542L427 542L428 550L432 550L435 542L431 544L434 534L434 539L435 539L438 531L439 531L439 537L444 532L443 524L438 526L438 521L441 520L439 517C442.962 516.133 440.984 513.082 440 510L436 512L445 507L446 500L460 504L460 503L431 492L431 491L435 490L435 489L433 487L431 488L431 487L432 484L430 484L430 472L442 476C430.381 460.397 414.777 476.463 400.424 473.937C391.497 472.365 390.816 461.869 383.867 459.036C377.692 456.518 364.645 462.437 363.052 469.076C361.623 475.032 366.224 483.434 368 489L356 489C357.226 482.149 354.565 475.896 355.09 469C355.723 460.681 364.258 446.441 358 439M768 448L768 449L777 439L768 448M465 440L466 441L465 440z"/>
<path style="fill:#1f1715; stroke:none;" d="M528 440L529 455L530 455L528 440z"/>
<path style="fill:#5f4335; stroke:none;" d="M464 441L465 442L464 441z"/>
<path style="fill:#916951; stroke:none;" d="M774 441L775 442L774 441z"/>
<path style="fill:#5f4335; stroke:none;" d="M465 442L466 443L465 442M466 443L467 444L466 443M467 444L468 445L467 444z"/>
<path style="fill:#c5a377; stroke:none;" d="M574 444C571.665 448.844 568.132 456.926 574 460L576 450L574 444M781 444L774 461C781.215 457.226 783.925 451.884 783 444L781 444z"/>
<path style="fill:#5f4335; stroke:none;" d="M468 445L469 446L468 445M469 446L470 447L469 446M470 447L471 448L470 447M471 448L472 449L471 448z"/>
<path style="fill:#c5a377; stroke:none;" d="M274 452L262 490L256 492C267.237 490.063 265.814 482.845 269.348 474C271.447 468.746 275.178 464.268 277 459L275 460L276 452L274 452z"/>
<path style="fill:#1f1715; stroke:none;" d="M480 452L481 453L480 452M481 453L487 464L481 453z"/>
<path style="fill:#916951; stroke:none;" d="M660 455L661 456L660 455M377 460C377.335 469.445 380.556 472.007 386 479L395 483L394 480L402 479L402 480L399 481L399 488L397 486L396 486L395 486L389 488L389 489L405 489C404.679 487.076 408.239 478.429 405 476C401.804 473.603 389.136 478.454 391 471C383.887 471 387.91 458.277 377 460z"/>
<path style="fill:#c5a377; stroke:none;" d="M569 459L552 474L556 484L551 484C554.212 486.878 557.461 486.554 560 483L556 483L559 473L562 472L569 459M821 460L822 463L823 463L821 460z"/>
<path style="fill:#916951; stroke:none;" d="M569 464L576 470C574.689 465.869 573.622 463.6 569 464z"/>
<path style="fill:#5f4335; stroke:none;" d="M814 463L808 487C812.017 481.022 820.84 469.514 814 463z"/>
<path style="fill:#916951; stroke:none;" d="M272 466L272 469L273 469L272 466M271 469L265.361 486.972L256 494L268 494C268.195 490.135 268.576 479.648 273 479L271 469M273 469L274 470L273 469z"/>
<path style="fill:#5f4335; stroke:none;" d="M631 469L632 470L631 469z"/>
<path style="fill:#c5a377; stroke:none;" d="M829 469L831 474L832 474L829 469z"/>
<path style="fill:#916951; stroke:none;" d="M430 472L430 484L432 484L431 488L433 487L435 489L435 490L431 491L431 492L460 503L460 504L446 500L445 507C440.684 507.236 438.062 508.071 436 512L440 510L439 517L441 520L438 521L438 526L443 524L444 532L439 537L439 531L438 531L435 539L434 539L434 534L431 544L435 542L432 550L446 550L445 543L450 550L458 550L458 549L455 544C468.204 547.902 477.962 543.782 478 530L477 530L477 534L469 526C482.011 531.774 479.198 517.16 480 507L472 506L472 505L476 505L476 504C468.597 498.771 458.863 485.423 449 486C446.844 478.429 438.071 470.453 430 472M567 480L572 478L572 479L567 486L580 484L578 475L574 476L575 472C569.644 471.225 567.866 475.224 567 480z"/>
<path style="fill:#5f4335; stroke:none;" d="M631 474L631 475L661 473L631 474z"/>
<path style="fill:#916951; stroke:none;" d="M557 474L554 476L554 480L559 474L557 474z"/>
<path style="fill:#5f4335; stroke:none;" d="M699 474L700 477L688 476L676 478L676 479L715 479L715 478L710 478L710 474L709 474L709 477L704 474L704 477L699 474z"/>
<path style="fill:#39473d; stroke:none;" d="M350 475L342 490L355 491L355 490L350 489L352 475L350 475z"/>
<path style="fill:#5f4335; stroke:none;" d="M487 475L489 492L487 491L485 495L486 498L480 501L487 504L487 505L480 507L476 544L479 544L479 543L480 531L480 530C482.815 527.204 482.76 525.493 481 522C484.608 520.005 484.808 517.911 484 514L487 514L490.546 493L489 475L487 475M542 475L542 497L541 497L541 481L540 481C539.087 499.102 538.845 517.164 543.139 535C544.21 539.449 543.893 548.911 549 550L540 499L543 505L544 505C543.661 497.106 546.748 481.268 542 475z"/>
<path style="fill:#916951; stroke:none;" d="M652.333 475.667L652.667 476.333L652.333 475.667z"/>
<path style="fill:#5f4335; stroke:none;" d="M716 475L717 476L716 475M716 477L716 481L717 481L716 477z"/>
<path style="fill:#39473d; stroke:none;" d="M271 478L268 494L256 494L256 502L261 499L262 499L262 503L263 503C268.265 497.63 277.137 485.981 271 478z"/>
<path style="fill:#916951; stroke:none;" d="M541 480L541 497L542 497L541 480M663 485L665 484L665 485C659.083 488.375 649.715 488.712 643 488L643 490L636 489L636 487L648 486L648 485L598 488C598.728 491.351 599.597 492.412 603 493L602 490L603 490L610 490L609 495L603 494L601 495L604 501C599.093 498.547 597.77 494.207 597 489L593 489C594.351 495.546 596.141 507.159 602 511L605 518L604 515L611 516C611.577 520.664 619.955 520.52 624 521L624 520L622 520L622 519L630 520L630 521L627 521L627 522L631 523L636 521L634 524L647 528L645 524L655 528L653 530L657 531L657 530L655 530L655 529L660 530L658 532L661 533C661 530.564 661.786 531.385 664 532L669 537C669 533.915 671.558 535.55 674 536L674 533L678 533C677.876 529.525 680.985 529.079 684 529L683 526L688 523L696 526L695 523C700.987 523.617 722.123 519.95 723.639 512.895C724.821 507.393 719.762 498.85 717.513 494C716.19 491.145 715.971 484.886 713.376 482.988C707.523 478.709 691.038 483 684 483C678.627 483 666.702 480.764 663 485M808 483L809 484L808 483z"/>
<path style="fill:#39473d; stroke:none;" d="M847 483C849.115 488.042 850.991 491.986 857 491C854.477 486.934 851.786 483.996 847 483z"/>
<path style="fill:#c5a377; stroke:none;" d="M636 487L636 489L643 490L643 488C648.752 489.122 661.585 489.436 665 484L636 487M673 484L673 485L685 486L673 484z"/>
<path style="fill:#5f4335; stroke:none;" d="M343 485L336 494L339 496L350 492L342 490L343 485z"/>
<path style="fill:#1f1715; stroke:none;" d="M789 485L780 516L786 517C787.788 508.221 792.563 493.494 789 485z"/>
<path style="fill:#916951; stroke:none;" d="M572 489L569 488L569 493L569 494C574.585 493.934 577.808 492.84 579 487L575 489C575.018 486.347 573.094 487.092 572 489z"/>
<path style="fill:#39473d; stroke:none;" d="M267 488L268 489L267 488z"/>
<path style="fill:#916951; stroke:none;" d="M430 488L430 491L432 490L432 489L430 488z"/>
<path style="fill:#c5a377; stroke:none;" d="M688 489L687 497L688 497L695 488L688 489M629 499C630.657 504.422 635.944 506.593 639.999 510.184C647.74 517.04 650.77 525.317 662 527L645 508L648 496C650.844 502.61 650.473 509.793 657 514L657 504L662 503C662.77 506.819 665.383 506.883 669 507L668 501L664 504L666 498L663 489C649.811 490.525 640.705 493.057 629 499z"/>
<path style="fill:#1f1715; stroke:none;" d="M543 490L545 514L546 514L543 490z"/>
<path style="fill:#916951; stroke:none;" d="M560 490L558 492L558 493L563 495L562 490L560 490z"/>
<path style="fill:#39473d; stroke:none;" d="M504 492L510 499L504 492z"/>
<path style="fill:#5f4335; stroke:none;" d="M815 492L810 498L818 496L815 492z"/>
<path style="fill:#c5a377; stroke:none;" d="M811 507L817 507L817 508L803 512L805 507L795 510C800.463 520.254 808.078 513.255 816.424 513.906C823.128 514.429 828.94 520.096 833 525L834 525L828 492L811 507z"/>
<path style="fill:#916951; stroke:none;" d="M490 493L487 514L484 514L481 522L480 530L480 531C481.972 535.832 475.379 541.781 482 544L482 550C491.355 549.271 488 529.528 488 522L489 522L489 533L490 533L489 508L490 508L490 512L491 512L490 493z"/>
<path style="fill:#39473d; stroke:none;" d="M508 493C510.809 497.578 515.325 497.85 518 493L508 493z"/>
<path style="fill:#c5a377; stroke:none;" d="M852 495C853.672 498.386 855.194 499.833 859 500L861 506L854 501L858 506L856 513L866 514L862 508L865 508L865 507L863 495L852 495z"/>
<path style="fill:#5f4335; stroke:none;" d="M348 498L348 499L366 495C359.374 492.22 354.053 495.671 348 498z"/>
<path style="fill:#916951; stroke:none;" d="M432 494L432 495L443 500L436 499L445 504C444.364 496.69 438.745 494.593 432 494z"/>
<path style="fill:#5f4335; stroke:none;" d="M466 494L467 495L466 494z"/>
<path style="fill:#c5a377; stroke:none;" d="M860 494L861 495L860 494z"/>
<path style="fill:#39473d; stroke:none;" d="M341 499L341 500C345.61 499.864 350.181 498.878 353 495L341 499z"/>
<path style="fill:#5f4335; stroke:none;" d="M467 495L468 496L467 495M279 496L280 505C284.589 502.246 283.065 498.442 279 496M331 501L331 502L346 497L331 501M468.333 496.667L468.667 497.333L468.333 496.667z"/>
<path style="fill:#916951; stroke:none;" d="M648 496L645 508L657 521L648 496z"/>
<path style="fill:#5f4335; stroke:none;" d="M547 498L550 506L552 506L556 497L547 498M469 498L470 499L469 498z"/>
<path style="fill:#1f1715; stroke:none;" d="M338 499L339 500L338 499z"/>
<path style="fill:#5f4335; stroke:none;" d="M470 499L471 500L470 499z"/>
<path style="fill:#39473d; stroke:none;" d="M510 499L511 500L510 499z"/>
<path style="fill:#916951; stroke:none;" d="M540 499L546.08 536L551 550C549.984 537.567 546.376 525.303 544.439 513C543.666 508.087 544.61 501.955 540 499z"/>
<path style="fill:#5f4335; stroke:none;" d="M605 499L608 508L600 502C602.364 507.801 603.356 513.252 610 515L610 505L605 499z"/>
<path style="fill:#c5a377; stroke:none;" d="M707 499L714 506L712 499L707 499z"/>
<path style="fill:#916951; stroke:none;" d="M818 508L825 506L826 499L818 508z"/>
<path style="fill:#c5a377; stroke:none;" d="M852 499L852 501L854 501L852 499z"/>
<path style="fill:#5f4335; stroke:none;" d="M471 500L472 501L471 500M472 501L474 503L474 501L472 501z"/>
<path style="fill:#1f1715; stroke:none;" d="M574.333 501.667L574.667 502.333L574.333 501.667z"/>
<path style="fill:#5f4335; stroke:none;" d="M351 504L351 505L352 510L369 504L351 504z"/>
<path style="fill:#39473d; stroke:none;" d="M261.333 503.667L261.667 504.333L261.333 503.667z"/>
<path style="fill:#5f4335; stroke:none;" d="M474.667 503.333L475.333 503.667L474.667 503.333z"/>
<path style="fill:#1f1715; stroke:none;" d="M573 503C563.516 520.1 556.642 530.168 560 550L568 550L571.194 516L573 503z"/>
<path style="fill:#5f4335; stroke:none;" d="M332 512L340 509L340 514L337 512L335 515L336 521L331 526L336 523L334 530L331 528L330 532L333 537L335 535L339 534L334 534C335.478 526.38 337.502 513.079 347 513L345 506L348 506L349 507L348 509L349 509L350 504C345.246 504.919 333.07 506.983 332 512z"/>
<path style="fill:#39473d; stroke:none;" d="M350 504L349 509L348 509L348 506L345 506L347 513C337.392 512.5 334.865 526.147 334 534L343 537L353 505L350 504z"/>
<path style="fill:#1f1715; stroke:none;" d="M415 505L415 506L425 506L424 510L425 510L427 504L415 505z"/>
<path style="fill:#5f4335; stroke:none;" d="M472 505L472 506L480 507L478 504L472 505z"/>
<path style="fill:#916951; stroke:none;" d="M435 505L432 517L435 505z"/>
<path style="fill:#5f4335; stroke:none;" d="M545 505L551 550C554.724 547.507 552.956 543.053 552.775 539C552.466 532.062 549.336 526.615 547.961 520C546.863 514.721 547.838 509.821 545 505M423 506L424 509L425 509L425 506L423 506M468 506L468 507L472 507L468 506z"/>
<path style="fill:#1f1715; stroke:none;" d="M353 507L354 508L353 507z"/>
<path style="fill:#5f4335; stroke:none;" d="M359 508L358 516L361 516L362 528L359 520L358 520L355 547L356 547C356.773 541.742 357.378 534.776 363 533C363.788 523.863 368.574 515.508 364 507L359 508z"/>
<path style="fill:#916951; stroke:none;" d="M423.333 507.667L423.667 508.333L423.333 507.667z"/>
<path style="fill:#c5a377; stroke:none;" d="M624 507L625 512L620 512C622.834 516.015 632.236 517.043 637 517C633.575 511.991 630.377 507.482 624 507M872 507L876 522L881 520L881 518L872 507z"/>
<path style="fill:#916951; stroke:none;" d="M409 509L411 517L419 521L423 509L409 509z"/>
<path style="fill:#c5a377; stroke:none;" d="M489 508L489 522L490 522L489 508z"/>
<path style="fill:#916951; stroke:none;" d="M773 533L771 528L775 529L778 508C767.717 509.554 760.942 530.994 773 533z"/>
<path style="fill:#5f4335; stroke:none;" d="M260 509C260.618 512.587 262.236 517.197 266 518L267 514L260 509z"/>
<path style="fill:#c5a377; stroke:none;" d="M551 511C550.082 514.796 550.556 516.987 554 519L551 511z"/>
<path style="fill:#1f1715; stroke:none;" d="M657 511C655.366 520.905 659.869 525.885 669 529L673 523C662.584 526.551 660.691 518.616 657 511z"/>
<path style="fill:#39473d; stroke:none;" d="M260 512L262.698 533L261 546L263 546L265 532C270.011 529.312 273.802 526.963 274 521L270 519L267 520L263 518L260 512z"/>
<path style="fill:#5f4335; stroke:none;" d="M544.333 512.667L544.667 513.333L544.333 512.667z"/>
<path style="fill:#916951; stroke:none;" d="M802 512L803 513L802 512z"/>
<path style="fill:#c5a377; stroke:none;" d="M660 514L659 518L660 518L661 516L667 521L667 520L664 516L670 523L666 523L666 525C671.293 524.229 673.398 521.262 673 516L667 517L666 514L660 514M866 514L874.775 528L874 543L876 537L882 538C878.242 528.258 874.859 520.241 866 514z"/>
<path style="fill:#5f4335; stroke:none;" d="M267 520L270 519L274 521C273.552 526.798 269.267 528.656 265 532L263 546L261 546L261 519L257 517L256 517L260.415 535L259 550C264.67 548.114 267.325 539.553 267 534L275 531L278 525L276 529C280.254 528.278 281.439 526.15 282 522L281 522L280 524L279 523L281 521C276.575 518.208 269.322 512.443 267 520z"/>
<path style="fill:#39473d; stroke:none;" d="M359 515C358.48 519.733 358.481 524.554 362 528L359 515z"/>
<path style="fill:#916951; stroke:none;" d="M660 516C659.756 522.652 664.308 523.582 670 523L664 516L667 520L667 521L660 516z"/>
<path style="fill:#1f1715; stroke:none;" d="M432 518L432 521L433 521L432 518z"/>
<path style="fill:#5f4335; stroke:none;" d="M463 518L462 523L473 523C470.737 518.507 467.689 518.333 463 518z"/>
<path style="fill:#916951; stroke:none;" d="M430 519L422 539L427 535L425 550L428 550L430 519z"/>
<path style="fill:#c5a377; stroke:none;" d="M622 519L622 520L623 522L630 521L622 519M675 521L671 527L671 532C677.249 529.865 682.165 526.399 686 521L683 522C682.241 515.548 677.923 523.046 675 521z"/>
<path style="fill:#1f1715; stroke:none;" d="M431 521L428 545L429 545L431 521z"/>
<path style="fill:#c5a377; stroke:none;" d="M630 521C632.344 523.252 633.953 523.78 636 521L630 521M488 522L487 540L488 540L488 522M699.667 522.333L700.333 522.667L699.667 522.333z"/>
<path style="fill:#916951; stroke:none;" d="M256 523L260 538L261 538L258 523L256 523z"/>
<path style="fill:#c5a377; stroke:none;" d="M636 523L636 524L639 524L636 523z"/>
<path style="fill:#916951; stroke:none;" d="M670.667 523.333L671.333 523.667L670.667 523.333M675 523L676 524L675 523z"/>
<path style="fill:#c5a377; stroke:none;" d="M688 523L683 526L684 529C680.763 529.227 678.431 529.521 678 533L674 533L674 536L668 535C673.066 542.018 691.366 530.565 695 525L688 523M695 523L696 526L699 523L695 523M645 524C647.205 528.41 650.171 529.712 655 529L655 528L645 524z"/>
<path style="fill:#5f4335; stroke:none;" d="M346 525L343 537L348 541L346 525z"/>
<path style="fill:#916951; stroke:none;" d="M672 525L671 527L673 527L672 525z"/>
<path style="fill:#c5a377; stroke:none;" d="M469 526L477 534L478 529L469 526z"/>
<path style="fill:#39473d; stroke:none;" d="M511 526C506.313 535.95 519.171 532.916 511 526z"/>
<path style="fill:#1f1715; stroke:none;" d="M795 550C801.425 550 811.753 551.991 817.675 549.397C823.723 546.748 834.892 531.873 825.941 527.029C821.722 524.745 801.984 531.34 798.373 534.815C795.958 537.139 797.206 545.84 795 550z"/>
<path style="fill:#39473d; stroke:none;" d="M490 527L487 550L500 550C496.655 542.583 498.135 530.257 490 527z"/>
<path style="fill:#5f4335; stroke:none;" d="M699 528L699 529L704 530C703.32 533.304 702.755 539.45 699 540L697 550L711 550C710.549 544.476 710.39 536.066 704 535L705 529L699 528z"/>
<path style="fill:#c5a377; stroke:none;" d="M838 550C846.902 547.158 859.003 536.438 863 528C853.917 532.171 844.213 542.294 838 550M256 529C256 533.88 253.514 548.824 259 550C258.635 542.199 261.795 535.356 256 529M655 529L655 530L657 532L658 532L660 531L660 530L655 529z"/>
<path style="fill:#5f4335; stroke:none;" d="M678 537L678 538L698 530C691.486 528.513 683.452 533.818 678 537z"/>
<path style="fill:#916951; stroke:none;" d="M660 539C660.457 542.094 660.987 546.935 663.702 548.972C668.143 552.303 690.729 551.529 695.825 549.397C700.058 547.626 700.297 543.713 699 540C703.059 539.498 703.52 533.668 704 530C692.027 527.502 682.672 538.311 672 541.002C667.609 542.109 664.049 540.112 660 539M775 539C779.79 537.284 782.097 533.582 784 529C779.025 530.728 776.578 534.062 775 539z"/>
<path style="fill:#39473d; stroke:none;" d="M885 529C883.32 532.56 882.271 534.805 886 537L885 529M364 531C362.852 533.54 361.412 536.204 361.029 539C359.252 551.979 375.902 545.663 373 533L372 533L367 540L366 531L364 531z"/>
<path style="fill:#5f4335; stroke:none;" d="M601 532L603 547L604 547L603 533C612.293 532.176 607.358 545.706 613 550C612.599 544.96 608.367 535.375 613 532L601 532z"/>
<path style="fill:#916951; stroke:none;" d="M610 532L613 550L658 550C657.809 543.581 655.189 538.087 648 539L645 536L647 542L649 540L653 540L655 545C647.729 546.014 621.341 552.665 625 536C622.203 529.41 616.035 530.88 610 532z"/>
<path style="fill:#c5a377; stroke:none;" d="M623 531L625 536C622.109 539.364 628.25 545.027 631.3 546.761C637.888 550.507 648.113 546.973 655 545L653 540L647 542C644.268 533.075 631.243 531.656 623 531M660 531L663 534L664 533L660 531z"/>
<path style="fill:#5f4335; stroke:none;" d="M329 532L324 544L349 550L349 549L339 545L339 544L346 542L338 539L334 542L333 541L334 538C331.289 537.423 330.605 537.232 330 540L329 540L329 532z"/>
<path style="fill:#916951; stroke:none;" d="M603 533C603.49 540.136 601.772 549.693 611 550C610.287 544.385 610.872 531.166 603 533z"/>
<path style="fill:#c5a377; stroke:none;" d="M664 533L664 534L668 535L668 534L664 533z"/>
<path style="fill:#5f4335; stroke:none;" d="M881.333 533.667L881.667 534.333L881.333 533.667z"/>
<path style="fill:#c5a377; stroke:none;" d="M663 534L664 535L663 534z"/>
<path style="fill:#5f4335; stroke:none;" d="M887 534L886 537L882 535L889 550L891 550L892 546L887 538L887 537L889 535L887 534M340 535L344 539L340 535z"/>
<path style="fill:#c5a377; stroke:none;" d="M622 535L623 536L622 535z"/>
<path style="fill:#5f4335; stroke:none;" d="M678 535L679 536L678 535z"/>
<path style="fill:#916951; stroke:none;" d="M715 535L718 543L726 541L715 535M878.333 535.667L878.667 536.333L878.333 535.667M705 536L706 549L707 549L707 543L709 544L705 536z"/>
<path style="fill:#39473d; stroke:none;" d="M887 537L892 546L894 540L887 537z"/>
<path style="fill:#5f4335; stroke:none;" d="M334 537L335 538L334 537M426 537L424 545L423 545L423 543L422 543L422 550L425 550L426 537M659 537L659 541L660 541L663 539L670 541L670 540L659 537M337 538L338 539L337 538z"/>
<path style="fill:#c5a377; stroke:none;" d="M648.667 538.333L649.333 538.667L648.667 538.333z"/>
<path style="fill:#5f4335; stroke:none;" d="M676 538L677 539L676 538z"/>
<path style="fill:#c5a377; stroke:none;" d="M882 538L883 539L882 538M647 539L648 540L647 539M650.667 539.333L651.333 539.667L650.667 539.333z"/>
<path style="fill:#5f4335; stroke:none;" d="M673 541L676 539L673 541M706.333 539.667L706.667 540.333L706.333 539.667z"/>
<path style="fill:#c5a377; stroke:none;" d="M457 541L457 543L464 543C462.08 540.043 460.304 540.117 457 541z"/>
<path style="fill:#39473d; stroke:none;" d="M715 540L713 549L719 550L720 543L717 540L715 540z"/>
<path style="fill:#5f4335; stroke:none;" d="M423 541L424 542L423 541M670 541L670 542L673 542L670 541z"/>
<path style="fill:#916951; stroke:none;" d="M893 542L891 550C894.736 549.203 895.434 545.44 895 542L893 542z"/>
<path style="fill:#5f4335; stroke:none;" d="M346 543L346 547C347.813 545.444 347.813 544.556 346 543M376 543L378 545L376 543M445 543C443.503 547.457 445.565 549.298 450 550L445 543M455 544C454.896 550.619 461.934 549.997 467 550L469 544L455 544M894 550L902 550L902 543C896.77 543.171 894.6 544.674 894 550z"/>
<path style="fill:#c5a377; stroke:none;" d="M875 544L873 547L887 550L887 549L875 544z"/>
<path style="fill:#39473d; stroke:none;" d="M499 546L500 547L499 546z"/>
<path style="fill:#5f4335; stroke:none;" d="M352 550L355 547L352 550z"/>
</svg>
