<?xml version="1.0" standalone="yes"?>
<svg width="666" height="1000">
<path style="fill:#ffffff; stroke:none;" d="M0 0L0 1000L666 1000L666 0L0 0z"/>
<path style="fill:#29273d; stroke:none;" d="M315 99C314.903 107.724 309.859 115.468 305.586 122.804C297.812 136.148 288.87 149.099 281.09 162.615C267.564 186.115 256.858 210.666 244.87 234.87C232.365 260.115 218.977 284.78 208.82 311.166C192.461 353.665 181.547 397.611 167.634 440.83C158.702 468.578 147.457 496.432 142.259 525.17C140.446 535.198 142 546.811 142 557C142 579.977 142.548 603.03 141.985 626C141.459 647.493 131.162 666.079 129.17 687C128.011 699.172 127.767 713.835 130.259 725.83C131.395 731.3 134.83 735.187 135 741L158 732.426L179 728.412L193 727L196 728L197 723L193 722L193 721L205 721C199.041 710.215 179.49 711.841 169 709.346C163.481 708.033 158.507 705.308 153 704L153 703L201 711C198.181 704.775 190.068 704.748 184 703.611C172.18 701.396 156 700.131 148 690L179 693L167 687.645L143 677L143 676L150 677L148 675L148 674L199 692L199 691L188 686L188 685L206 690L187 671L218 692C219.599 683.321 200.19 666.353 193 663L193 662L200 664C199.938 657.138 197.308 652.177 191 649L195 645L194 639L183 634L184 626L180 624L181 621C164.357 606.408 154.729 580.576 152 559L153 559C155.116 565.057 161.837 569.46 167 573L168 568L176 580L177 580L166.285 527L166 483L167 483C173.55 510.433 168.579 543.843 183.55 568.911C193.829 586.121 212.61 593.831 224 610L225 610C221.02 599.653 211.936 591.109 205.746 582C192.064 561.863 180.003 537.754 180 513L181 513L193 539L228 570C222.906 559.279 214.252 549.879 207.667 540C197.066 524.097 187.956 506.48 182.746 488C179.637 476.971 177.536 465.498 178.039 454C178.303 447.972 180.546 441.996 180 436C184.879 441.202 184.426 452.133 185.8 459C188.367 471.832 197.473 496.972 209 504L208 501L212 500C228.266 503.928 240.569 520.338 249 534L250 534L236.054 510L210 463L213 466C219.679 467.521 225.555 475.8 229.593 481.004C236.762 490.244 245.012 498.508 251.841 508.039C255.953 513.776 258.545 521.47 265 525L247 488L256 486L259 485L258 489L263 488L262 492L265 491L281 518L282 518C279.996 501.936 261.412 488.501 265 472L283 482L277 474L278 468L278 458L283 458L292 476L293 476L289 463L285 453L287 452C296.532 454.917 299.521 463.949 301.843 473C303.052 477.713 302.878 484.156 297 485L296 502L299 502L299 494L300 494L301 497L302 497C301.386 494.88 299.499 490.273 300.5 488.167C301.604 485.844 304.565 483.737 305 487L306 487L305 470C313.528 479.126 312.102 492.792 314 504L311 505L312.96 549L312 575L315 574C317.739 539.298 323.527 504.804 325.91 470C332.725 370.497 338 270.867 338 171L337 171C337 201.249 334.151 230.893 332.09 261C330.886 278.578 332.499 296.461 330.83 314C328.647 336.941 325.084 359.984 324.039 383C323.175 402.048 320.509 420.645 318.322 439.576C317.526 446.463 319.29 455.839 314 461C312.042 446.499 299.579 433.53 296.074 419C293.625 408.848 296.34 396.469 295.435 386C294.783 378.457 291.596 370.649 292.097 363C292.495 356.941 295.735 351.266 295.921 345C296.142 337.557 285.17 317.33 292 314L295 292C300.284 290.794 302.22 294.948 306 298C296.023 258.075 265.227 222.73 276 179L277 179L280 187L284 162L286 162L290 170L294 152L295 152C296.691 165.098 299.468 185.971 310 195C307.384 179.796 291.417 160.577 298.819 145C301.172 140.048 302.369 132.022 309 133L319 99L315 99z"/>
<path style="fill:#8b6bc1; stroke:none;" d="M309 133C302.524 130.468 298.449 142.584 297.299 148C294 163.545 306.053 180.542 310 195C300.235 183.115 297.844 166.666 295 152L294 152L290 170L286 162L284 162L280 187L277 179L276 179C273.59 186.62 274.82 193.255 274.986 201.001C275.74 236.228 294.226 265.548 306 298C302.668 294.202 300.364 290.242 295 292L292 314L289 314L295.742 344.001L292.069 363L295.113 387L295.572 418.089L314 461C319.477 457.463 317.643 447.847 318.235 442.039C320.139 423.34 323.779 404.832 324.004 386C324.285 362.461 328.597 338.466 330.83 315C332.499 297.462 330.886 279.578 332.09 262C334.175 231.55 337 201.597 337 171L338 171L339 207L340 207L340 197L341 197C341 223.211 341.772 252.275 347.054 278C351.348 298.915 357.964 319.141 357.561 341C357.295 355.399 358.47 369.753 356.961 384.089C356.443 389.017 353.899 398.157 357.858 402.257C364.599 409.238 376.796 395.276 382 392C372.436 401.766 361.416 413.457 355.668 426C350.494 437.291 348.575 443.605 362 445L361 439L364 438C362.621 402.781 404.508 374.938 428 355.246C436.073 348.48 447.509 339.631 452 330L436 342C431.97 339.528 428.128 342.572 424 344L421 342L424 337L423 334L425 335L424 332L424.218 319L445 282C433.306 288.247 429.992 300.53 416 304L413 297L415 298L414 295C403.365 295.337 406.233 273.958 403 266L397 266L419 231L403 241L402 244L393 243L401 221L389 231L389 226C377.354 221.994 384.695 211.717 383 203L377 204L381 188L380 188L378 190L376 179C368.731 179.179 365.783 170.72 363.159 165C355.581 148.479 344.089 130.676 340 113L338 114L336 99C331.664 99 323.304 97.3882 319.652 100.028C313.517 104.462 309.331 125.749 309 133z"/>
<path style="fill:#eb83dd; stroke:none;" d="M336 99L338 114L340 113C342.607 130.651 355.714 149.769 363.159 166C365.863 171.895 368.555 179.583 376 179L378 190L380 188L381 188L377 204L383 203C383.855 211.224 377.258 223.603 389 226L389 231L401 221L393 243L402 244L403 241C410.42 241.775 413.643 234.942 419 231L397 266L403 266L407.247 292.849L415 298L413 297L413 298L416 304C429.927 302.356 434.973 290.09 445 282L426 314L423 325L426 329L424 332L425 335L423 334L424 337L421 342L424 344L436 342L452 330C432.815 357.236 400.429 372.717 379.885 399C371.9 409.216 362.758 424.486 364 438L361 439L364 448L368 471L367 474C373.911 474 369.046 485.387 368 489L370 487L371 487C374.927 489.594 378.195 486.886 382 485L352 524C361.322 517.574 367.487 508.176 375.09 500C390.514 483.413 411.938 461.815 433 453L435 458L432 461L435 461L435 475L434 481L436 479L437 479C441.818 483.913 447.835 481.487 454 481L447 496L452 499L453 496L456 499L450 502L459 502L456 510L462 508C463.74 513.332 469.943 510.828 474 509L475 512L472 515L484 509L490 518L484 528L490 529C490.603 533.773 496.621 530.743 500 530C500 527.132 508.955 522.92 512 523L491 549L500 543L496 549L497 557L499 557C503.873 552.268 509.704 553.525 516 553L515 550L521 550L526 542L527 542L529 544L532 535L536 546L540 545C538.37 537.411 541.703 528.884 541.406 521C541.157 514.396 538.882 508.369 538.129 501.961C536.477 487.901 536.943 473.96 534.231 460.039C519.305 383.418 490.131 310.878 454.869 241.272C435.956 203.937 410.529 172.836 385.806 139.664C377.649 128.72 360.126 112.936 360 99L336 99z"/>
<path style="fill:#29273d; stroke:none;" d="M340 197L330 471L331 471L352.618 430L382 392C376.127 394.522 365.466 408.213 358.513 402.244C354.066 398.426 356.379 389.906 356.989 385C358.718 371.101 357.529 356.997 357.809 343C358.311 317.905 348.486 295.226 346.17 271C344.686 255.481 342.106 239.411 341.054 224C340.487 215.696 343.237 204.715 340 197z"/>
<path style="fill:#67475d; stroke:none;" d="M338 200L337 309L338 309C338 285.776 338.022 262.221 339.039 239C339.565 227.006 342.921 211.408 338 200z"/>
<path style="fill:#eb83dd; stroke:none;" d="M388 231L389 232L388 231z"/>
<path style="fill:#f39d97; stroke:none;" d="M337 252L329 410L331 409L331 426L332 426C332.118 383.324 337 340.783 337 298C337 284.638 342.231 264.467 337 252z"/>
<path style="fill:#eb83dd; stroke:none;" d="M397 267L398 268L397 267M417 304L418 305L417 304M422 325L423 326L422 325M431.333 342.667L431.667 343.333L431.333 342.667z"/>
<path style="fill:#29273d; stroke:none;" d="M383 390L382 392L383 390z"/>
<path style="fill:#f7cf93; stroke:none;" d="M330 409C324.792 426.618 326.766 449.621 325.961 468C324.512 501.085 321.048 535.303 315.565 568C310.649 597.312 304.677 626.242 297.116 655C293.974 666.948 285.164 681.968 285 694C298.423 680.683 301.716 655.663 306.127 638C313.374 608.974 319.986 577.765 322.83 548C324.86 526.762 324.609 505.236 327.184 484C329.045 468.661 329.706 453.381 331.17 438C331.954 429.763 333.237 416.715 330 409z"/>
<path style="fill:#67475d; stroke:none;" d="M355 425L331 471L330 471L330 463L329 463L321 563C329.527 556.706 334.529 545.314 341.014 537C353.603 520.859 374.02 503.853 382 485L371 487L370 487L370 489L368 489C369.649 484.691 373.576 475.52 367 474L368 471L364 448L361 444C344.706 445.964 356.387 432.919 355 425z"/>
<path style="fill:#eb83dd; stroke:none;" d="M363 429L364 430L363 429M363 431L362 433L363 431z"/>
<path style="fill:#67475d; stroke:none;" d="M180 436L179 443C185.134 446.969 186.415 467.975 189.333 475.333C190.182 477.473 192.556 486.321 194 483L195 483L198 490L199 490C194.652 477.067 187.438 466.747 184.803 453C183.802 447.775 184.646 439.279 180 436z"/>
<path style="fill:#456765; stroke:none;" d="M179 443C178.531 453.93 177.664 464.06 179.438 475C185.351 511.449 207.856 540.388 228 570L204.079 549.272L193 539L193 536L190 534L186 534L188 531C178.633 532.423 186.421 546.915 188.781 552C198.631 573.225 213.573 589.94 225 610L224 610C216.366 593.63 195.119 584.931 184.721 569.83C172.798 552.516 173.556 526.775 169 507L168 507C164.829 533.14 174.769 554.415 177 580L176 580C174.544 575.275 173.031 569.588 168 568L167 573L154 565L154 573L159 572L167 600L167 601L171 602L183 624L186 624L185 626C188.249 626 186.516 629.462 188 632C191.422 637.854 196.394 637.507 196 645L201 649L194 647L207 656L207 655L202 651L218 661L225 663L205 646L208 644L212 639L207 639L207 638L214 639L213 636L214 635L231 649.001L244 664C241.447 658.036 234.129 646.108 238 640L237 636L239 637L238 632C244.706 634.75 248.098 641.217 252 647L253 647L239 603L251 609L252 606L269 629L253 589L258 585L266 595L267 595L264 581L266 581L266 585L267 585L276.196 571.871L279 552L282 553C285.8 546.216 283.536 540.085 285.429 533.039C286.374 529.521 289.546 527.205 290.522 523.711C294.268 510.288 289.855 491.766 278 484C272.265 495.916 279.55 506.566 282 518L281 518L269 498L267 499L267 498L267 494L266 494L266 497L262 498C260.643 495.488 259.395 496.524 259 499L258 499L258 497L257 497L259 511L260 511L260 506L261 506L265 525C254.619 516.426 245.221 500.47 236.879 489.741C232.892 484.613 229.989 478.101 223 477L216 467C210.354 471.123 217.181 480.337 219.921 485C229.477 501.269 242.537 516.681 250 534L249 534C243.295 520.439 229.396 505.033 214 504L209 508L195 483L194 483L193 485L185.535 463.17L181 443L179 443z"/>
<path style="fill:#67475d; stroke:none;" d="M287 450L286 452L287 450M287 452L285 453C284.255 457.341 285.218 460.562 289 463L293 476L292 476L283 458L278 458C277.598 460.589 274.054 468.107 278 468L277 474L283 482L265 472C261.342 483.666 271.72 493.673 276 504L277 504L278 484C288.66 493.785 293.906 508.24 290.486 522.829C289.66 526.356 286.388 528.616 285.429 532.089C283.459 539.224 284.936 545.793 282 553L279 552L274 576L278 577C278.433 571.518 278.717 564.149 280.741 559.039C281.928 556.043 284.712 554.156 285.532 550.961C286.919 545.557 284.578 539.268 286.603 534.054C287.716 531.188 290.843 529.865 291.682 526.871C293.19 521.487 291.04 515.449 292.313 510C294.594 500.238 299.772 495.831 297 485C303.271 484.69 303.273 477.935 302.101 473C299.979 464.07 297.008 453.888 287 452z"/>
<path style="fill:#8b6bc1; stroke:none;" d="M308 453C303.045 461.635 306.971 476.31 316 481C315.973 471.083 313.145 461.514 308 453z"/>
<path style="fill:#f39d97; stroke:none;" d="M321 563L321 559L320 559C319.672 574.895 315.555 591.447 312.449 607C306.698 635.795 302.339 669.581 285 694L300 643L299 643L298 649L297 649L296 630L288 659L287 659L279.917 630L275 621L274 616L273 616L270 626L271 629L268 627L267 632L266 632C265.343 627.146 264.177 621.934 260 619C260.258 625.88 263.455 646.196 258 650L259 647L254 644L259 668L255 669L253 662L251 663C249.937 660.236 249.26 661.789 249 664L248 664L243 662L244 664L243 664L240 663L240 659L237 659C236.113 662.805 232.494 662.879 229 663L229 658L226 660L224 653L218 655L221 650L216 652L225 663L218 661L214 656L207 655L214 661L210 665L225 686L209 673L225 696L192 675L192 676C203.843 685.42 220.58 697.421 226 712C218.202 704.537 209.895 696.335 199 694L199 695L205 698L205 699L201 698L201 699L214 708L212 713L222 724L205 715L221 729L222 738L225 743L226 743L229 737L230 741L230 742L228 750L227 750C222.948 737.782 207.674 726.581 195 725L202 731L202 732L194 731L194 732L213 739L223 754L214 751L214 752C218.785 754.823 226.994 758.408 227.326 765C227.515 768.761 223.279 772.354 221.081 775C215.362 781.884 209.105 788.667 204 796C219.475 786.182 233.146 765.041 244.944 751C247.927 747.451 253.951 735.593 258 735L260 733L262 730L262 729L260 729L260 728L263 725L264 724L266 725L265 721C269.634 720.055 271.661 717.787 271 713L274 710L270 712L273 704L276 706L280 703L279 706L280 706L286 695L287 695L288 697C307.642 669.006 330.875 642.478 352.576 616C363.89 602.195 374.276 584.373 389 574C380.844 591.798 361.481 608.549 349.286 624C337.332 639.147 325.573 654.657 313.921 670.039C309.742 675.555 307.022 682.171 302 687L303 690L297 695L296 698L296 699L323 699L323 698L320 698L320 697L325 696L321 692L321 691L325 688L320 688L320 687L328 686L327 683L345 678C340.849 665.161 353.733 658.971 364 656L360 646L362 640L375 635L375 634L372 635L376 633L375 630L370 631L373 629L368 622C377.225 620.222 400.294 610.146 405 602L389 608L390 605L386 603L389 603L387 602L387 601L393 596L393 595L391 594L394 590L392 591L392 590L401 577L409 586L406 589L412 593C407.707 591.065 404.218 591.729 406 597C409.047 596.492 410.647 596.413 410 599L416 598L419 601L419 602L410 603L410 604L416 608L425 608L421 615L423 616L424 616L428 614L428 615L424 617L424 618L428 619L424 624L435 620L435 622L439 624L435 623L427 631L437 627L434 629L437 635L432 633L438 636L440 640L439 637L442 636L440 633C442.158 634.139 444.571 636.32 447.09 636.434C452.826 636.696 455.821 631.269 461 636L452 643L455 641L459 640L461 647L462 647L462 643L464 640L462 637C467.669 644.819 465.531 650.225 477 652L471 655L472 652L467 654L477 658L477 657L475 655L481 652L480 656L487 654L489 657L493 651L491 646L497 648L498 645L499 645L501 648L500 642L509 641L513 635L514 635C516.628 636.941 518.624 636.26 519 633L531 626L540 616C541.197 619.842 543.052 622.69 539 625L540 628L527 642L528 642L530 639L526 647L522 646L519 649L522 653L522 654L516 652L513 655L517 660L521 660C520.872 656.411 525.464 654.947 528 652.833C531.153 650.206 533.995 645.557 538 644.167C543.018 642.424 548.007 644.889 551.5 638C554.987 631.123 551.901 621.367 553.333 614C557.76 591.232 557.758 563.754 553.333 541C551.618 532.18 550.278 521.645 541 518L540 545L536 546C536.595 541.409 535.566 538.005 532 535L529 544L527 542L526 542L521 550L515 550L516 553C510.175 553.219 502.742 551.662 499 557L497 557L496 549L500 543L491 549L512 523C508.388 522.552 500.512 526.25 500 530C496.813 530.348 490.672 533.56 490 529L484 528L490 518L484 509L472 515L475 512L474 509C469.757 510.23 464.525 512.432 462 508L456 510L459 502L450 502L456 499L453 496L452 499L447 496L454 481C447.438 481.282 442.619 483.246 437 479L436 479L434 481L435 475L435 461L432 461L432 460L432 459L435 458L433 453C419.631 456.859 410.328 468.174 399.999 476.75C381.169 492.385 362.392 510.349 346.615 529.015C337.464 539.841 330.761 552.772 321 563z"/>
<path style="fill:#67475d; stroke:none;" d="M210 463L212 469L216 466L213 466L210 463M216 467L221 472L216 467M216 470L217 471L216 470z"/>
<path style="fill:#8b6bc1; stroke:none;" d="M305 470L306 487L305 487L305 484C299.664 487.612 300.056 491.256 302 497L301 497L300 494L299 494L299 502C288.817 503.998 293.02 517.721 291.852 524.981C291.215 528.941 287.307 530.348 286.318 534.054C284.88 539.441 286.777 545.352 285.254 550.816C282.716 559.918 278.446 566.615 278 577C266.51 573.006 267.179 588.931 270 596L273 595L276 603L277 603L272 583L275 582L276 582L286 601L287 601L282 577L286 583L287 583L285 561L286 561L291 571L292 571L291 542L292 542L298 559L299 559L297 541L298 541L299 547L302 547L300 534L301 534L301 538L302 538L302 534L305 535L303 515L304 515L307 520L303 504L306 512L311 519L312 519L311 505L314 504C313.492 494.318 313.869 476.283 305 470z"/>
<path style="fill:#67475d; stroke:none;" d="M222 471L223 472L222 471M219 472L220 473L219 472M221 472L222 473L221 472M222 473L223 474L222 473M223 474L227 477L227 476L223 474M262 476L263 477L262 476M227 477L228 478L227 477z"/>
<path style="fill:#f39d97; stroke:none;" d="M327 481L327 492L328 492L327 481z"/>
<path style="fill:#67475d; stroke:none;" d="M249 482L250 486L252 482L249 482M166 483L165 521L166 521L168 507L169 507L169 509L170 509C169.959 501.686 170.461 488.881 166 483M256 486L247 488L260 517L261 517L261 506L260 506L260 511L259 511L257 497L258 497L258 499L259 499L260 496L262 498L266 497C265.745 493.702 265.515 491.934 262 492L263 488L258 489L259 485L256 486z"/>
<path style="fill:#456765; stroke:none;" d="M292 485L291 499L292 499L292 496L293 496L293 498L294 498L296 490L295 490L293 493L295 485L292 485z"/>
<path style="fill:#67475d; stroke:none;" d="M282 490L283 491L282 490z"/>
<path style="fill:#f39d97; stroke:none;" d="M326 492L326 504L327 504L326 492z"/>
<path style="fill:#67475d; stroke:none;" d="M293 494L294 495L293 494M267 495L268 496L267 495M268 496L267 499L268 496M269 498L268 500L270 500L269 498M212 500L208 501L209 504L205 502L209 508L214 504L220 504C218.152 500.486 215.762 500.316 212 500M259 500L262 502L259 500M270 500L271 501L270 500M271 501L272 502L271 501M272 502L274 505L272 502M220 504L221 505L220 504M303 504L307 520L304 515L303 515L305 535L302 534L305 553L304 553L300 546L305 567L303 566L303 567L305 575L304 575L300 558L299 558L300 566L299 566L297 558L296 558L302 576L300 576L302 602L301 602L299 597L298 597L300 622L299 622L294 607L293 607L297.188 629L297 649L298 649C304.141 624.372 313.787 598.748 314 573L313 573L312 575L312 512L311 512L312 519L311 519L306 512L303 504M216 505L217 506L216 505M218 505L219 506L218 505M221 505L221 506L228 508L228 507L221 505M225 505L226 506L225 505M261 505L262 506L261 505M274.333 505.667L274.667 506.333L274.333 505.667z"/>
<path style="fill:#f39d97; stroke:none;" d="M325 506L323 539L324 539L325 506z"/>
<path style="fill:#67475d; stroke:none;" d="M275 507L276 508L275 507M276 508L278 512L276 508z"/>
<path style="fill:#f39d97; stroke:none;" d="M465 508L463 511L465 508z"/>
<path style="fill:#67475d; stroke:none;" d="M170 509L170 519L171 519L170 509M308.667 511.333L309.333 511.667L308.667 511.333M278 512L279 513L278 512z"/>
<path style="fill:#f39d97; stroke:none;" d="M488 512L489 515L490 515L490 512L488 512z"/>
<path style="fill:#67475d; stroke:none;" d="M180 513L182 535L183 535L188 531L186 534L190 534L191 537L192 537L180 513z"/>
<path style="fill:#f39d97; stroke:none;" d="M486 527L487 528L486 527z"/>
<path style="fill:#eb83dd; stroke:none;" d="M298 530L299 534L300 534L298 530z"/>
<path style="fill:#67475d; stroke:none;" d="M312 533L313 534L312 533z"/>
<path style="fill:#eb83dd; stroke:none;" d="M300 534L304 553L305 553L300 534M297 541L304 575L305 575L303 566L305 567L305 566L297 541M291 542L292 571L291 571L286 561L285 561L287 583L286 583L282 577L287 601L286 601L276 582L275 582L272 583L277 603L276 603L272 595L275.996 614L287 659L288 659L296.895 627L293 607L294 607L299 622L300 622L298 597L299 597L301 602L302 602L300 576L302 576L296 558L297 558L299 566L300 566C299.79 558.754 295.795 547.44 291 542z"/>
<path style="fill:#f39d97; stroke:none;" d="M510 551L510 552L513 552L513 551L510 551z"/>
<path style="fill:#67475d; stroke:none;" d="M151 557L150 559L152 559L151 557M316 558L316 562L317 562L316 558M152 559L154 571L155 571L154 565L159 567L152 559M159 567L160 568L159 567M160.667 568.333L161.333 568.667L160.667 568.333M162 569L163 570L162 569M163 570L164 571L163 570M154 573L160 587L161 587L159 572L154 573z"/>
<path style="fill:#f7cf93; stroke:none;" d="M288 697L287 695L286 695L280 706L279 706L280 703L276 706L273 704L270 712L274 710L271 713C270.897 717.594 269.179 719.378 265 721L266 725L263 725L260 728L260 729L262 729L262 730L258 735C254.136 735.475 250.608 742.786 248.125 746C239.75 756.844 229.911 766.359 221.449 777.06C212.228 788.722 201.079 798.974 191.134 810C172.788 830.34 155.357 851.605 136 871C125.633 881.387 102.556 898.707 101 914C124.87 897.186 143.658 870.77 164 850C154.209 869.18 134.072 885.923 119 901C113.795 906.207 103.145 913.95 107 922L108 922C135.227 884.839 170.341 852.915 199.54 817C210.615 803.377 222.541 790.469 233.74 777C244.096 764.544 253.885 749.74 268 741L267 738L277 739L274 743L270 739L271 745L278 746L273 750L277 750L277 751L273 752C273.565 756.404 274.59 758.718 279 760L279 761L276 761L276 762L291 774L289 776L301 795L304 794L322 832C325.507 829.471 324.997 826.06 325 822L327 825L331 824L336 832L335 835L338 833L341 841L345 848L346 848L346 842C340.382 833.453 342.574 818.544 349 811L346 802L349 806L358 803L353 805L356 810L355 806L361 805L361 809C370.349 805.717 380.877 815.423 390 817L390 816L384 810L391 811L393 816L393 813L403 816L404 812L392 806L402 808L400 803L412 806L403 801L403 800L413 804L414 804L419 803L419 799C436.43 796.953 455.018 801.702 472 804L472 803L457 796L458 792L454 789L460 787L459 790L487 791L487 789C480.912 788.95 473.832 789.078 469 785L491 785L487 782L470 774L453 772L453 771C458.933 771 472.934 771.266 472 775L473 775L475 771L469 770L469 769L510 758L510 757L498 759C504.028 753.145 512.411 754.502 520 753L520 752L475 745L479 741L479 740L475 739L475 738L499 737.74L523 730L520 725L521 723L517 719C512.552 719.698 510.011 719.586 507 716L521 715L520 712L512 713C524.459 703.772 543.503 686.793 544 670L537 669L536 669L530 675L552 638C543.755 643.442 522.432 648.016 521 660L517 660L513 655L516 652L522 654L522 653L519 649L522 646L526 647L530 639L528 642L527 642C530.852 637.214 539.497 631.547 539 625C543.981 623.374 541.653 619.796 540 616C535.606 618.049 531.834 621.115 531 626L519 633C518.578 636.286 516.724 636.073 514 635L513 635L509 641L500 642L501 648L499 645L498 645L497 648L491 646L493 651C489.496 651.99 488.355 653.384 489 657L487 654L480 656L481 652L475 655L477 657L477 658L467 654L468 651L472 652L471 655L477 652C465.759 648.686 468.992 643.77 462 637L464 640L462 643L462 647L461 647L459 640L455 641L452 643L461 636C457.179 630.723 453.05 635.495 448.039 635.944C445.24 636.195 442.559 633.909 440 633L442 636L440 640L437 639L438 636L432 633L437 635L434 629L437 627L427 631L435 623L439 624L438 621L435 622L435 620L424 624L428 619L424 618L424 617L428 615L428 614L424 616L423 616L421 615L425 608L416 608L410 604L410 603L419 602L419 601L416 598L410 599C410 596.181 408.579 596.366 406 597C404.829 591.949 407.753 591.729 412 593L406 589L409 586L401 577L392 591L394 590L393 595L393 596L387 602L389 603L386 603L390 605L389 608L405 602C397.563 610.523 378.798 618.589 368 622L373 629L370 631L376 633L372 635L375 634L375 635L362 640L360 646L364 656C354.083 658.073 339.085 665.452 345 678L327 683L328 686L320 687L320 688L325 688L321 691L321 692L324 692L325 696L320 697L320 698L323 698L323 699L296 699L296 698L297 695L303 690L302 687C309.816 682.025 316.261 668.54 321.92 660.985C336.052 642.119 350.357 623.282 365.246 605C372.421 596.191 385.951 584.964 389 574C376.307 579.92 366.777 597.279 358.2 608C343.024 626.969 328.046 646.143 312.739 665C304.842 674.729 293.248 685.729 288 697z"/>
<path style="fill:#67475d; stroke:none;" d="M264 581L265 591L269 581L268 581L267 585L266 585L266 581L264 581z"/>
<path style="fill:#f7cf93; stroke:none;" d="M258 585L253 589C254.448 600.378 262.262 621.509 271 629L270 626C281.384 619.566 266.543 589.202 258 585z"/>
<path style="fill:#67475d; stroke:none;" d="M161 587C162.583 599.314 169.662 614.418 181 621L180 624L184 626L183 634L194 639L195 645L191 649C196.359 653.053 199.834 657.141 200 664L193 662L193 663L210 678L209 673L225 686L210 665L214 661L194 647L201 649L196 645C196.634 640.878 188.429 626.568 185 626L183 624L171 602L167 601L167 600C169.856 597.065 163.855 588.953 161 587z"/>
<path style="fill:#29273d; stroke:none;" d="M265 589L266 590L265 589M266 590L273 613L274 613C273.403 605.693 272.626 594.327 266 590z"/>
<path style="fill:#eb83dd; stroke:none;" d="M271.333 593.667L271.667 594.333L271.333 593.667z"/>
<path style="fill:#f7cf93; stroke:none;" d="M420 595L416 597L416 598L421 596L420 595z"/>
<path style="fill:#8b6bc1; stroke:none;" d="M272 601L276 621C277.492 615.091 275.544 605.973 272 601z"/>
<path style="fill:#f7cf93; stroke:none;" d="M239 603C239.281 616.177 246.58 634.552 253 646L255 644L256 644L259 647L258 650C265.996 648.278 256.223 625.23 262 619L252 606L251 609L239 603M385 605L386 606L385 605M424.667 606.333L425.333 606.667L424.667 606.333M427 608L425 609L425 610L427 608M423 610L424 611L423 610M543 621L547 615C542.539 614.825 541.913 616.973 543 621M262 619L263 623L264 623L262 619M264.333 623.667L264.667 624.333L264.333 623.667M367 623L364 626L367 623M265 625L266 632L267 632L265 625M461 631L465 634L471 629L461 631M238 632L239 637L237 636L237 637L238 640C231.043 646.332 243.633 660.416 248 664L249 664L250 661L253 662L255 669L259 668C258.496 656.293 250.351 635.369 238 632z"/>
<path style="fill:#67475d; stroke:none;" d="M296 632L297 633L296 632z"/>
<path style="fill:#f7cf93; stroke:none;" d="M439 632L440 633L439 632M438 634L440 636L440 634L438 634M214 635L213 636L214 639L207 638L207 639L212 639L208 644L205 646C209.803 651.645 214.321 652.901 221 650L218 655L224 653L226 660L229 658L229 663C232.689 662.911 236.143 663.005 237 659L239 660C235.337 649.138 223.904 640.055 214 635M508 638L509 639L508 638M209 643L210 644L209 643M542.667 643.333L543.333 643.667L542.667 643.333z"/>
<path style="fill:#f39d97; stroke:none;" d="M549 645L530 675L536 669L537 669L538 672C545.265 666.966 552.085 655.03 549 645z"/>
<path style="fill:#f7cf93; stroke:none;" d="M257 647L258 648L257 647M262 649L261 650L264 653L262 649M522.333 649.667L522.667 650.333L522.333 649.667M201 650L202 651L201 650M202 651L212 657L202 651M485 653L486 654L485 653M361 654L362 655L361 654M483 654L484 655L483 654M521 655L522 656L521 655M239 660L240 661L239 660z"/>
<path style="fill:#67475d; stroke:none;" d="M192 661L193 662L192 661z"/>
<path style="fill:#f7cf93; stroke:none;" d="M240.333 661.667L240.667 662.333L240.333 661.667M249 664L250 670L251 670L251 664L249 664z"/>
<path style="fill:#67475d; stroke:none;" d="M186 670L185 672L186 670M187 671L197 681L194 674L187 671z"/>
<path style="fill:#f7cf93; stroke:none;" d="M242 671L247 679L246 671L242 671z"/>
<path style="fill:#67475d; stroke:none;" d="M148 674L148 675L150 677L143 676L143 677L163 686.575L179 693L148 690C157.634 708.429 190.706 695.522 201 711L170 706.996L153 703L153 704C167.44 708.915 195.011 709.031 205 721L193 721L193 722L196 725C208.729 729.271 220.905 737.764 227 750L228 750L230 742L230 741L229 737L226 743L225 743C224.863 740.084 224.983 738.37 222 738L221 729L205 715L222 724C219.952 719.398 216.975 714.53 212 713L214 708L201 699L201 698L205 699L205 698L199 695L199 694L226 712C223.515 702.169 214.094 692.216 205 688L205 691L188 685L188 686L199 691L199 692C182.823 685.265 165.483 676.582 148 674M194 675L195 676L194 675z"/>
<path style="fill:#f39d97; stroke:none;" d="M529 675L530 676L529 675z"/>
<path style="fill:#67475d; stroke:none;" d="M195.667 676.333L196.333 676.667L195.667 676.333z"/>
<path style="fill:#f39d97; stroke:none;" d="M543 676L512 713L521 715L507 716C509.294 720.159 512.693 720.246 517 719L521 723L520 725L523 730L500 737.471L475 738L475 739L479 740L479 741L475 745L520 752L520 753C513.072 753.744 502.476 752.615 498 759L510 757L510 758L469 769L469 770L475 771L473 775L472 775C471.168 769.735 457.282 771 453 771L453 772L470 774L487 782L491 785L469 785C472.941 790.046 481.194 788.988 487 789L487 791C480.481 791.135 462.274 795.424 460 787L454 789L458 792L457 796L472 803L472 804L456.845 799.454L435 800.123L419 799L419 803L414 804L413 804L403 800L403 801L412 806L400 803L402 808L392 806L404 812L403 816L393 813L393 816L391 811L384 810L390 816L390 817C381.653 814.694 369.434 804.767 361 809L361 805L355 806L356 810L353 805L358 803L349 806L346 802L349 811C342.277 816.225 339.346 836.047 346 842L346 848L345 848L341 841L338 833L335 835L336 832L331 824L325 822L322 832C317.807 818.486 312.162 805.463 304 794L301 795L291 774L276 762L276 761L279 761L279 760L273 752L277 751L277 750L273 750L278 746L271 745L270 739L274 743L277 739L267 738L268 741C256.101 746.085 242.698 762.244 236 773L238 771L239 771C251.535 789.409 251.066 811.241 252 833L251 833L248 820L247 820L255.146 848.714L263 866L269.551 876L285 898L283 897C292.535 917.038 312.465 919.545 331.816 912.891C336.189 911.387 338.385 907.191 343 906L343 905L335 904C335 897.387 326.648 905.407 328 900L309 896L310 899L300 899L302 896L292 893L273.82 856L276 812L276 804L277 804L278 807L280 806C280.663 808.52 282.871 812 279 812L279 818L282 814L283 814C283.559 817.62 283.861 819.948 280 821L281 827L284 825L279 842L280 842L282 836L283 836L283 838L284 838C284.307 831.37 286.324 826.803 293 825C294.424 830.641 300.315 844.846 305 848L308 838L309 838C309.172 846.322 310.963 862.635 316 869L314 862C317.691 865.472 319.115 868.174 324 865L327 875L320 870L321 874L320 874L316 870C318.594 874.146 323.474 882.751 329 880L336 886L331 878L332 878L338 888L341 887L343 890L344 905C364.609 905 383.883 906.504 403.576 899.255C437.009 886.947 462.09 858.457 484.68 832.662C497.641 817.861 512.366 802.537 520.522 784.271C524.062 776.34 521.189 767.326 524.04 759.424C529.465 744.39 546.287 732.088 548.415 715.804C549.312 708.94 544.958 699.026 544.129 691.961C543.513 686.719 545.068 680.929 543 676z"/>
<path style="fill:#67475d; stroke:none;" d="M197 677L198 678L197 677M210 678L210 680L212 680L210 678M212.333 680.667L212.667 681.333L212.333 680.667M180 681L180 682C182.786 683.396 185.565 685.506 188 683L180 681M197 681L198 682L197 681M198 682L199 683L198 682M213 682L214 683L213 682M199 683L200 684L199 683M214 683L215 684L214 683M200.667 684.333L201.333 684.667L200.667 684.333M215 684L216 685L215 684M202 685L203 686L202 685M216 685L217 686L216 685M203 686L204 687L203 686M217 686L218 687L217 686M225 686L226 687L225 686M204 687L205 688L204 687M218 687L219 688L218 687M219 688C218.14 692.626 220.945 694.418 225 696L219 688M204 689L205 690L204 689z"/>
<path style="fill:#f7cf93; stroke:none;" d="M314 690L314 691L321 691L314 690z"/>
<path style="fill:#67475d; stroke:none;" d="M205 699L205 700L208 700L205 699z"/>
<path style="fill:#f39d97; stroke:none;" d="M297 701L297 702L316 702C310.829 698.902 302.673 699.389 297 701z"/>
<path style="fill:#67475d; stroke:none;" d="M152 702L153 703L152 702z"/>
<path style="fill:#f7cf93; stroke:none;" d="M270 707L271 708L270 707M529 711L529 712L541 708L529 711z"/>
<path style="fill:#67475d; stroke:none;" d="M226 712L227 713L226 712z"/>
<path style="fill:#f7cf93; stroke:none;" d="M269 712L270 713L269 712z"/>
<path style="fill:#67475d; stroke:none;" d="M162 720L162 721L180 722L180 720L162 720M193.667 723.333L194.333 723.667L193.667 723.333z"/>
<path style="fill:#f39d97; stroke:none;" d="M518.667 723.333L519.333 723.667L518.667 723.333z"/>
<path style="fill:#67475d; stroke:none;" d="M191.667 726.333L192.333 726.667L191.667 726.333M193 727L178 728L178 729C181.622 729.047 185.965 728.946 187 733C198.127 733.092 203.386 738.958 213 743L213 744C196.842 744 181.005 747.01 169.104 759.093C165.073 763.187 162.655 768.584 159 773L165 762L156 772L152 773C149.08 771.454 141.895 773.001 142.952 777.627C144.427 784.083 148.43 794.659 151.394 800.7C154.672 807.379 158.972 808.774 159 817C162.076 817.09 166.206 819.06 169.09 818.268C173.422 817.077 177.737 811.783 181 808.83C190.802 799.961 204.393 788.095 210 776C199.251 781.055 201.608 775.308 210 770.89C215.115 768.198 219.43 767.97 225 769L195.83 802L180 820C194.428 812.473 206.911 793.51 217 781C220.154 777.089 227.399 771.176 227.982 766C228.85 758.295 218.005 753.071 212 752L212 751L223 754L213 739L194 732L194 731L202 732L202 731L193 727M219 728L220 729L219 728M136 741L139 755L141 755C149.191 744.878 167.316 739.262 180 739L180 738C165.965 736.235 155.182 742.869 142 746C154.392 734.149 169.47 732 186 732L186 731L173 731L173 730L176 730C163.248 724.661 148.099 738.712 136 741z"/>
<path style="fill:#eb83dd; stroke:none;" d="M173 730L173 731L188 732C183.71 727.98 178.4 728.997 173 730z"/>
<path style="fill:#29273d; stroke:none;" d="M142 746L200 735C184.009 727.315 152.789 731.353 142 746z"/>
<path style="fill:#67475d; stroke:none;" d="M202 732L203 733L202 732z"/>
<path style="fill:#eb83dd; stroke:none;" d="M176 737L176 738L205 739C200.548 731.935 182.915 734.956 176 737z"/>
<path style="fill:#29273d; stroke:none;" d="M142 775L152 773L156 772L165 762L159 773C163.572 769.11 165.718 763.305 170.043 759.093C181.94 747.508 197.001 744 213 744C199.917 730.79 170.878 738.534 156 744.584C150.676 746.749 142.716 750.036 139.934 755.464C137.065 761.064 141.744 769.045 142 775z"/>
<path style="fill:#67475d; stroke:none;" d="M229 739L230 740L229 739M213 740L214 741L213 740z"/>
<path style="fill:#f39d97; stroke:none;" d="M484 748L485 749L484 748z"/>
<path style="fill:#eb83dd; stroke:none;" d="M167 773C182.819 760.245 190.36 751 212 751C194.82 742.744 174.867 758.886 167 773z"/>
<path style="fill:#67475d; stroke:none;" d="M228 750L230 752L228 750z"/>
<path style="fill:#f39d97; stroke:none;" d="M494.667 750.333L495.333 750.667L494.667 750.333z"/>
<path style="fill:#29273d; stroke:none;" d="M170 773L171 773L172 770L203 763L201 773L223 760C208.531 741.517 177.831 754.505 170 773z"/>
<path style="fill:#eb83dd; stroke:none;" d="M212.667 751.333L213.333 751.667L212.667 751.333z"/>
<path style="fill:#67475d; stroke:none;" d="M187.667 754.333L188.333 754.667L187.667 754.333M223 754L225 756L223 754M186 755L187 756L186 755M214 755L214 756L218 757L218 756L214 755M219 757L220 758L219 757M181 758L182 759L181 758z"/>
<path style="fill:#f39d97; stroke:none;" d="M492 759L492 760L498 761C497.033 756.166 493.594 759.398 492 759z"/>
<path style="fill:#29273d; stroke:none;" d="M172 759C166.841 766.375 161.38 772.787 160 782L161 782L174 759L172 759z"/>
<path style="fill:#67475d; stroke:none;" d="M180 759L181 760L180 759M179 760L180 761L179 760M178 761L179 762L178 761M177 762L178 763L177 762M176 763L177 764L176 763M175 764L176 765L175 764M174 765L175 766L174 765M173 766L174 767L173 766M172 767L170 771L172 767M177 767L178 768L177 767z"/>
<path style="fill:#29273d; stroke:none;" d="M210 776C202.181 787.232 191.874 797.519 182 806.961C175.742 812.945 169.11 816.644 169 826C155.588 826.047 151.927 840.081 144.867 849.025C136.15 860.071 124.045 870.955 114 881C107.4 887.601 101.035 892.169 101 902C115.189 895.383 127.124 875.645 137.899 864.335C153.738 847.709 168.994 830.423 185.015 814C198.586 800.088 214.673 785.528 225 769C218.493 767.451 203.921 768.894 201.461 776.956C199.723 782.654 208.939 776.725 210 776z"/>
<path style="fill:#f39d97; stroke:none;" d="M283 768L284 769L283 768z"/>
<path style="fill:#67475d; stroke:none;" d="M238 771L232 779L235 777C235 794.9 239.484 807.97 243.392 825C244.352 829.183 242.401 833.438 243.456 837.714C247.581 854.435 258.833 870.903 270.076 883.662C275.995 890.379 278.518 902.402 288 905L283 897L285 898L285 897L269.613 875L263 866L255.583 848.714L247 820L248 820L251 833L252 833C251.632 815.176 254.041 782.572 238 771z"/>
<path style="fill:#29273d; stroke:none;" d="M152 773L152 775L154 773L152 773M169 773L170 774L169 773M200 773L201 774L200 773M168 774L169 775L168 774M235 776L236 777L235 776M234 777L223 792C231.866 796.745 226.375 806.205 229.792 813.721C232.657 820.025 241.226 820.241 243 829L244 829L235.439 797L234 777z"/>
<path style="fill:#f39d97; stroke:none;" d="M231 779C205.883 804.327 185.684 834.487 161.831 861C144.305 880.48 120.42 898.762 108 922L107 922L104 918C104.655 921.718 106.221 923.06 110 923L109 927L115 930L116 930L117 930C152.542 898.15 173.814 857.265 200.133 817.714C206.481 808.174 214.903 799.777 222.246 791C225.204 787.464 229.928 783.494 231 779z"/>
<path style="fill:#67475d; stroke:none;" d="M231 780L232 781L231 780M230 781L231 782L230 781M229 782L230 783L229 782M228 783L229 784L228 783M227 784L226 787L227 784z"/>
<path style="fill:#f39d97; stroke:none;" d="M468 784L469 785L468 784z"/>
<path style="fill:#67475d; stroke:none;" d="M225 787L226 788L225 787M224 788L225 789L224 788z"/>
<path style="fill:#f39d97; stroke:none;" d="M299 788L300 789L299 788z"/>
<path style="fill:#67475d; stroke:none;" d="M223 789L224 790L223 789z"/>
<path style="fill:#f39d97; stroke:none;" d="M473 789L474 790L473 789z"/>
<path style="fill:#67475d; stroke:none;" d="M222 790C212.084 803.062 197.901 814.838 193 831C199.926 829.13 212.917 816.09 214 809L230 816C228.872 806.199 230.85 796.291 222 790z"/>
<path style="fill:#f39d97; stroke:none;" d="M213 794L199 809C204.111 806.597 211.652 799.565 213 794z"/>
<path style="fill:#67475d; stroke:none;" d="M256 794C256.581 803.019 248.61 826.072 257 832L257 826L258 826L259 833L260 833L260 829L261 829L263 838L264 838C263.833 824.604 266.78 804.224 256 794z"/>
<path style="fill:#f39d97; stroke:none;" d="M413 799L412 802L415 802L413 799z"/>
<path style="fill:#456765; stroke:none;" d="M198 802L199 803L198 802M197 803L198 804L197 803M196 804L197 805L196 804z"/>
<path style="fill:#f7cf93; stroke:none;" d="M276 804L276 812L275 830L276 830L276 825L277 825L280 836L281 836L284 825L281 827L280 821L283 822L283 814L282 814L279 818L279 812C282.642 811.533 281.178 808.762 280 806L278 807L276 804z"/>
<path style="fill:#456765; stroke:none;" d="M195 805L196 806L195 805M194 806L195 807L194 806M193 807L194 808L193 807z"/>
<path style="fill:#f39d97; stroke:none;" d="M368 807L369 808L368 807z"/>
<path style="fill:#456765; stroke:none;" d="M192 808L193 809L192 808z"/>
<path style="fill:#eb83dd; stroke:none;" d="M260 808L261 826L262 826C262.995 820.899 263.1 812.355 260 808z"/>
<path style="fill:#f39d97; stroke:none;" d="M380 808L384 810L380 808z"/>
<path style="fill:#456765; stroke:none;" d="M191 809L192 810L191 809M190 810L191 811L190 810M189 811L190 812L189 811M188 812L187 815L188 812z"/>
<path style="fill:#67475d; stroke:none;" d="M195 814L174 838C180.671 834.466 193.231 821.328 195 814z"/>
<path style="fill:#456765; stroke:none;" d="M186 815L187 816L186 815M185 816L186 817L185 816z"/>
<path style="fill:#f7cf93; stroke:none;" d="M269 816L267 831L268 831L271 825L269 816z"/>
<path style="fill:#456765; stroke:none;" d="M182 820L185 817L182 820M156 847C164.713 842.01 177.665 829.113 182 820C173.331 822.665 161.178 839.65 156 847z"/>
<path style="fill:#67475d; stroke:none;" d="M177 822L178 823L177 822M176 823L177 824L176 823M175 824L173 827L175 824z"/>
<path style="fill:#ffffff; stroke:none;" d="M269 824C267.036 833.521 264.422 842.879 269 852L270 852C270.352 843.811 275.551 830.415 269 824M277 824L278 825L277 824M276 825L277 843C280.028 836.486 281.243 830.677 276 825z"/>
<path style="fill:#eb83dd; stroke:none;" d="M303 883L295 865L296 865L297 868L298 868L294 831L295 831L298 846L299 846L293 825C283.793 825.97 283.998 834.445 284 842C284.005 856.366 289.283 875.672 303 883z"/>
<path style="fill:#67475d; stroke:none;" d="M172 827L171 830L172 827z"/>
<path style="fill:#29273d; stroke:none;" d="M245 828L246 832L247 832L245 828z"/>
<path style="fill:#67475d; stroke:none;" d="M170 830L171 831L170 830M169 831L170 832L169 831M294 831L298 868L297 868L296 865L295 865L303 884C295.868 875.831 288.845 867.671 285.921 857C284.012 850.036 284.65 842.932 283 836L282 836L277 850L274 848C270.123 864.87 283.861 879.93 292 893L302 896L300 899L310 899L309 896C315.096 899.157 321.085 901.712 328 900L335 904C347.086 902.993 343.713 901.163 343 890L329 880C323.377 881.056 319.298 873.775 316 870L320 874L321 874L314 862L316 869C311.687 861.006 309.397 847.249 309 838L308 838L305 848C301.203 844.246 300.123 840.258 300 835L299 835L299 846L298 846L294 831M168 832L158 844C161.799 841.324 168.106 836.988 168 832z"/>
<path style="fill:#f39d97; stroke:none;" d="M171 832L172 833L171 832M170 833L171 834L170 833M169 834L170 835L169 834M168 835L169 836L168 835M167 836L168 837L167 836M166 837L158 847L166 837z"/>
<path style="fill:#29273d; stroke:none;" d="M175 837L176 838L175 837z"/>
<path style="fill:#eb83dd; stroke:none;" d="M279 837L276 841L275 841L275 850L277 850L279 837z"/>
<path style="fill:#29273d; stroke:none;" d="M174 838L175 839L174 838z"/>
<path style="fill:#eb83dd; stroke:none;" d="M364 838C370.664 853.633 389.83 861.065 405 865L386 855.941L364 838z"/>
<path style="fill:#29273d; stroke:none;" d="M173 839L169 845L173 839z"/>
<path style="fill:#67475d; stroke:none;" d="M254 843L255 844L254 843M156 844L156 846L158 844L156 844z"/>
<path style="fill:#29273d; stroke:none;" d="M168 845L166 848L168 845z"/>
<path style="fill:#67475d; stroke:none;" d="M155 846C141.333 859.667 128.22 873.83 115.089 888C110.232 893.241 101.583 899.597 101 907C116.735 894.967 128.876 877.654 141.947 863.015C145.706 858.804 155.145 851.79 155 846z"/>
<path style="fill:#f39d97; stroke:none;" d="M136 871C144.327 865.134 152.603 855.628 158 847C149.897 850.805 139.216 862.7 136 871z"/>
<path style="fill:#29273d; stroke:none;" d="M165 848L166 849L165 848M164 849L165 850L164 849z"/>
<path style="fill:#67475d; stroke:none;" d="M264 849L272 878L273 878L264 849z"/>
<path style="fill:#eb83dd; stroke:none;" d="M267 849C267.42 858.756 269.125 874.105 278 880L267 849z"/>
<path style="fill:#29273d; stroke:none;" d="M163 850C147.338 866.365 132.035 882.965 116 899C110.891 904.109 100.237 910.996 102 919C107.778 916.073 111.48 909.579 116.004 905C127.705 893.158 139.179 881.208 150.31 868.83C154.256 864.442 163.84 856.26 163 850z"/>
<path style="fill:#eb83dd; stroke:none;" d="M373 854L383 866L373 854M369 859L371 865L367 866L363 862L366 866L368 873L370 873L374 867L369 859z"/>
<path style="fill:#67475d; stroke:none;" d="M130 862L131 863L130 862M127 863L117 877L115 876L109 886C116.775 880.523 125.966 871.702 130 863L127 863z"/>
<path style="fill:#eb83dd; stroke:none;" d="M323 865L319 869L327 875L323 865z"/>
<path style="fill:#f39d97; stroke:none;" d="M270 869L271 870L270 869M271 870L271 873L272 873L271 870z"/>
<path style="fill:#eb83dd; stroke:none;" d="M358 870C363.208 876.458 372.198 885.901 380 889L362 870L361 870L358 870z"/>
<path style="fill:#f39d97; stroke:none;" d="M135 871L136 872L135 871M134 872L135 873L134 872M272.333 873.667L272.667 874.333L272.333 873.667z"/>
<path style="fill:#eb83dd; stroke:none;" d="M372 874C374.212 881.645 384.998 882.97 392 884L392 883L387 878C382 878.577 377.81 878.717 375 874L372 874M327 876L331 878L329 875L327 876M331 878L339 887L331 878z"/>
<path style="fill:#456765; stroke:none;" d="M111 879L108 887L109 887L114 879L111 879z"/>
<path style="fill:#f39d97; stroke:none;" d="M128 879L129 880L128 879M127 880L128 881L127 880M126 881L127 882L126 881z"/>
<path style="fill:#67475d; stroke:none;" d="M275 881L276 882L275 881z"/>
<path style="fill:#f39d97; stroke:none;" d="M125 882L126 883L125 882M124 883L125 884L124 883M302 883L303 884L302 883M123 884L124 885L123 884M303 884L315 896L303 884M122 885L123 886L122 885M121 886L122 887L121 886z"/>
<path style="fill:#456765; stroke:none;" d="M107 887L108 888L107 887z"/>
<path style="fill:#f39d97; stroke:none;" d="M120 887L121 888L120 887z"/>
<path style="fill:#eb83dd; stroke:none;" d="M339.667 887.333L340.333 887.667L339.667 887.333z"/>
<path style="fill:#456765; stroke:none;" d="M101 893L107 888C103.136 888.3 101.652 889.089 101 893z"/>
<path style="fill:#f39d97; stroke:none;" d="M119 888L120 889L119 888z"/>
<path style="fill:#eb83dd; stroke:none;" d="M341 888L342 889L341 888z"/>
<path style="fill:#f39d97; stroke:none;" d="M118 889L119 890L118 889M117 890L118 891L117 890M116 891L117 892L116 891M115 892L116 893L115 892M114 893L115 894L114 893M113 894L114 895L113 894M112 895L113 896L112 895M111 896L112 897L111 896z"/>
<path style="fill:#67475d; stroke:none;" d="M299 896L300 897L299 896z"/>
<path style="fill:#f39d97; stroke:none;" d="M110 897L111 898L110 897M109 898L110 899L109 898z"/>
<path style="fill:#67475d; stroke:none;" d="M285 898L288 901L285 898M312 898L314 900L312 898z"/>
<path style="fill:#f39d97; stroke:none;" d="M108 899L105 904L108 899z"/>
<path style="fill:#67475d; stroke:none;" d="M323 901L322 903L323 901M325 901L325 903L327 903L325 901z"/>
<path style="fill:#f39d97; stroke:none;" d="M104 904L105 905L104 904M103 905L101 910L102 910L103 905z"/>
<path style="fill:#67475d; stroke:none;" d="M288 905L289 906L288 905M289 906L289 908L291 908L289 906z"/>
<path style="fill:#f7cf93; stroke:none;" d="M101 918L102 924L109 927L110 923L101 918z"/>
</svg>
